<?xml version="1.0" encoding="utf-8"?>
<!-- Generator: Adobe Illustrator 21.0.0, SVG Export Plug-In . SVG Version: 6.00 Build 0)  -->
<svg version="1.1" id="Layer_1" xmlns="http://www.w3.org/2000/svg" xmlns:xlink="http://www.w3.org/1999/xlink" x="0px" y="0px"
	 viewBox="0 0 512 512" style="enable-background:new 0 0 512 512;" xml:space="preserve">
<style type="text/css">
	.st0{fill:#E5AF6E;}
	.st1{fill:#AAE090;}
	.st2{opacity:0.26;}
	.st3{fill:#7D966E;}
	.st4{opacity:0.22;}
	.st5{fill:#AD7C47;}
	.st6{fill:#E0656B;}
	.st7{fill:#AD4D56;}
	.st8{fill:#F5EA78;}
</style>
<path class="st0" d="M125.7,315.7C90.8,322.9,64.4,354,64.4,391v85.4V512h372.8V391c0-10.6-2.2-20.7-6.1-29.9L221.9,249.6
	L125.7,315.7z"/>
<path class="st1" d="M362.6,301.1c0,0,28.6,24,10.9,58.5s-89.2,70-89.2,70h0.4c0,0-139.1-35.5-156.8-70s10-56.4,10-56.4L362.6,301.1
	z"/>
<g class="st2">
	<path class="st3" d="M284.5,429.6c0,0-0.1,0-0.3-0.1c-0.1,0-0.1,0.1-0.1,0.1H284.5z"/>
	<path class="st3" d="M362.4,301.1l-43,2c0,0,27.7,22,10,56.4c-12.6,24.4-52,49.4-74,61.9c15.8,4.7,27.1,7.7,28.9,8.1
		c3.2-1.6,71.8-36.3,89.1-70C391,325.1,362.4,301.1,362.4,301.1z"/>
</g>
<path class="st0" d="M100.4,187.1c-16.8,34.6-8,76.3,21.4,101.1l61.4,51.8c38.5,32.5,94.7,32.4,133.2-0.1l61.3-51.9
	c29.4-24.9,38.2-66.5,21.3-101.2l-11-22.6c-3.9-7.9-8.3-15.4-13.4-22.4c12-38.2,24-129.2-1.8-140.8c-22.4-10.1-66.8,43.2-90.8,80.1
	c-10.5-2.3-21.4-3.4-32.5-3.4l0,0c-11,0-21.8,1.2-32.3,3.4c-24-36.9-68.4-90.1-90.8-80.1c-25.7,11.6-13.8,102.6-1.8,140.8
	L100.4,187.1z"/>
<g class="st4">
	<path class="st5" d="M399.8,187l-11-22.6c-3.9-7.9-8.3-15.4-13.4-22.4c12-38.2,24-129.2-1.8-140.8C368.4-1.1,362,0,354.9,3.5
		c21,18.1,9.6,102.2-1.8,138.5c5,7,9.5,14.5,13.4,22.4l11,22.6c16.9,34.6,8.1,76.3-21.3,101.2L294.8,340
		c-16.2,13.7-35.6,21.6-55.5,23.8c27.3,3,55.5-5,77.8-23.8l61.3-51.9C407.9,263.3,416.6,221.6,399.8,187z"/>
</g>
<g>
	<path class="st5" d="M232.7,157.9c-2.2,0-4.3-0.9-5.9-2.6c-15.1-16.9-41.1-18.4-58-3.3c-3.2,2.9-8.2,2.6-11.1-0.6
		c-2.9-3.2-2.6-8.2,0.6-11.1c23.3-20.8,59.3-18.8,80.1,4.6c2.9,3.2,2.6,8.2-0.6,11.1C236.4,157.3,234.6,157.9,232.7,157.9z"/>
	<path class="st5" d="M267.1,157.9c-1.9,0-3.7-0.7-5.2-2c-3.2-2.9-3.5-7.8-0.6-11.1c20.8-23.3,56.8-25.4,80.1-4.6
		c3.2,2.9,3.5,7.8,0.6,11.1s-7.8,3.5-11.1,0.6c-16.9-15.1-42.9-13.6-58,3.3C271.4,157.1,269.3,157.9,267.1,157.9z"/>
	<path class="st5" d="M196.6,193.2c-4.3,0-7.8-3.5-7.8-7.8v-16.8c0-4.3,3.5-7.8,7.8-7.8s7.8,3.5,7.8,7.8v16.8
		C204.4,189.7,200.9,193.2,196.6,193.2z"/>
	<path class="st5" d="M303,193c-4.3,0-7.8-3.5-7.8-7.8v-16.8c0-4.3,3.5-7.8,7.8-7.8s7.8,3.5,7.8,7.8v16.8
		C310.8,189.4,307.3,193,303,193z"/>
</g>
<path class="st6" d="M291.6,277.4c0,23.1-22.1,48.1-41.8,48.1c-18.4,0-41.8-25-41.8-48.1l30.1-7.7l11.6-10.6l18.5,9.4L291.6,277.4z"
	/>
<path class="st7" d="M249.8,325.4c11.8,0,24.4-8.9,32.7-21l-0.2-1.1c-17.7-17.7-46.4-17.7-64.1,0l-1,0.5
	C225.6,316.2,238.6,325.4,249.8,325.4z"/>
<g>
	<path class="st8" d="M142.8,98.6c-4.9-10.8-11.5-52.4-0.7-57.3c10.8-4.9,35,28.9,39.8,39.7L142.8,98.6z"/>
	<path class="st8" d="M357.2,100.5c5.1-11.4,12.2-55.6,0.8-60.7s-37.1,30.6-42.2,42.1L357.2,100.5z"/>
</g>
<g>
	<circle class="st1" cx="393" cy="305.2" r="20.9"/>
	<path class="st1" d="M396.6,283.9c0.8-7.7,3.2-16.5,9.4-22.6c13.4-13.4,39.4-9.1,39.4-9.1s4.3,26-9.1,39.4
		c-6.1,6.1-14.9,8.5-22.5,9.4L396.6,283.9z"/>
	<path class="st1" d="M415.3,310.9c7.7,0.8,16.5,3.2,22.6,9.4c13.4,13.4,9.1,39.4,9.1,39.4s-26,4.3-39.4-9.1
		c-6.1-6.1-8.5-14.9-9.4-22.5L415.3,310.9z"/>
</g>
<g>
	<path class="st5" d="M127.8,511.5v-70.2c0-4.3,3.5-7.8,7.8-7.8c4.3,0,7.8,3.5,7.8,7.8v70.2"/>
	<path class="st5" d="M362.5,511.5v-70.2c0-4.3,3.5-7.8,7.8-7.8s7.8,3.5,7.8,7.8v70.2H362.5z"/>
	<path class="st5" d="M216.7,285.4c-22.6,0-41-18.4-41-41c0-4.3,3.5-7.8,7.8-7.8s7.8,3.5,7.8,7.8c0,13.9,11.3,25.3,25.3,25.3
		c13.9,0,25.3-11.3,25.3-25.3c0-4.3,3.5-7.8,7.8-7.8s7.8,3.5,7.8,7.8C257.6,267,239.2,285.4,216.7,285.4z"/>
	<path class="st5" d="M282.9,285.4c-22.6,0-41-18.4-41-41c0-4.3,3.5-7.8,7.8-7.8s7.8,3.5,7.8,7.8c0,13.9,11.3,25.3,25.3,25.3
		s25.3-11.3,25.3-25.3c0-4.3,3.5-7.8,7.8-7.8s7.8,3.5,7.8,7.8C323.9,267,305.5,285.4,282.9,285.4z"/>
	<path class="st5" d="M266,232.3c0,7.5-7.3,11.5-16.4,11.5c-9,0-16.4-4-16.4-11.5c0-7.5,7.3-13.6,16.4-13.6
		C258.7,218.7,266,224.8,266,232.3z"/>
</g>
</svg>
