<?xml version="1.0" encoding="utf-8"?>
<!-- Generator: Adobe Illustrator 21.0.0, SVG Export Plug-In . SVG Version: 6.00 Build 0)  -->
<svg version="1.1" id="Layer_1" xmlns="http://www.w3.org/2000/svg" xmlns:xlink="http://www.w3.org/1999/xlink" x="0px" y="0px"
	 viewBox="0 0 512 512" style="enable-background:new 0 0 512 512;" xml:space="preserve">
<style type="text/css">
	.st0{fill:#E0656B;}
	.st1{opacity:0.46;fill:#AD4D56;enable-background:new    ;}
	.st2{fill:#BD9C71;}
	.st3{fill:#775F45;}
	.st4{opacity:0.34;fill:#302E2E;enable-background:new    ;}
	.st5{opacity:0.11;fill:#302E2E;enable-background:new    ;}
	.st6{opacity:0.34;}
	.st7{fill:#302E2E;}
	.st8{fill:#8C072F;}
	.st9{fill:#FFFFFF;}
</style>
<path class="st0" d="M284.9,414.8h83.8c25.9,0,46.9,19.5,46.9,43.5V512H96.3v-53.7c0-24,21-43.5,46.9-43.5H163H284.9z"/>
<path class="st1" d="M368.8,414.8h-40.1c25.9,0,46.9,19.5,46.9,43.5V512h40.1v-53.7C415.7,434.3,394.7,414.8,368.8,414.8z"/>
<path class="st2" d="M283.5,388.7V422c0,15.1-12.2,27.3-27.3,27.3l0,0c-15.1,0-27.3-12.2-27.3-27.3v-33.3H283.5z"/>
<path class="st3" d="M145.4,341.8C90.3,308.6,53.9,251.2,53.9,186c0-23.7,4.8-46.4,13.6-67.3c0,0,9-26.7,38.7-57.7
	c36.5-37.9,90.4-61,149.7-61c111.5,0,202,83.3,202,186c0,66.8-35.1,125.4-92.6,158.2L145.4,341.8z"/>
<path class="st4" d="M389.2,46.1c24.9,30.9,39.6,69.2,39.6,110.6c0,66.8-35.1,125.4-92.6,158.2l-219.9-2.5
	c-7.9-4.8-15.5-10.1-22.6-15.8c14.2,17.7,31.8,33,51.9,45.1l219.9,2.5c57.5-32.8,92.6-91.4,92.6-158.2
	C458.1,130.2,431.4,80.2,389.2,46.1z"/>
<g>
	<path class="st2" d="M385,284.6c22,0,39.8-17.8,39.8-39.8S407,205.1,385,205.1H127.2c-22,0-39.8,17.8-39.8,39.8
		s17.8,39.8,39.8,39.8H385V284.6z"/>
	<path class="st2" d="M175.6,123.1c-25.2,0-45.6,20.4-45.6,45.6v59.6V282c0,67.7,55.4,123.2,123.2,123.2h5.2
		c67.7,0,123.2-55.4,123.2-123.2v-53.6v-59.6c0-25.2-20.4-45.6-45.6-45.6L175.6,123.1L175.6,123.1z"/>
</g>
<path class="st5" d="M348.3,124.5c0.9,3.6,1.4,7.4,1.4,11.3v59.6V249c0,67.7-55.4,123.2-123.2,123.2h-5.2c-25.5,0-49.3-7.9-69-21.3
	c22.2,32.6,59.7,54.2,101.9,54.2h5.2c67.7,0,123.2-55.4,123.2-123.2v-53.6v-59.6C382.6,147.4,368,129.6,348.3,124.5z"/>
<g>
	<path class="st3" d="M254.8,341.8c-21,0-40.8-8.2-55.7-23.1c-3.1-3.1-3.1-8,0-11.1s8-3.1,11.1,0c11.9,11.9,27.8,18.5,44.6,18.5
		c16.9,0,32.7-6.6,44.6-18.5c3.1-3.1,8-3.1,11.1,0s3.1,8,0,11.1C295.6,333.6,275.8,341.8,254.8,341.8z"/>
	<path class="st3" d="M254.8,373.5c-12.2,0-24.4-4.6-33.7-13.9c-3.1-3.1-3.1-8,0-11.1s8-3.1,11.1,0c12.5,12.5,32.8,12.5,45.3,0
		c3.1-3.1,8-3.1,11.1,0s3.1,8,0,11.1C279.2,368.8,267,373.5,254.8,373.5z"/>
	<path class="st3" d="M255.7,302.4c-13.4,0-24.3-10.9-24.3-24.3c0-4.3,3.5-7.8,7.8-7.8s7.8,3.5,7.8,7.8c0,4.8,3.9,8.6,8.6,8.6
		c4.8,0,8.6-3.9,8.6-8.6c0-4.3,3.5-7.8,7.8-7.8s7.8,3.5,7.8,7.8C279.9,291.5,269.1,302.4,255.7,302.4z"/>
	<path class="st3" d="M234.3,255.3c-4.3,0-7.8-3.5-7.8-7.8c0-4.8-3.9-8.6-8.6-8.6s-8.6,3.9-8.6,8.6c0,4.3-3.5,7.8-7.8,7.8
		s-7.8-3.5-7.8-7.8c0-13.4,10.9-24.3,24.3-24.3s24.3,10.9,24.3,24.3C242.2,251.8,238.7,255.3,234.3,255.3z"/>
	<path class="st3" d="M317.9,255.3c-4.3,0-7.8-3.5-7.8-7.8c0-4.8-3.9-8.6-8.6-8.6c-4.8,0-8.6,3.9-8.6,8.6c0,4.3-3.5,7.8-7.8,7.8
		s-7.8-3.5-7.8-7.8c0-13.4,10.9-24.3,24.3-24.3s24.3,10.9,24.3,24.3C325.7,251.8,322.2,255.3,317.9,255.3z"/>
</g>
<path class="st3" d="M167.4,114.5c11,11,23.5,19.4,36.9,25.4c0,0,25.4,10.5,66.9,9.2c25.5-0.8,49.6-15.1,69.1-34.6
	C340.3,114.5,167.4,114.5,167.4,114.5z"/>
<g class="st6">
	<path class="st7" d="M155.7,67.2c-2.1,0-4.2-0.8-5.8-2.5c-2.9-3.2-2.7-8.1,0.4-11c1.3-1.2,32.4-29.4,85-30.9
		c4.3-0.1,7.9,3.3,8.1,7.6c0.1,4.3-3.3,7.9-7.6,8.1C189.3,39.9,161.2,65,161,65.3C159.5,66.6,157.6,67.2,155.7,67.2z"/>
</g>
<g>
	<g>
		<path class="st8" d="M240.7,466.7c-4.2-2.3-10.8-0.5-13.4,3.3c-2.7-3.7-9.2-5.6-13.4-3.3c-6.5,3.6-7.9,9.6-5.2,16.4
			s18.6,17.4,18.6,17.4s15.9-10.6,18.6-17.4S247.2,470.2,240.7,466.7z"/>
	</g>
	<g>
		<path class="st9" d="M190.2,498.8v-30.9l6.1-0.5v30.9L190.2,498.8z"/>
		<path class="st9" d="M264.7,498.9v-12.6l-7.5-18.8h6.7l4.3,13l4.6-13h5.2l-7.2,18.1v12.8L264.7,498.9z"/>
		<path class="st9" d="M282,494.7c-1.4-3-2.1-7-2.1-11.8c0-5.1,0.8-9.1,2.3-11.8c1.5-2.8,4-4.2,7.4-4.2c6.5,0,9.7,5.3,9.7,15.8
			c0,4.7-0.7,8.7-2.2,11.8c-1.5,3.1-4,4.7-7.6,4.7C285.9,499.2,283.4,497.7,282,494.7z M292.4,491.5c0.5-1.9,0.7-4.8,0.7-8.7
			c0-3.1-0.2-5.7-0.7-7.8c-0.5-2.1-1.4-3.1-2.9-3.1c-1.5,0-2.5,1-2.9,3.1c-0.4,2.1-0.7,4.6-0.7,7.8c0,3.9,0.2,6.9,0.7,8.8
			c0.5,1.9,1.4,2.9,2.9,2.9C290.9,494.3,291.9,493.4,292.4,491.5z"/>
		<path class="st9" d="M305.9,496.3c-1.6-2-2.3-4.6-2.3-7.8v-20.6l6.1-0.3v21.4c0,1.1,0.1,2,0.2,2.7c0.1,0.8,0.4,1.4,0.9,1.9
			c0.5,0.5,1.3,0.8,2.3,0.8c1,0,1.7-0.3,2.1-0.8c0.5-0.5,0.7-1.2,0.9-1.9c0.1-0.7,0.2-1.7,0.2-2.8V468l5.6-0.5v20.2
			c0,2.9-0.6,5.6-1.7,8c-1.1,2.4-3.6,3.6-7.2,3.6C309.7,499.2,307.4,498.3,305.9,496.3z"/>
	</g>
</g>
</svg>
