<?xml version="1.0" encoding="utf-8"?>
<!-- Generator: Adobe Illustrator 21.0.0, SVG Export Plug-In . SVG Version: 6.00 Build 0)  -->
<svg version="1.1" id="Layer_1" xmlns="http://www.w3.org/2000/svg" xmlns:xlink="http://www.w3.org/1999/xlink" x="0px" y="0px"
	 viewBox="0 0 512 512" style="enable-background:new 0 0 512 512;" xml:space="preserve">
<style type="text/css">
	.st0{fill:#F5EA78;}
	.st1{fill:#FFFFFF;}
	.st2{fill:#E5AF6E;}
	.st3{opacity:0.28;}
	.st4{opacity:0.32;fill:#E5AF6E;enable-background:new    ;}
	.st5{fill:#5D5D5D;}
	.st6{fill:#BD9C71;}
	.st7{opacity:0.27;enable-background:new    ;}
	.st8{opacity:0.45;}
</style>
<g>
	<path class="st0" d="M384.3,252.6c23.1,0,41.9-18.8,41.9-41.9s-18.8-41.9-41.9-41.9H128.8c-23.1,0-41.9,18.8-41.9,41.9
		s18.8,41.9,41.9,41.9H384.3z"/>
	<path class="st0" d="M383.7,122.2V246c0,70.6-57.7,128.3-128.3,128.3l0,0c-70.6,0-128.3-57.7-125.5-124.5V126L383.7,122.2z"/>
</g>
<path class="st1" d="M308.2,261.2c0,28.2-22.9,51.1-51.1,51.1s-51.1-22.9-51.1-51.1L308.2,261.2L308.2,261.2z"/>
<g>
	<path class="st2" d="M332.2,214.9c-4.3,0-7.8-3.5-7.8-7.8v-4.5h-23.9c-4.3,0-7.8-3.5-7.8-7.8s3.5-7.8,7.8-7.8h31.7
		c4.3,0,7.8,3.5,7.8,7.8v12.3C340,211.4,336.5,214.9,332.2,214.9z"/>
	<path class="st2" d="M184,213.9c-4.3,0-7.8-3.5-7.8-7.8v-11.3c0-4.3,3.5-7.8,7.8-7.8h31.7c4.3,0,7.8,3.5,7.8,7.8s-3.5,7.8-7.8,7.8
		h-23.9v3.5C191.8,210.4,188.3,213.9,184,213.9z"/>
	<path class="st2" d="M235.7,241.6c-2,0-4-0.8-5.5-2.3c-3-3-3-8,0-11l20.6-20.6c1.5-1.5,3.4-2.3,5.5-2.3l0,0c2.1,0,4.1,0.8,5.5,2.3
		l20.6,20.6c3,3,3,8,0,11c-3,3-8,3-11,0l-15-15l-15,15C239.7,240.9,237.7,241.6,235.7,241.6z"/>
</g>
<g class="st3">
	<path d="M262.7,287.5c0-4.3-3.5-7.8-7.8-7.8h-41.2c-1.2,0-2.3,0.3-3.4,0.8c2.1,5.5,5.2,10.5,8.9,14.8h35.7
		C259.2,295.3,262.7,291.8,262.7,287.5z"/>
</g>
<path class="st4" d="M353.5,122.7v8.2H129.7v17.3h223.8v67.6c0,70.6-57.7,128.3-128.3,128.3l0,0c-27.6,0-53.2-8.8-74.1-23.6
	c22.6,32.1,61,53.8,104.2,53.8l0,0c70.6,0,128.3-57.7,128.3-128.3V122.2L353.5,122.7z"/>
<path class="st5" d="M317.6,124.5v39.8c-82.2,0-146.7-31-146.7-31v-24.4L317.6,124.5z"/>
<polygon class="st2" points="170.7,44.9 256,0 509.9,132.3 2.1,132.3 88.8,87.1 "/>
<g>
	<polygon class="st6" points="256,0 229.6,13.9 456.8,132.3 509.9,132.3 	"/>
	<path class="st6" d="M397.5,91.6H233.3c-4.3,0-7.8-3.5-7.8-7.8s3.5-7.8,7.8-7.8h164.2c4.3,0,7.8,3.5,7.8,7.8S401.8,91.6,397.5,91.6
		z"/>
</g>
<path class="st5" d="M303.6,367.4v44.1c0,5.7,4.6,10.3,10.3,10.3l0,0h8.7c48.6,0,87.9,39.4,87.9,87.9v2.3H100.2v-2.3
	c0-48.6,39.4-87.9,87.9-87.9h9.6h0.1c5.7,0,10.3-4.6,10.3-10.3v-44.1L303.6,367.4L303.6,367.4z"/>
<path class="st7" d="M322.6,421.8h-8.7c-5.7,0-10.3-4.6-10.3-10.3v-44.1h-17.7v44.1c0,5.7,4.6,10.3,10.3,10.3h0.4
	c48.6,0,87.9,39.4,87.9,87.9v2.3h26v-2.3C410.5,461.2,371.1,421.8,322.6,421.8z"/>
<g class="st8">
	<path d="M264.9,511.9V384.6c0-4.3,3.5-7.8,7.8-7.8s7.8,3.5,7.8,7.8v127.3L264.9,511.9L264.9,511.9z"/>
</g>
<g class="st8">
	<path d="M247.8,421.6c-4.3,0-7.8-3.5-7.8-7.8v-11.9c0-4.3,3.5-7.8,7.8-7.8s7.8,3.5,7.8,7.8v11.9
		C255.6,418.1,252.1,421.6,247.8,421.6z"/>
</g>
<g class="st8">
	<path d="M247.8,466.9c-4.3,0-7.8-3.5-7.8-7.8v-11.9c0-4.3,3.5-7.8,7.8-7.8s7.8,3.5,7.8,7.8v11.9
		C255.6,463.4,252.1,466.9,247.8,466.9z"/>
</g>
</svg>
