<?xml version="1.0" encoding="utf-8"?>
<!-- Generator: Adobe Illustrator 21.0.0, SVG Export Plug-In . SVG Version: 6.00 Build 0)  -->
<svg version="1.1" id="Layer_1" xmlns="http://www.w3.org/2000/svg" xmlns:xlink="http://www.w3.org/1999/xlink" x="0px" y="0px"
	 viewBox="0 0 512 512" style="enable-background:new 0 0 512 512;" xml:space="preserve">
<style type="text/css">
	.st0{fill:#5D5D5D;}
	.st1{fill:#FFFFFF;}
	.st2{opacity:0.59;enable-background:new    ;}
	.st3{fill:#F9C3C2;}
	.st4{fill:#DD8E92;}
	.st5{opacity:0.46;fill:#DD8E92;enable-background:new    ;}
	.st6{fill:#BA6A73;}
</style>
<path class="st0" d="M287.2,373.3h33.5c50.5,0,91.5,54.6,91.5,105.1V512H95.3v-47.2c0-50.5,41-91.5,91.5-91.5h38.6H287.2z"/>
<rect x="225.1" y="390.5" class="st1" width="62" height="121.5"/>
<g>
	<polygon class="st2" points="225.1,373.3 225.1,512 182.2,472 200.4,443.1 173.9,406.6 	"/>
	<polygon class="st2" points="287.3,373.3 287.3,512 330.2,472 312,443.1 338.5,406.6 	"/>
	<path class="st2" d="M248.4,511.8v-77.5c0-4.3,3.5-7.9,7.9-7.9c4.3,0,7.9,3.5,7.9,7.9v77.5H248.4z"/>
</g>
<path class="st3" d="M287.2,334v69.4c0,17.1-13.8,30.9-30.9,30.9l0,0c-17.1,0-30.9-13.8-30.9-30.9V334H287.2z"/>
<path class="st4" d="M397.3,248.7c21.4,0,38.7-17.3,38.7-38.7s-17.3-38.7-38.7-38.7H114.7c-21.4,0-38.7,17.3-38.7,38.7
	s17.3,38.7,38.7,38.7H397.3z"/>
<path class="st3" d="M177.6,23.3C199.1,7.7,226.3,0,254.7,0l0,0c77.9,0,141.6,63.7,141.6,141.6v72.8c0,77.9-63.7,141.6-141.6,141.6
	l0,0c-77.9,0-141.6-63.7-138.5-137.4v-72.8c-0.9-23.4,3.7-45.4,12.5-64.8C128.7,81,140.5,50.4,177.6,23.3z"/>
<path class="st5" d="M341,29.5c18.5,23.9,29.5,53.8,29.5,86.2v72.8c0,77.9-63.7,141.6-141.6,141.6l0,0c-32.4,0-62.3-11-86-29.2
	C168.1,334,209,356,254.7,356l0,0c77.9,0,141.6-63.7,141.6-141.6v-72.8C396.3,96.1,374.6,55.4,341,29.5z"/>
<circle class="st1" cx="311.4" cy="159.4" r="42.6"/>
<path class="st6" d="M254.4,312.9c-13.7,0-27.5-5.2-37.9-15.7c-3.1-3.1-3.1-8,0-11.1c3.1-3.1,8-3.1,11.1,0
	c14.8,14.8,38.8,14.8,53.6,0c3.1-3.1,8-3.1,11.1,0c3.1,3.1,3.1,8,0,11.1C281.9,307.7,268.1,312.9,254.4,312.9z"/>
<path class="st1" d="M153.4,97.5c-1.2,0-2.5-0.3-3.7-0.9c-3.8-2-5.3-6.8-3.2-10.6c13.1-24.6,30.9-42.9,53-54.2
	c17.2-8.8,36.5-13.2,57.4-13.2c4.3,0,7.9,3.5,7.9,7.9s-3.5,7.9-7.9,7.9c-29.7,0-70.5,10.2-96.5,59.1C159,96,156.2,97.5,153.4,97.5z"
	/>
<g>
	<path class="st6" d="M199.5,176.8c-4.3,0-7.9-3.5-7.9-7.9v-19.4c0-4.3,3.5-7.9,7.9-7.9c4.3,0,7.9,3.5,7.9,7.9v19.4
		C207.4,173.3,203.9,176.8,199.5,176.8z"/>
	<path class="st6" d="M310.8,176.8c-4.3,0-7.9-3.5-7.9-7.9v-19.4c0-4.3,3.5-7.9,7.9-7.9c4.3,0,7.9,3.5,7.9,7.9v19.4
		C318.7,173.3,315.2,176.8,310.8,176.8z"/>
</g>
<g>
	<path class="st0" d="M154.4,248.6c0,0,15.7,4.9,47.8-14.8s52,2.5,52,2.5s-4.9,37.1-47.8,30.5S154.4,248.6,154.4,248.6z"/>
	<path class="st0" d="M352.2,248.6c0,0-15.7,4.9-47.8-14.8s-52,2.5-52,2.5s4.9,37.1,47.8,30.5S352.2,248.6,352.2,248.6z"/>
</g>
<path class="st6" d="M250.3,209.2h-14.1c-2.4,0-4.6-1.1-6.1-2.9c-1.5-1.8-2.1-4.2-1.6-6.5l9.9-48c0.9-4.2,5-7,9.3-6.1
	c4.2,0.9,7,5,6.1,9.3l-8,38.6h4.4c4.3,0,7.9,3.5,7.9,7.9C258.1,205.7,254.6,209.2,250.3,209.2z"/>
</svg>
