<?xml version="1.0" encoding="utf-8"?>
<!-- Generator: Adobe Illustrator 21.0.0, SVG Export Plug-In . SVG Version: 6.00 Build 0)  -->
<svg version="1.1" id="Layer_1" xmlns="http://www.w3.org/2000/svg" xmlns:xlink="http://www.w3.org/1999/xlink" x="0px" y="0px"
	 viewBox="0 0 512 512" style="enable-background:new 0 0 512 512;" xml:space="preserve">
<style type="text/css">
	.st0{fill:#BD9C71;}
	.st1{opacity:0.13;enable-background:new    ;}
	.st2{opacity:0.34;fill:#5D5D5D;enable-background:new    ;}
	.st3{fill:#775F45;}
	.st4{opacity:0.13;fill:#5D5D5D;enable-background:new    ;}
	.st5{fill:#5B4934;}
	.st6{fill:#FFFFFF;}
	.st7{fill:#3095B1;}
	.st8{fill:#EAF6FE;}
	.st9{opacity:0.38;fill:#3095B1;}
</style>
<path class="st0" d="M284.1,349.4v72.7c0,15.1-12.3,27.4-27.4,27.4l0,0c-15.1,0-27.4-12.3-27.4-27.4v-68L284.1,349.4z"/>
<g class="st1">
	<rect x="228.9" y="368.5" class="st2" width="55" height="23.9"/>
</g>
<path class="st3" d="M380.3,254.2c23.3,0,42.2-18.9,42.2-42.2s-18.9-42.2-42.2-42.2H132.7c-23.3,0-42.2,18.9-42.2,42.2
	s18.9,42.2,42.2,42.2H380.3z"/>
<path class="st0" d="M145,119.7c-7,15.2-10.9,32.1-10.9,49.8v40.6v42.6c0,14.3,2.5,28,7.2,40.8c0,0,6.6,28.3,39.5,54
	c20.2,15.8,45.7,25.1,73.2,25.1h5.1c65.9,0,119.8-53.9,119.8-119.8v-42.6v-40.6c0-45.1-25.2-84.5-62.2-105L145,119.7z"/>
<path class="st0" d="M159.7,232c6.3,0,11.4-5.1,11.4-11.4v-49.8h67.8h36h67.8v49.8c0,6.3,5.1,11.4,11.4,11.4h25.1v-20.6v-42.6
	c0-14.3-2.5-28-7.2-40.8c0,0-6.6-28.3-39.5-54C312.3,58.3,286.8,49,259.3,49h-5.1c-65.9,0-119.8,53.9-119.8,119.8v42.6V232
	L159.7,232L159.7,232z"/>
<g>
	<path class="st3" d="M210.6,213.8c-4.3,0-7.9-3.5-7.9-7.9v-19.6c0-4.3,3.5-7.9,7.9-7.9c4.3,0,7.9,3.5,7.9,7.9V206
		C218.5,210.3,215,213.8,210.6,213.8z"/>
	<path class="st3" d="M302.4,213.8c-4.3,0-7.9-3.5-7.9-7.9v-19.6c0-4.3,3.5-7.9,7.9-7.9c4.3,0,7.9,3.5,7.9,7.9V206
		C310.2,210.3,306.7,213.8,302.4,213.8z"/>
	<path class="st3" d="M265.2,236.3h-18.1c-2.3,0-4.5-1-6-2.7c-1.5-1.7-2.2-4-1.8-6.3l6.8-44.9c0.7-4.3,4.7-7.2,8.9-6.6
		c4.3,0.7,7.2,4.7,6.6,8.9l-5.5,35.9h8.9c4.3,0,7.9,3.5,7.9,7.9C273.1,232.8,269.5,236.3,265.2,236.3z"/>
</g>
<path class="st4" d="M330.1,72.6c14.4,19.8,23,44.1,23,70.3v40.6v42.6c0,65.9-53.9,119.8-119.8,119.8h-5.1
	c-26.6,0-51.3-8.7-71.2-23.6c5.8,7.9,13.8,16.6,24.5,25c20.2,15.8,45.7,25.1,73.2,25.1h5.1c65.9,0,119.8-53.9,119.8-119.8v-42.6
	v-40.6C379.6,129.8,360,94.5,330.1,72.6z"/>
<path class="st5" d="M353.8,190.4c-6.3,0-11.4,5.1-11.4,11.4v49.8h-67.8h-36h-67.8v-49.8c0-6.3-5.1-11.4-11.4-11.4h-26.1V211v42.6
	c0,14.3,3.5,28,8.2,40.8c0,0,6.6,28.3,39.5,54c20.2,15.8,45.7,25.1,73.2,25.1h5.1c65.9,0,120.8-53.9,120.8-119.8V211v-20.6
	L353.8,190.4L353.8,190.4z"/>
<path class="st6" d="M293.5,274.8c0,19.9-16.2,36.1-36.1,36.1s-36.1-16.2-36.1-36.1H293.5z"/>
<g>
	<path class="st7" d="M142.1,407c-25.4,0.7-45.8,21.4-45.8,47v58h45.8V407z"/>
	<path class="st8" d="M180.9,407h-37.6c-0.4,0-0.8,0-1.3,0v105h45.8V407H180.9z"/>
	<polygon class="st7" points="226.8,407 187.9,407 187.9,512 233.6,512 233.6,407 	"/>
	<rect x="233.6" y="407" class="st8" width="45.8" height="105"/>
	<polygon class="st7" points="284.2,407 279.4,407 279.4,512 325.2,512 325.2,407 	"/>
	<path class="st8" d="M370.9,437.8c-6.6-18-23.9-30.9-44.2-30.9h-1.6v105h45.8h2.9v-58C373.8,448.3,372.8,442.9,370.9,437.8z"/>
	<path class="st7" d="M416.7,454v58h0L416.7,454c0-1.2,0-2.4-0.1-3.6C416.7,451.5,416.7,452.8,416.7,454z"/>
	<path class="st9" d="M416.6,450.4c-0.1-1.2-0.2-2.4-0.4-3.5c-0.1-0.8-0.3-1.6-0.4-2.3c-0.8-3.8-2-7.5-3.7-10.9
		c-2-4.1-4.5-7.9-7.6-11.2c-1-1.1-2.1-2.2-3.2-3.2c-8.1-7.3-18.7-11.9-30.4-12.2c-0.4,0-0.8,0-1.3,0H335h-8.3
		c20.3,0,37.6,12.9,44.2,30.9c1.8,5,2.9,10.5,2.9,16.2v58h42.9v-58C416.7,452.8,416.7,451.5,416.6,450.4z"/>
</g>
<g>
	<g>
		<path class="st7" d="M349.5,491.2c17.5,0,17.5-19.5,17.5-43.5h-35.1C331.9,471.7,331.9,491.2,349.5,491.2z"/>
	</g>
	<g>
		<path class="st8" d="M349.5,482.9c10.9,0,10.9-12.1,10.9-27h-21.7C338.6,470.9,338.6,482.9,349.5,482.9z"/>
	</g>
</g>
<circle class="st7" cx="349.5" cy="469.5" r="7.3"/>
<rect x="230.3" y="429.8" class="st7" width="54.3" height="12.4"/>
</svg>
