<?xml version="1.0" encoding="utf-8"?>
<!-- Generator: Adobe Illustrator 21.0.0, SVG Export Plug-In . SVG Version: 6.00 Build 0)  -->
<svg version="1.1" id="Layer_1" xmlns="http://www.w3.org/2000/svg" xmlns:xlink="http://www.w3.org/1999/xlink" x="0px" y="0px"
	 viewBox="0 0 512 512" style="enable-background:new 0 0 512 512;" xml:space="preserve">
<style type="text/css">
	.st0{fill:#F4A2A3;}
	.st1{opacity:0.62;}
	.st2{fill:#DD8E92;}
	.st3{fill:#ED989D;}
	.st4{opacity:0.62;fill:#DD8E92;enable-background:new    ;}
	.st5{fill:#FFFFFF;}
	.st6{fill:#BA6A73;}
	.st7{fill:#B1DEE0;}
	.st8{fill:#F5EA78;}
	.st9{fill:#AAE090;}
</style>
<rect x="199.1" y="348.5" class="st0" width="54" height="59.8"/>
<g class="st1">
	<rect x="199.1" y="348.5" class="st2" width="54" height="33.2"/>
</g>
<path class="st3" d="M360.8,255.8c22,0,39.8-17.8,39.8-39.8s-17.8-39.8-39.8-39.8H103c-22,0-39.8,17.8-39.8,39.8S81,255.8,103,255.8
	H360.8z"/>
<path class="st0" d="M167.2,68.1c-37.1,17.7-62.8,55.6-62.8,99.5v22.5v53.6c0,17.7,4.3,34.4,10.6,49.8c6.4,15.6,16.2,28.3,25.6,37.2
	c23,21.6,53.1,36.2,87,36.2h5.2c67.8,0,123.2-55.4,123.2-123.2v-53.6v-22.5c0-43.1-24.7-80.4-60.8-98.5c0,0-33.7-10.1-65.6-10.1
	C181.5,59,167.2,68.1,167.2,68.1z"/>
<path class="st4" d="M307.5,76.3c11.9,17.6,18.8,38.8,18.8,61.6v22.5V214c0,67.8-55.4,123.2-123.2,123.2h-5.2
	c-27.1,0-51.7-9.3-72.3-24.1c4.7,6.9,9.9,12.9,15,17.6c23,21.6,53.1,36.2,87,36.2h5.2c67.8,0,123.2-55.4,123.2-123.2v-53.6v-22.5
	C356,129.6,336.8,96.1,307.5,76.3z"/>
<path class="st5" d="M271,278.6c0,22.3-18.1,40.4-40.4,40.4s-40.4-18.1-40.4-40.4H271z"/>
<g>
	<path class="st6" d="M186,218.3c-4.3,0-7.8-3.5-7.8-7.8v-24.4c0-4.3,3.5-7.8,7.8-7.8c4.3,0,7.8,3.5,7.8,7.8v24.4
		C193.9,214.8,190.3,218.3,186,218.3z"/>
	<path class="st6" d="M272.4,218.3c-4.3,0-7.8-3.5-7.8-7.8v-24.4c0-4.3,3.5-7.8,7.8-7.8s7.8,3.5,7.8,7.8v24.4
		C280.2,214.8,276.7,218.3,272.4,218.3z"/>
</g>
<path class="st0" d="M198.3,398.5h-80.5c0,0-35.1-1-51.3,26.8c-5.9,10.2-10.6,21.3-10.6,33.8v52.7h342.5v-52.7
	c0-33.3-27.8-60.6-61.9-60.6h-82.9H198.3z"/>
<g class="st1">
	<path class="st2" d="M117.8,398.7c0,0-0.3,0-1,0H117.8z"/>
	<path class="st2" d="M336.5,398.7h-53.2c34,0,61.9,27.3,61.9,60.6V512h53.2v-52.7C398.4,426,370.5,398.7,336.5,398.7z"/>
</g>
<path class="st2" d="M229.9,170.2c0,0-24.9,23.1-24.9,78h33.8L229.9,170.2z"/>
<path class="st6" d="M287.6,144h-106c-4.3,0-7.8-3.5-7.8-7.8s3.5-7.8,7.8-7.8h106c4.3,0,7.8,3.5,7.8,7.8S291.9,144,287.6,144z"/>
<g>
	<path class="st7" d="M327.9,225h-25.5c-4.3,0-7.8-3.5-7.8-7.8s3.5-7.8,7.8-7.8h25.5c4.3,0,7.8,3.5,7.8,7.8
		C335.8,221.5,332.3,225,327.9,225z"/>
	<path class="st7" d="M327.9,252.6h-25.5c-4.3,0-7.8-3.5-7.8-7.8s3.5-7.8,7.8-7.8h25.5c4.3,0,7.8,3.5,7.8,7.8
		S332.3,252.6,327.9,252.6z"/>
	<path class="st7" d="M159.8,225h-25.5c-4.3,0-7.8-3.5-7.8-7.8s3.5-7.8,7.8-7.8h25.5c4.3,0,7.8,3.5,7.8,7.8
		C167.7,221.5,164.2,225,159.8,225z"/>
	<path class="st7" d="M159.8,252.6h-25.5c-4.3,0-7.8-3.5-7.8-7.8s3.5-7.8,7.8-7.8h25.5c4.3,0,7.8,3.5,7.8,7.8
		S164.2,252.6,159.8,252.6z"/>
</g>
<path class="st8" d="M220.3,60.1c0,0,38.3-65.3,235.8-59.7C456.1,0.3,339.1,52.1,220.3,60.1z"/>
<path class="st9" d="M222.3,59.7c0,0-44.5,6.2-71-58.5C151.2,1.2,208.6-1.9,222.3,59.7z"/>
<g>
	<path class="st6" d="M137,492.5c-4.3,0-7.8-3.5-7.8-7.8v-12.6c0-4.3,3.5-7.8,7.8-7.8c4.3,0,7.8,3.5,7.8,7.8v12.6
		C144.8,489,141.3,492.5,137,492.5z"/>
	<path class="st6" d="M324.9,492.5c-4.3,0-7.8-3.5-7.8-7.8v-12.6c0-4.3,3.5-7.8,7.8-7.8s7.8,3.5,7.8,7.8v12.6
		C332.8,489,329.2,492.5,324.9,492.5z"/>
	<path class="st6" d="M238.8,256.1H205c-4.3,0-7.8-3.5-7.8-7.8c0-57.6,26.2-82.7,27.4-83.8c3.2-2.9,8.1-2.8,11.1,0.4
		c2.9,3.2,2.8,8.1-0.4,11c-0.4,0.4-20.1,20-22.2,64.5h25.8c4.3,0,7.8,3.5,7.8,7.8S243.2,256.1,238.8,256.1z"/>
</g>
</svg>
