<?xml version="1.0" encoding="utf-8"?>
<!-- Generator: Adobe Illustrator 21.0.0, SVG Export Plug-In . SVG Version: 6.00 Build 0)  -->
<svg version="1.1" id="Laag_1" xmlns="http://www.w3.org/2000/svg" xmlns:xlink="http://www.w3.org/1999/xlink" x="0px" y="0px"
	 viewBox="0 0 387.1 392.2" style="enable-background:new 0 0 387.1 392.2;" xml:space="preserve">
<style type="text/css">
	.st0{fill:#1579FB;}
	.st1{opacity:0.3;}
	.st2{fill:#DBDBDB;}
	.st3{opacity:0.43;fill:#B2B2B2;enable-background:new    ;}
	.st4{fill:#85BABA;}
	.st5{fill:#B2B2B2;}
	.st6{fill:#848484;}
	.st7{opacity:0.27;fill:#B2B2B2;enable-background:new    ;}
	.st8{fill:#B1DEE0;}
	.st9{fill:#F9C3C2;}
	.st10{fill:#DD8E92;}
	.st11{fill:#FFFFFF;}
	.st12{enable-background:new    ;}
	.st13{fill:#E55042;}
	.st14{font-family:'FrancoisOne-Regular';}
	.st15{font-size:180px;}
</style>
<g id="Group_200" transform="translate(19584)">
	<g id="Group_192">
		<path id="Path_99" class="st0" d="M-19510.3,181.7c2.1,27.9-3.4,129.9,62.6,155.7c66,25.8,181.7,16.4,177.2-113
			s-2.5-191-67.1-215.3s-132.9,4.4-146.5,36.1S-19512.4,153.8-19510.3,181.7z"/>
		<g id="Group_62" transform="translate(151.054 534.155)">
			<g id="Group_63" transform="translate(48.765 -211.286)" class="st1">
				<path id="Path_68" class="st2" d="M-19525.8-47.7h15.6c8.9,0,22.3,10,22.3,22.4V2.3h-202.7v-27.6c0-12.3,10-22.3,22.4-22.4
					H-19525.8z"/>
				<path id="Path_69" class="st3" d="M-19510.2-47.7h-29.5c8.9,0,22.3,10,22.3,22.4V2.3h29.4v-27.6
					C-19487.9-37.7-19501.3-47.7-19510.2-47.7z"/>
				<path id="Path_70" class="st4" d="M-19611.5-32.8v35h-14.6v-40.9L-19611.5-32.8z"/>
				<path id="Path_71" class="st5" d="M-19667.9-90.5v6.6c0,28,22.7,50.7,50.7,50.7h55.5c28,0,50.7-22.7,50.7-50.7v-6.6H-19667.9z"
					/>
				<path id="Path_72" class="st6" d="M-19655.3-94.8v5.8c0,24.6,19.9,44.5,44.5,44.5h48.8c24.6,0,44.5-19.9,44.5-44.5v-5.8
					H-19655.3z"/>
				<path id="Path_73" class="st5" d="M-19680.7-156.2h-9.6c-3.9,0-7.1,3.1-7.1,7c0,0,0,0,0,0.1v23.2c0,3.9,3.1,7,7,7.1c0,0,0,0,0,0
					h201.2c3.9,0,7-3.1,7.1-7c0,0,0,0,0,0v-23.2c0-3.9-3.1-7-7-7.1c0,0,0,0,0,0H-19680.7z"/>
				<path id="Path_74" class="st2" d="M-19642.4-213.8c15.2-10.4,33.4-17,53.2-17c50.7,0,91.7,41.1,91.7,91.8s-41.1,91.7-91.8,91.7
					c-50.7,0-91.7-41.1-91.7-91.8c0-19.3,6.1-38.1,17.4-53.7C-19657.7-201-19650.6-208.1-19642.4-213.8z"/>
				<g id="Group_18" transform="translate(31.317 14.93)">
					<path id="Path_75" class="st7" d="M-19570.3-230.8c27.7,42.5,15.8,99.3-26.7,127c-30.5,19.9-69.9,19.9-100.4,0
						c27.7,42.4,84.6,54.3,127,26.6s54.3-84.6,26.6-127C-19550.6-214.8-19559.7-223.9-19570.3-230.8z"/>
					<path id="Path_76" class="st5" d="M-19551.4-136.6c0,25.9-31,56.7-69.1,56.7s-69.1-30.8-69.1-56.7s30.9-56.7,69.1-56.7
						S-19551.4-162.5-19551.4-136.6z"/>
				</g>
				<path id="Path_77" class="st8" d="M-19587.9-230.8c-7.5,0-14.9,0.9-22.2,2.8v178c7.2,1.8,14.7,2.7,22.2,2.7
					c7.5,0,14.9-0.9,22.2-2.7v-178.2C-19573-229.9-19580.5-230.8-19587.9-230.8z"/>
				<path id="Path_78" class="st9" d="M-19589.1-178.4c-23.3,0.2-45.2,11.2-59.2,29.9v53.7c24.2,32.7,70.3,39.6,103,15.4
					c6.2-4.6,11.6-10.1,16.1-16.3v-52C-19543.2-166.8-19565.4-178.2-19589.1-178.4z"/>
				<g id="Group_19" transform="translate(82.755 85.304)">
					<path id="Path_79" class="st10" d="M-19693.8-214.4c-2,0-3.5-1.6-3.6-3.6v-9.3c0-2,1.7-3.5,3.6-3.5c1.9,0,3.4,1.6,3.5,3.5v9.3
						C-19690.2-216-19691.8-214.4-19693.8-214.4z"/>
					<path id="Path_80" class="st10" d="M-19650.2-214.4c-2,0-3.5-1.6-3.6-3.6v-9.3c0-2,1.5-3.6,3.5-3.6c2,0,3.6,1.5,3.6,3.5
						c0,0.1,0,0.1,0,0.2v9.3c0,1.9-1.5,3.5-3.4,3.6C-19650.1-214.4-19650.1-214.4-19650.2-214.4z"/>
				</g>
				<path id="Path_81" class="st11" d="M-19563.5-111.3c0.1,14.2-11.4,25.8-25.6,25.9c-14.2,0.1-25.8-11.4-25.9-25.6
					c0-0.1,0-0.2,0-0.3H-19563.5z"/>
				<g id="Group_20" transform="translate(72.501 70.157)">
					<path id="Path_82" class="st10" d="M-19658.4-193h-8.1c-2,0-3.6-1.6-3.6-3.6c0-0.2,0-0.4,0.1-0.6l2.5-14.6
						c0.3-1.9,2.1-3.3,4.1-3s3.3,2.1,3,4.1c0,0,0,0.1,0,0.1l-1.8,10.5h3.8c2,0,3.5,1.6,3.5,3.5
						C-19654.8-194.6-19656.4-193-19658.4-193C-19658.3-193-19658.4-193-19658.4-193z"/>
					<path id="Path_83" class="st10" d="M-19674.1-219.6c-0.9,0-1.8-0.4-2.5-1c-4-4-10.5-4-14.6,0c-1.4,1.4-3.7,1.4-5.1,0
						c-1.4-1.4-1.4-3.7,0-5.1c6.8-6.8,17.8-6.8,24.6,0c1.4,1.4,1.4,3.7,0,5.1C-19672.3-220-19673.2-219.6-19674.1-219.6
						L-19674.1-219.6z"/>
					<path id="Path_84" class="st10" d="M-19629.8-219.6c-0.9,0-1.8-0.4-2.5-1c-4-4-10.5-4-14.6,0c-1.4,1.4-3.7,1.4-5.1,0
						c-1.4-1.4-1.4-3.7,0-5.1l0,0c6.8-6.8,17.8-6.8,24.6,0c1.4,1.4,1.4,3.7,0,5.1C-19628-220-19628.9-219.6-19629.8-219.6
						L-19629.8-219.6z"/>
				</g>
				<rect id="Rectangle_3" x="-19547.8" y="-24.2" class="st8" width="21.3" height="15.8"/>
				<path id="Path_85" class="st2" d="M-19581.3-99.9c0-2-1.6-3.5-3.6-3.5h-27c-0.6,0-1.3,0.2-1.8,0.5c0.8,2.4,2,4.6,3.4,6.6h25.4
					C-19582.9-96.4-19581.3-97.9-19581.3-99.9C-19581.3-99.9-19581.3-99.9-19581.3-99.9z"/>
			</g>
			<g id="Group_64" transform="translate(-37.79 -32.243)">
				<path id="Path_21" class="st11" d="M-19684.2-195.6c12.4-1.2,123.2,4.1,166.7,0.9c43.5-3.2,94.8,1.3,109.6,2.3
					c14.8,0.9,76.8-2.5,83.7-0.8c7,1.7,10.6,12.7,11.3,19.4s-0.4,17.8-3.4,21.8s-41.4,8.6-64.6,7.5s-73.2-0.7-92.6-0.2
					s-24.7-1.8-60.1-1.5c-35.4,0.3-75.1-3-94.4-1.4c-19.3,1.6-44.4,1.2-53.7-0.3c-9.2-1.5-15.5-14.4-13.6-19.1
					C-19693.5-171.7-19696.5-194.4-19684.2-195.6z"/>
			</g>
		</g>
	</g>
	<g class="st12">
		<path class="st13" d="M-19525.3,340.5l-3.9-10.5l-1.7,3v7.1h-4.4V318l4.4-0.4v9.8l5.3-9.8h4.7l-4.8,9.3l4.9,12.6L-19525.3,340.5z"
			/>
		<path class="st13" d="M-19518.7,340.3v-16.7l4.2-0.4v16.7L-19518.7,340.3z M-19518.7,321.1v-4.4l4.2-0.3v4.5L-19518.7,321.1z"/>
		<path class="st13" d="M-19510,338.1c-1.1-1.6-1.6-3.7-1.6-6.3c0-2.7,0.5-4.8,1.6-6.4c1.1-1.6,2.6-2.4,4.7-2.4c2,0,3.5,0.8,4.5,2.4
			c1,1.6,1.6,3.7,1.6,6.4c0,0.2,0,0.3-0.1,0.3c-0.1,0.1-0.1,0.1-0.1,0.1h-8c0,1.3,0.2,2.5,0.5,3.6s0.9,1.6,1.6,1.6
			c0.8,0,1.4-0.5,1.7-1.3c0.4-0.9,0.6-1.4,0.6-1.4l3.2,1.2c-0.4,1.4-1.1,2.6-2,3.4c-0.9,0.8-2.1,1.2-3.6,1.2
			C-19507.4,340.5-19509,339.7-19510,338.1z M-19503.4,329.8c0-1.2-0.2-2.1-0.5-2.8s-0.8-1.1-1.5-1.1c-0.3,0-0.7,0.2-1,0.5
			c-0.3,0.3-0.6,0.8-0.8,1.4c-0.2,0.6-0.3,1.3-0.3,2H-19503.4z"/>
		<path class="st13" d="M-19495.6,339.4c-1-0.8-1.7-1.8-2-3.1l3.3-1.1c0.1,0.4,0.2,0.7,0.4,1c0.5,0.7,1.1,1,2,1c0.5,0,1-0.1,1.4-0.3
			c0.5-0.2,0.7-0.6,0.7-1c0-0.6-0.4-1.1-1.3-1.4l-3.5-1.4c-0.9-0.4-1.7-1-2.2-1.8c-0.5-0.8-0.8-1.8-0.8-2.9c0-1.1,0.3-2,0.8-2.8
			c0.5-0.8,1.2-1.4,2.1-1.8c0.9-0.4,1.8-0.6,2.8-0.6c1.3,0,2.4,0.4,3.5,1.1c1.1,0.7,1.8,1.7,2.1,3l-3.5,1.1c-0.1-0.3-0.2-0.7-0.4-1
			c-0.4-0.7-1-1-1.7-1c-0.5,0-0.9,0.1-1.3,0.3c-0.4,0.2-0.5,0.6-0.5,1c0,0.5,0.5,1,1.5,1.4l3,1.2c1.1,0.5,1.9,1.1,2.5,1.9
			c0.6,0.8,0.9,1.8,0.9,3.1c0,1.2-0.3,2.1-0.8,3c-0.6,0.8-1.3,1.4-2.2,1.8c-0.9,0.4-1.8,0.6-2.8,0.6
			C-19493.3,340.5-19494.6,340.1-19495.6,339.4z"/>
		<path class="st13" d="M-19475,338.1c-1.1-1.6-1.6-3.7-1.6-6.3c0-2.7,0.5-4.8,1.6-6.4c1.1-1.6,2.7-2.4,4.7-2.4c2,0,3.5,0.8,4.5,2.4
			c1,1.6,1.6,3.7,1.6,6.4c0,0.2,0,0.3-0.1,0.3c-0.1,0.1-0.1,0.1-0.1,0.1h-8c0,1.3,0.2,2.5,0.5,3.6s0.9,1.6,1.6,1.6
			c0.8,0,1.4-0.5,1.7-1.3c0.4-0.9,0.6-1.4,0.6-1.4l3.2,1.2c-0.4,1.4-1.1,2.6-2,3.4c-0.9,0.8-2.1,1.2-3.6,1.2
			C-19472.4,340.5-19474,339.7-19475,338.1z M-19468.4,329.8c0-1.2-0.2-2.1-0.5-2.8s-0.8-1.1-1.5-1.1c-0.3,0-0.7,0.2-1,0.5
			c-0.3,0.3-0.6,0.8-0.8,1.4c-0.2,0.6-0.3,1.3-0.3,2H-19468.4z"/>
		<path class="st13" d="M-19460.9,338.1c-1.1-1.6-1.6-3.7-1.6-6.3c0-2.7,0.5-4.8,1.6-6.4c1.1-1.6,2.6-2.4,4.7-2.4
			c2,0,3.5,0.8,4.5,2.4c1,1.6,1.6,3.7,1.6,6.4c0,0.2,0,0.3-0.1,0.3c-0.1,0.1-0.1,0.1-0.1,0.1h-8c0,1.3,0.2,2.5,0.5,3.6
			c0.3,1.1,0.9,1.6,1.6,1.6c0.8,0,1.4-0.5,1.7-1.3c0.4-0.9,0.6-1.4,0.6-1.4l3.2,1.2c-0.4,1.4-1.1,2.6-2,3.4
			c-0.9,0.8-2.1,1.2-3.6,1.2C-19458.3,340.5-19459.8,339.7-19460.9,338.1z M-19454.2,329.8c0-1.2-0.2-2.1-0.5-2.8s-0.8-1.1-1.5-1.1
			c-0.3,0-0.7,0.2-1,0.5c-0.3,0.3-0.6,0.8-0.8,1.4c-0.2,0.6-0.3,1.3-0.3,2H-19454.2z"/>
		<path class="st13" d="M-19447.6,323.6l4.2-0.4v2.2c0.9-0.8,1.7-1.3,2.5-1.8c0.8-0.4,1.6-0.6,2.3-0.6c1.1,0,1.9,0.4,2.6,1.2
			c0.7,0.8,1,1.8,1,3.1v12.7l-4.2,0.4v-11.4c0-1.5-0.5-2.2-1.5-2.2c-0.3,0-0.7,0.1-1.1,0.3c-0.4,0.2-0.9,0.5-1.6,0.9v12.2l-4.2,0.4
			V323.6z"/>
		<path class="st13" d="M-19424.1,323.6l4.2-0.4v2.2c0.9-0.8,1.7-1.3,2.5-1.8c0.8-0.4,1.6-0.6,2.3-0.6c1.1,0,1.9,0.4,2.6,1.2
			c0.7,0.8,1,1.8,1,3.1v12.7l-4.2,0.4v-11.4c0-1.5-0.5-2.2-1.5-2.2c-0.3,0-0.7,0.1-1.1,0.3c-0.4,0.2-0.9,0.5-1.6,0.9v12.2l-4.2,0.4
			V323.6z"/>
		<path class="st13" d="M-19407.9,340.3v-16.7l4.2-0.4v16.7L-19407.9,340.3z M-19407.9,321.1v-4.4l4.2-0.3v4.5L-19407.9,321.1z"/>
		<path class="st13" d="M-19399.2,338.1c-1.1-1.6-1.6-3.7-1.6-6.3c0-2.7,0.5-4.8,1.6-6.4c1.1-1.6,2.7-2.4,4.7-2.4
			c2,0,3.5,0.8,4.5,2.4c1,1.6,1.6,3.7,1.6,6.4c0,0.2,0,0.3-0.1,0.3c-0.1,0.1-0.1,0.1-0.1,0.1h-8c0,1.3,0.2,2.5,0.5,3.6
			c0.3,1.1,0.9,1.6,1.6,1.6c0.8,0,1.4-0.5,1.7-1.3c0.4-0.9,0.6-1.4,0.6-1.4l3.2,1.2c-0.4,1.4-1.1,2.6-2,3.4
			c-0.9,0.8-2.1,1.2-3.6,1.2C-19396.6,340.5-19398.2,339.7-19399.2,338.1z M-19392.6,329.8c0-1.2-0.2-2.1-0.5-2.8
			c-0.3-0.7-0.8-1.1-1.5-1.1c-0.3,0-0.7,0.2-1,0.5c-0.3,0.3-0.6,0.8-0.8,1.4c-0.2,0.6-0.3,1.3-0.3,2H-19392.6z"/>
		<path class="st13" d="M-19384.9,339.4c-0.7-0.8-1-1.8-1-3.1v-12.7l4.2-0.4v11.3c0,0.8,0.1,1.4,0.4,1.7c0.3,0.4,0.7,0.5,1.2,0.5
			c0.4,0,0.9-0.1,1.3-0.3c0.5-0.2,0.9-0.5,1.3-1v-11.9l4.2-0.4v16.7l-4.2,0.4v-2.2c-0.7,0.8-1.5,1.4-2.3,1.8
			c-0.8,0.4-1.6,0.6-2.4,0.6C-19383.3,340.5-19384.2,340.1-19384.9,339.4z"/>
		<path class="st13" d="M-19367.5,340.1l-3.4-16.6l4.3-0.3l1.4,9.6l2.1-9.2l3.5-0.4l1.8,9.4l1.8-9.1l3.4-0.2l-3.9,16.7h-3.4l-1.9-11
			l-2.4,11H-19367.5z"/>
		<path class="st13" d="M-19340.1,340.1l-4.7-16.5l5-0.4l2.1,10.8l2.4-10.3l3.8-0.4l-4.8,16.7H-19340.1z"/>
		<path class="st13" d="M-19329.5,323.6l4.2-0.4v2.7c0.6-0.9,1.3-1.6,2.2-2.1c0.9-0.5,2-0.8,3.4-0.8v4.1c-0.7,0-1.7,0.1-2.8,0.4
			s-2.1,0.7-2.8,1.3v11.1l-4.2,0.4V323.6z"/>
		<path class="st13" d="M-19317.4,340.3v-16.7l4.2-0.4v16.7L-19317.4,340.3z M-19317.3,321.1v-4.4l4.2-0.3v4.5L-19317.3,321.1z"/>
		<path class="st13" d="M-19308.7,338.1c-1.1-1.6-1.6-3.7-1.6-6.3c0-2.7,0.5-4.8,1.6-6.4c1.1-1.6,2.7-2.4,4.7-2.4
			c2,0,3.5,0.8,4.5,2.4c1,1.6,1.6,3.7,1.6,6.4c0,0.2,0,0.3-0.1,0.3c-0.1,0.1-0.1,0.1-0.1,0.1h-8c0,1.3,0.2,2.5,0.5,3.6
			s0.9,1.6,1.6,1.6c0.8,0,1.4-0.5,1.7-1.3c0.4-0.9,0.6-1.4,0.6-1.4l3.2,1.2c-0.4,1.4-1.1,2.6-2,3.4c-0.9,0.8-2.1,1.2-3.6,1.2
			C-19306.1,340.5-19307.6,339.7-19308.7,338.1z M-19302,329.8c0-1.2-0.2-2.1-0.5-2.8c-0.3-0.7-0.8-1.1-1.5-1.1
			c-0.3,0-0.7,0.2-1,0.5s-0.6,0.8-0.8,1.4c-0.2,0.6-0.3,1.3-0.3,2H-19302z"/>
		<path class="st13" d="M-19295.3,323.6l4.2-0.4v2.2c0.9-0.8,1.7-1.3,2.5-1.8c0.8-0.4,1.6-0.6,2.3-0.6c1.1,0,1.9,0.4,2.6,1.2
			c0.7,0.8,1,1.8,1,3.1v12.7l-4.2,0.4v-11.4c0-1.5-0.5-2.2-1.5-2.2c-0.3,0-0.7,0.1-1.1,0.3c-0.4,0.2-0.9,0.5-1.6,0.9v12.2l-4.2,0.4
			V323.6z"/>
		<path class="st13" d="M-19279.9,331.7c0-3.1,0.4-5.3,1.2-6.6c0.8-1.4,2-2,3.8-2c0.7,0,1.4,0.2,2.1,0.7c0.7,0.5,1.1,1.1,1.4,1.8
			v-7.3l4.2-0.5v22.3l-3.2,0.4l-1.1-2.3c-0.2,0.7-0.6,1.3-1.1,1.8c-0.5,0.5-1.4,0.7-2.5,0.7
			C-19278.3,340.5-19279.9,337.6-19279.9,331.7z M-19272,336.5c0.4-0.7,0.6-1.8,0.6-3.4v-5.6c-0.6-0.9-1.3-1.3-2-1.3
			c-0.7,0-1.1,0.2-1.5,0.7c-0.3,0.5-0.5,1.1-0.6,1.8c-0.1,0.8-0.1,1.8-0.1,3c0,1.3,0,2.3,0.1,3.1c0.1,0.8,0.3,1.5,0.6,1.9
			c0.3,0.5,0.8,0.8,1.4,0.8C-19272.9,337.5-19272.4,337.2-19272,336.5z"/>
		<path class="st13" d="M-19265.8,344.1v-2.5c0.7,0,1.2-0.1,1.6-0.2c0.3-0.1,0.5-0.4,0.6-0.6c0.1-0.3,0.1-0.7,0.1-1.3v-15.8l4.2-0.4
			v16.1c0,1.3-0.1,2.3-0.2,2.9c-0.1,0.6-0.4,1.1-1,1.5s-1.4,0.6-2.6,0.6C-19263.8,344.4-19264.8,344.3-19265.8,344.1z
			 M-19263.5,321.1v-4.4l4.2-0.3v4.5L-19263.5,321.1z"/>
		<path class="st13" d="M-19254.9,338.1c-1.1-1.6-1.6-3.7-1.6-6.3c0-2.7,0.5-4.8,1.6-6.4c1.1-1.6,2.7-2.4,4.7-2.4
			c2,0,3.5,0.8,4.5,2.4c1,1.6,1.6,3.7,1.6,6.4c0,0.2,0,0.3-0.1,0.3c-0.1,0.1-0.1,0.1-0.1,0.1h-8c0,1.3,0.2,2.5,0.5,3.6
			s0.9,1.6,1.6,1.6c0.8,0,1.4-0.5,1.7-1.3c0.4-0.9,0.6-1.4,0.6-1.4l3.2,1.2c-0.4,1.4-1.1,2.6-2,3.4c-0.9,0.8-2.1,1.2-3.6,1.2
			C-19252.3,340.5-19253.8,339.7-19254.9,338.1z M-19248.2,329.8c0-1.2-0.2-2.1-0.5-2.8c-0.3-0.7-0.8-1.1-1.5-1.1
			c-0.3,0-0.7,0.2-1,0.5s-0.6,0.8-0.8,1.4c-0.2,0.6-0.3,1.3-0.3,2H-19248.2z"/>
	</g>
	<text transform="matrix(1 0 0 1 -19429.3145 248.198)" class="st11 st14 st15">?</text>
</g>
</svg>
