<?xml version="1.0" encoding="utf-8"?>
<!-- Generator: Adobe Illustrator 21.0.0, SVG Export Plug-In . SVG Version: 6.00 Build 0)  -->
<svg version="1.1" id="Laag_1" xmlns="http://www.w3.org/2000/svg" xmlns:xlink="http://www.w3.org/1999/xlink" x="0px" y="0px"
	 viewBox="0 0 187.3 90.1" style="enable-background:new 0 0 187.3 90.1;" xml:space="preserve">
<style type="text/css">
	.st0{fill:#FFFFFF;}
	.st1{enable-background:new    ;}
	.st2{fill:#E55042;}
</style>
<g id="Group_202" transform="translate(19584)">
	<path id="Path_86" class="st0" d="M-19494.2,0.1c-15,0.8-69.8-1.3-83.6,23.5c-13.8,24.8-8.8,68.2,60.7,66.5
		c69.5-1.7,102.6-1,115.6-25.2s-2.4-49.9-19.4-55S-19479.2-0.7-19494.2,0.1z"/>
	<g class="st1">
		<path class="st2" d="M-19518.1,55.7c-1.2-1-2.2-2.4-2.7-4.1l3.7-1.7l0.4,0.6c0.6,1,1.1,1.8,1.7,2.3c0.5,0.6,1.2,0.8,2,0.8
			c0.5,0,1-0.2,1.4-0.8c0.4-0.5,0.6-1,0.6-1.6c0-0.6-0.1-1.1-0.4-1.5s-0.6-0.8-1.1-1.1l-3.9-2.3c-1.1-0.6-2.1-1.4-2.7-2.4
			c-0.7-1-1-2.1-1-3.3c0-1.3,0.3-2.5,0.9-3.5c0.6-1,1.4-1.8,2.5-2.4c1-0.6,2.2-0.8,3.6-0.8c1.5,0,2.8,0.4,3.9,1.1
			c1.1,0.8,1.9,1.9,2.4,3.4l-3.7,1.7c-0.1-0.2-0.2-0.5-0.5-1.1c-0.3-0.6-0.6-1-0.9-1.2s-0.8-0.4-1.4-0.4c-0.7,0-1.2,0.2-1.5,0.6
			c-0.3,0.4-0.5,1-0.5,1.6c0,0.5,0.1,0.9,0.4,1.3c0.3,0.4,0.6,0.7,1,0.9l3.6,2.1c2.7,1.5,4.1,3.5,4.2,6c0,1.4-0.3,2.7-0.9,3.8
			c-0.6,1.1-1.5,1.9-2.6,2.5c-1.1,0.6-2.3,0.9-3.6,0.9C-19515.3,57.2-19516.9,56.7-19518.1,55.7z"/>
		<path class="st2" d="M-19500.5,56.9V37.8h-4.6l0.3-3.5h13.2l-0.4,3.5h-4.2v18.8L-19500.5,56.9z"/>
		<path class="st2" d="M-19488.4,53.9c-1-2.2-1.5-5-1.5-8.5c0-3.7,0.6-6.5,1.7-8.5s2.9-3,5.3-3c4.7,0,7,3.8,7,11.4
			c0,3.4-0.5,6.3-1.6,8.5c-1,2.3-2.9,3.4-5.5,3.4C-19485.6,57.2-19487.4,56.1-19488.4,53.9z M-19480.9,51.6c0.3-1.4,0.5-3.5,0.5-6.3
			c0-2.3-0.2-4.1-0.5-5.6c-0.3-1.5-1-2.2-2.1-2.2s-1.8,0.7-2.1,2.2c-0.3,1.5-0.5,3.4-0.5,5.6c0,2.8,0.2,5,0.5,6.3
			c0.3,1.4,1,2.1,2.1,2.1S-19481.3,53-19480.9,51.6z"/>
		<path class="st2" d="M-19472.7,34.3h2.8c2.3,0,4.1,0.1,5.4,0.3s2.5,0.8,3.6,1.8c1,1,1.5,2.5,1.5,4.7c0,2-0.4,3.4-1.3,4.5
			c-0.9,1-1.9,1.7-3.2,2c-1.3,0.3-2.7,0.5-4.4,0.5v8.7l-4.4,0.4V34.3z M-19467.5,44.3c1.2,0,2.1-0.2,2.7-0.7c0.7-0.5,1-1.4,1-2.6
			c0-1.3-0.3-2.1-0.9-2.5c-0.6-0.4-1.6-0.7-2.9-0.7h-0.6v6.6H-19467.5z"/>
	</g>
</g>
</svg>
