<?xml version="1.0" encoding="utf-8"?>
<!-- Generator: Adobe Illustrator 21.0.0, SVG Export Plug-In . SVG Version: 6.00 Build 0)  -->
<svg version="1.1" id="Layer_1" xmlns="http://www.w3.org/2000/svg" xmlns:xlink="http://www.w3.org/1999/xlink" x="0px" y="0px"
	 viewBox="0 0 512 512" style="enable-background:new 0 0 512 512;" xml:space="preserve">
<style type="text/css">
	.st0{fill:#9DBF8C;}
	.st1{opacity:0.58;fill:#7D966E;enable-background:new    ;}
	.st2{fill:#7D966E;}
	.st3{fill:#BD9C71;}
	.st4{opacity:0.32;fill:#775F45;enable-background:new    ;}
	.st5{fill:#FFFFFF;}
	.st6{fill:#775F45;}
</style>
<path class="st0" d="M368.1,407c26,0,47,21,47,47v58H94.9v-58c0-26,21-47,47-47L368.1,407L368.1,407z"/>
<path class="st1" d="M368.1,407H317c26,0,47,21,47,47v58h51.1v-58C415.1,428.1,394,407,368.1,407z"/>
<path class="st0" d="M316.6,359c29.8,10.9,49.4,29.4,49.4,50.5C366,443,255,470.2,255,470.2S143.9,443,143.9,409.5
	c0-21.1,19.7-39.7,49.6-50.6L316.6,359z"/>
<g>
	<path class="st2" d="M280.5,373.3c23.5,5.4,40,18.1,40,33C320.4,426,255,442,255,442s-65.5-16-65.5-35.8
		c0-14.7,16.3-27.4,39.6-32.9L280.5,373.3z"/>
	<path class="st2" d="M295.6,487c-4.3,0-7.8-3.5-7.8-7.8v-20.7c0-4.3,3.5-7.8,7.8-7.8s7.8,3.5,7.8,7.8v20.7
		C303.5,483.5,300,487,295.6,487z"/>
	<path class="st2" d="M212.4,487c-4.3,0-7.8-3.5-7.8-7.8v-20.7c0-4.3,3.5-7.8,7.8-7.8s7.8,3.5,7.8,7.8v20.7
		C220.3,483.5,216.7,487,212.4,487z"/>
</g>
<path class="st3" d="M232.2,358.5v77.3c14.3,5.2,27.3,8.4,27.3,8.4s13.1-3.2,27.6-8.5v-77.2L232.2,358.5L232.2,358.5z"/>
<rect x="232" y="348.7" class="st4" width="55.1" height="48.8"/>
<path class="st3" d="M389.2,252.6c23.3,0,42.1-18.9,42.1-42.1s-18.9-42.1-42.1-42.1H122.8c-23.3,0-42.1,18.9-42.1,42.1
	s18.9,42.1,42.1,42.1H389.2z"/>
<path class="st3" d="M384,111.4l-1.3,137.6c-0.7,68.8-57.5,124.5-126.3,123.9l-5.3-0.1c-33.7-0.3-64.2-14.1-86.6-36.2
	c0,0-24.9-22.8-30.7-48.9c-3-13.4-6.7-26.8-6.6-41.2l1.3-137.6L384,111.4z"/>
<path class="st5" d="M292,262.3c0,19.9-16.1,36.1-36.1,36.1s-36.1-16.1-36.1-36.1H292z"/>
<g>
	<path class="st6" d="M209.1,204.9c-4.3,0-7.8-3.5-7.8-7.8v-19.6c0-4.3,3.5-7.8,7.8-7.8s7.8,3.5,7.8,7.8V197
		C217,201.4,213.5,204.9,209.1,204.9z"/>
	<path class="st6" d="M300.8,204.9c-4.3,0-7.8-3.5-7.8-7.8v-19.6c0-4.3,3.5-7.8,7.8-7.8s7.8,3.5,7.8,7.8V197
		C308.7,201.4,305.2,204.9,300.8,204.9z"/>
</g>
<g>
	<path class="st6" d="M263.7,218.4h-18c-2.3,0-4.5-1-6-2.8s-2.1-4.1-1.7-6.4l6.8-38c0.8-4.3,4.8-7.1,9.1-6.3
		c4.3,0.8,7.1,4.8,6.3,9.1l-5.2,28.8h8.7c4.3,0,7.8,3.5,7.8,7.8S268,218.4,263.7,218.4z"/>
	<path class="st4" d="M357,112.3l-1,111.1c-0.7,68.8-57.5,124.5-126.3,123.9l-5.3-0.1c-27.7-0.3-53.2-9.6-73.8-25.2
		c7.3,9.6,14,15.7,14,15.7c22.3,22.1,52.9,35.8,86.6,36.2l5.3,0.1c68.8,0.7,125.7-55.1,126.3-123.9l1.3-137.6L357,112.3z"/>
</g>
<path class="st0" d="M312.5,0H198.9c-40.7,0-73.7,33-73.7,73.7l0,0h261l0,0C386.2,33,353.2,0,312.5,0z"/>
<g>
	<path class="st2" d="M198.9,1.6c-13.5,0-26.2,3.7-37.1,10v63.7h47.4V1.6H198.9z"/>
	<path class="st2" d="M386.2,75.2c0-26.3-13.8-49.4-34.6-62.5v62.5H386.2L386.2,75.2z"/>
	<rect x="256.7" y="1.6" class="st2" width="47.4" height="73.7"/>
	<rect x="108.8" y="73.7" class="st2" width="293.8" height="46.2"/>
</g>
</svg>
