<?xml version="1.0" encoding="utf-8"?>
<!-- Generator: Adobe Illustrator 21.0.0, SVG Export Plug-In . SVG Version: 6.00 Build 0)  -->
<svg version="1.1" id="Layer_1" xmlns="http://www.w3.org/2000/svg" xmlns:xlink="http://www.w3.org/1999/xlink" x="0px" y="0px"
	 viewBox="0 0 512 512" style="enable-background:new 0 0 512 512;" xml:space="preserve">
<style type="text/css">
	.st0{fill:#775F45;}
	.st1{fill:#B1DEE0;}
	.st2{opacity:0.25;fill:#5D5D5D;enable-background:new    ;}
	.st3{fill:#BD9C71;}
	.st4{opacity:0.27;}
	.st5{opacity:0.21;fill:#775F45;enable-background:new    ;}
	.st6{opacity:0.32;fill:#775F45;enable-background:new    ;}
</style>
<path class="st0" d="M387.6,430.9c47.2-7.4,61.2-35.4,61.2-35.4c-31-32.4-33.2-55.2-33.9-75.9c-1.4-40.3,0-142.3,0-142.3l-0.7-18.8
	C414.1,71,343.2,0,255.6,0c-34.9,0-66.4,12.5-93.4,30.5c-38.3,25.4-45.7,52.1-45.7,52.1c-12.3,22.5-19.3,48.4-19.3,75.9
	c0,0,1.4,120.8,0,161.1c-0.7,20.8-2.9,43.5-33.9,75.9c0,0,14,28,61.2,35.4H387.6L387.6,430.9z"/>
<path class="st1" d="M287.8,389.1c67.7,0,122.6,54.9,122.6,122.6v0.2H94.2v-0.2c0-67.7,54.9-122.6,122.6-122.6H287.8z"/>
<path class="st2" d="M287.8,389.1h-56.6c67.7,0,122.6,54.9,122.6,122.6v0.2h56.6v-0.2C410.4,444,355.5,389.1,287.8,389.1z"/>
<path class="st3" d="M279.6,352.8v63.4c0,14.9-12.1,27.1-27.1,27.1l0,0c-14.9,0-27.1-12.1-27.1-27.1v-63.4H279.6z"/>
<g class="st4">
	<path d="M147.1,411.5l-0.4-0.4c-31.8,22.2-52.6,59-52.6,100.7v0.2h72v-0.3C166.2,438.9,147.1,411.5,147.1,411.5z"/>
	<path d="M358.1,411.3l-0.3,0.2c0,0-19.1,27.4-19.1,100.2l0,0.3h71.6v-0.2C410.5,470.2,389.8,433.4,358.1,411.3z"/>
</g>
<rect x="225.3" y="368.8" class="st5" width="54.3" height="15.4"/>
<path class="st3" d="M171.7,346.5c21.1,17.7,48.5,28,78.1,28h5.2c68,0,123.6-55.6,123.6-123.6v-74.8c0-17-1.6-34.1-9.8-48
	c-26.2-44.5-75.2-39-93.7-23.5c-70.3,59.2-149,71.5-149,71.5v74.8c0,18.4,3.2,36.3,11.4,51.6C146.6,319.6,157.1,334.3,171.7,346.5z"
	/>
<g>
	<path class="st6" d="M368.9,128.2c-9.3-15.8-21.5-25.3-34.2-30.3c4.9,12.3,6,26.4,6,40.3v74.8c0,68-55.6,123.6-123.6,123.6h-5.2
		c-23.8,0-46.3-6.7-65.2-18.6c7,10.7,15.1,20.2,25.1,28.6c21.1,17.7,48.5,28,78.1,28h5.2c68,0,123.6-55.6,123.6-123.6v-74.8
		C378.6,159.2,377,142,368.9,128.2z"/>
	<path class="st0" d="M207,234.5c-4.3,0-7.9-3.5-7.9-7.9v-19.4c0-4.3,3.5-7.9,7.9-7.9c4.3,0,7.9,3.5,7.9,7.9v19.4
		C214.9,231,211.4,234.5,207,234.5z"/>
	<path class="st0" d="M297.6,234.5c-4.3,0-7.9-3.5-7.9-7.9v-19.4c0-4.3,3.5-7.9,7.9-7.9s7.9,3.5,7.9,7.9v19.4
		C305.5,231,302,234.5,297.6,234.5z"/>
	<path class="st0" d="M251.1,313.6c-20,0-40-7.6-55.2-22.8c-3.1-3.1-3.1-8,0-11.1c3.1-3.1,8-3.1,11.1,0c24.3,24.3,63.9,24.3,88.2,0
		c3.1-3.1,8-3.1,11.1,0c3.1,3.1,3.1,8,0,11.1C291.1,306,271.1,313.6,251.1,313.6z"/>
	<path class="st0" d="M259.5,266.9h-18.9c-2.4,0-4.6-1.1-6.1-2.9c-1.5-1.9-2.1-4.3-1.6-6.6l5.4-24.9c0.9-4.2,5.1-6.9,9.3-6
		c4.2,0.9,6.9,5.1,6,9.3l-3.4,15.4h9.1c4.3,0,7.9,3.5,7.9,7.9C267.4,263.4,263.9,266.9,259.5,266.9z"/>
	<path class="st0" d="M229.6,193.2c-2,0-4-0.8-5.6-2.3c-9.4-9.4-24.6-9.4-33.9,0c-3.1,3.1-8,3.1-11.1,0c-3.1-3.1-3.1-8,0-11.1
		c15.5-15.5,40.7-15.5,56.1,0c3.1,3.1,3.1,8,0,11.1C233.6,192.5,231.6,193.2,229.6,193.2z"/>
	<path class="st0" d="M321.7,193.2c-2,0-4-0.8-5.6-2.3c-9.4-9.4-24.6-9.4-33.9,0c-3.1,3.1-8,3.1-11.1,0c-3.1-3.1-3.1-8,0-11.1
		c15.5-15.5,40.7-15.5,56.1,0c3.1,3.1,3.1,8,0,11.1C325.7,192.5,323.7,193.2,321.7,193.2z"/>
</g>
</svg>
