<?xml version="1.0" encoding="utf-8"?>
<!-- Generator: Adobe Illustrator 21.0.0, SVG Export Plug-In . SVG Version: 6.00 Build 0)  -->
<svg version="1.1" id="Laag_1" xmlns="http://www.w3.org/2000/svg" xmlns:xlink="http://www.w3.org/1999/xlink" x="0px" y="0px"
	 viewBox="0 0 389 128.5" style="enable-background:new 0 0 389 128.5;" xml:space="preserve">
<style type="text/css">
	.st0{fill:#FFFFFF;}
	.st1{enable-background:new    ;}
	.st2{fill:#E55042;}
</style>
<g id="Group_190" transform="translate(19584 -586)">
	<g id="Group_189" transform="translate(-57.817 116.534)">
		<path id="Path_21" class="st0" d="M-19512.7,505.5c12.4-1.4,123.5,4.6,167.2,1c43.6-3.6,95.1,1.5,109.9,2.6
			c14.8,1.1,77-2.8,84-0.9c7,1.9,10.6,14.4,11.3,22c0.7,7.6-0.4,20.2-3.4,24.7c-3,4.6-41.6,9.8-64.8,8.6
			c-23.2-1.3-73.4-0.8-92.9-0.2c-19.5,0.6-24.8-2.1-60.2-1.7s-75.3-3.4-94.7-1.6c-19.4,1.8-44.5,1.4-53.8-0.3s-15.5-16.3-13.7-21.7
			C-19522,532.6-19525.1,506.9-19512.7,505.5z"/>
	</g>
	<g class="st1">
		<path class="st2" d="M-19538.7,662l-4.6-22.3l4.8-0.2l2.4,13.5l2.5-13.3l3.6-0.2l2.4,13.6l2.8-13.4l4.1-0.2l-4.8,22.5h-4.3
			l-2.4-13.7l-2.4,13.7H-19538.7z"/>
		<path class="st2" d="M-19517.8,661.7c-0.6-0.5-1-1.1-1.3-1.8c-0.3-0.8-0.5-1.6-0.5-2.6c0-2.2,0.7-3.7,2.2-4.6
			c1.5-0.9,3.2-1.4,5.2-1.5c0-1.1-0.1-1.9-0.2-2.4c-0.1-0.5-0.5-0.8-1-0.8c-0.5,0-0.8,0.2-1.1,0.5c-0.2,0.4-0.4,0.8-0.4,1.4
			l-4.1-0.7c0.2-1.5,0.8-2.6,1.9-3.3c1.1-0.7,2.3-1,3.7-1c1.8,0,3.2,0.5,4.1,1.4c0.9,1,1.4,2.2,1.4,3.8v8.7c0,0.9,0.2,1.9,0.5,3
			l-4.1,0.4l-0.5-2.1c-0.4,0.6-0.9,1.2-1.6,1.6c-0.7,0.4-1.4,0.7-2.2,0.7C-19516.5,662.3-19517.2,662.1-19517.8,661.7z
			 M-19513,659.1c0.2-0.2,0.5-0.4,0.9-0.8v-4.7c-1,0-1.8,0.3-2.4,0.8c-0.6,0.5-0.9,1.4-0.9,2.5c0,0.8,0.1,1.3,0.4,1.8
			s0.7,0.6,1.2,0.6C-19513.5,659.3-19513.3,659.3-19513,659.1z"/>
		<path class="st2" d="M-19502.1,661.3c-0.9-0.7-1.4-1.9-1.4-3.7v-9.3h-2.3l0.2-3.2h2.3l0.4-3.7l3.7-0.5v4.2h3.5l-0.2,3.2h-3.3v9.3
			c0,0.6,0.2,1,0.5,1.3c0.3,0.3,0.7,0.4,1.3,0.4c0.3,0,0.9-0.1,1.6-0.2v2.9c-0.1,0-0.4,0.1-0.9,0.2c-0.6,0.1-1.2,0.2-1.8,0.2
			C-19500.1,662.3-19501.2,661.9-19502.1,661.3z"/>
		<path class="st2" d="M-19484.2,662l-3.5-16.6l4.3-0.3l1.4,9.6l2.1-9.2l3.5-0.4l1.8,9.4l1.8-9.1l3.4-0.2l-3.9,16.7h-3.4l-1.9-11
			l-2.4,11H-19484.2z"/>
		<path class="st2" d="M-19467.1,662.1v-16.7l4.2-0.4v16.7L-19467.1,662.1z M-19467,642.9v-4.4l4.2-0.3v4.5L-19467,642.9z"/>
		<path class="st2" d="M-19459.2,662.1V640l4.2-0.5v22.3L-19459.2,662.1z"/>
		<path class="st2" d="M-19446.2,665.9v-2.5c0.7,0,1.2-0.1,1.6-0.2c0.3-0.1,0.5-0.4,0.6-0.6s0.1-0.7,0.1-1.3v-15.8l4.2-0.4v16.1
			c0,1.3-0.1,2.3-0.2,2.9c-0.1,0.6-0.4,1.1-1,1.5c-0.5,0.4-1.4,0.6-2.6,0.6C-19444.2,666.2-19445.1,666.1-19446.2,665.9z
			 M-19443.8,642.9v-4.4l4.2-0.3v4.5L-19443.8,642.9z"/>
		<path class="st2" d="M-19435.2,660c-1.1-1.6-1.6-3.7-1.6-6.3c0-2.7,0.5-4.8,1.6-6.4c1.1-1.6,2.6-2.4,4.7-2.4c2,0,3.5,0.8,4.5,2.4
			c1,1.6,1.6,3.7,1.6,6.4c0,0.2,0,0.3-0.1,0.3c-0.1,0.1-0.1,0.1-0.1,0.1h-8c0,1.3,0.2,2.5,0.5,3.6s0.9,1.6,1.6,1.6
			c0.8,0,1.4-0.5,1.7-1.3c0.4-0.9,0.6-1.4,0.6-1.4l3.2,1.2c-0.4,1.4-1.1,2.6-2,3.4c-0.9,0.8-2.1,1.2-3.6,1.2
			C-19432.7,662.3-19434.2,661.6-19435.2,660z M-19428.6,651.7c0-1.2-0.2-2.1-0.5-2.8s-0.8-1.1-1.5-1.1c-0.3,0-0.7,0.2-1,0.5
			c-0.3,0.3-0.6,0.8-0.8,1.4c-0.2,0.6-0.3,1.3-0.3,2H-19428.6z"/>
		<path class="st2" d="M-19414.6,645.4l4.2-0.4v2.2c0.9-0.8,1.7-1.3,2.5-1.8c0.8-0.4,1.6-0.6,2.3-0.6c1.1,0,1.9,0.4,2.6,1.2
			c0.7,0.8,1,1.8,1,3.1v12.7l-4.2,0.4v-11.4c0-1.5-0.5-2.2-1.5-2.2c-0.3,0-0.7,0.1-1.1,0.3c-0.4,0.2-0.9,0.5-1.6,0.9v12.2l-4.2,0.4
			V645.4z"/>
		<path class="st2" d="M-19397.5,661.2c-0.7-0.8-1.1-1.8-1.1-3.1v-12.7l4.2-0.4v11.3c0,0.8,0.1,1.4,0.4,1.7c0.3,0.4,0.7,0.5,1.2,0.5
			c0.4,0,0.9-0.1,1.3-0.3c0.5-0.2,0.9-0.5,1.3-1v-11.9l4.2-0.4v16.7l-4.2,0.4V660c-0.7,0.8-1.5,1.4-2.3,1.8
			c-0.8,0.4-1.6,0.6-2.4,0.6C-19395.9,662.3-19396.8,662-19397.5,661.2z"/>
		<path class="st2" d="M-19374.4,666.3c-1.2-0.6-1.9-1.5-1.9-2.6c0-0.8,0.3-1.4,0.8-1.9c0.6-0.5,1.3-1,2.1-1.3
			c-0.8-0.2-1.3-0.5-1.7-0.8c-0.4-0.3-0.6-0.8-0.6-1.5c0-0.8,0.3-1.5,0.8-2.1c0.5-0.6,1.2-1.2,2.1-1.6c-1.8-1-2.7-2.5-2.7-4.3
			c0-1.1,0.3-2.1,0.9-2.9s1.4-1.4,2.4-1.8c1-0.4,2-0.6,3-0.6c1.6,0,3,0.4,4.2,1.3c0.6-0.5,1.2-1,1.8-1.4c0.6-0.4,1.4-0.5,2.3-0.5
			v2.8c-1.2,0-2.1,0.1-2.7,0.4c0.2,0.6,0.4,1.1,0.5,1.5c0.1,0.4,0.1,0.8,0.1,1.2c0,1.4-0.5,2.5-1.4,3.6c-0.9,1-2.4,1.5-4.5,1.5
			l-1.1,0c-0.2,0-0.4,0-0.7,0c-0.3,0.1-0.5,0.3-0.8,0.5c-0.2,0.3-0.4,0.6-0.4,0.9c0,0.3,0.1,0.5,0.3,0.7c0.2,0.2,0.5,0.3,0.8,0.4
			l4.8,0.5c2.8,0.3,4.2,1.7,4.2,4c0,1.9-0.7,3.2-2.1,3.9c-1.4,0.8-3.3,1.1-5.6,1.1C-19371.4,667.2-19373.2,666.9-19374.4,666.3z
			 M-19365.6,662.3c0-0.3-0.1-0.6-0.3-0.8s-0.5-0.3-0.9-0.3c-0.4-0.1-1-0.1-1.9-0.2l-2.5-0.2c-0.4,0.1-0.7,0.3-0.9,0.6
			c-0.3,0.3-0.4,0.7-0.4,1c0,0.5,0.3,1,0.9,1.2s1.4,0.4,2.6,0.4C-19366.7,664.1-19365.6,663.5-19365.6,662.3z M-19367.6,652
			c0.3-0.5,0.5-1.1,0.5-2c0-0.9-0.2-1.5-0.5-2c-0.4-0.4-0.8-0.7-1.4-0.7c-0.6,0-1.1,0.2-1.5,0.8c-0.4,0.5-0.5,1.1-0.5,1.9
			c0,0.7,0.2,1.3,0.4,1.9c0.3,0.6,0.8,0.9,1.5,0.9C-19368.5,652.7-19368,652.5-19367.6,652z"/>
		<path class="st2" d="M-19358.2,661.7c-0.6-0.5-1-1.1-1.3-1.8c-0.3-0.8-0.5-1.6-0.5-2.6c0-2.2,0.7-3.7,2.2-4.6
			c1.5-0.9,3.2-1.4,5.2-1.5c0-1.1-0.1-1.9-0.2-2.4c-0.1-0.5-0.5-0.8-1-0.8c-0.5,0-0.8,0.2-1,0.5c-0.2,0.4-0.4,0.8-0.5,1.4l-4.1-0.7
			c0.2-1.5,0.8-2.6,1.9-3.3c1.1-0.7,2.3-1,3.7-1c1.8,0,3.2,0.5,4.1,1.4s1.4,2.2,1.4,3.8v8.7c0,0.9,0.2,1.9,0.4,3l-4.1,0.4l-0.5-2.1
			c-0.4,0.6-0.9,1.2-1.6,1.6c-0.7,0.4-1.4,0.7-2.2,0.7C-19356.9,662.3-19357.6,662.1-19358.2,661.7z M-19353.4,659.1
			c0.2-0.2,0.5-0.4,0.9-0.8v-4.7c-1,0-1.8,0.3-2.4,0.8c-0.6,0.5-0.9,1.4-0.9,2.5c0,0.8,0.1,1.3,0.4,1.8c0.3,0.4,0.7,0.6,1.2,0.6
			C-19353.9,659.3-19353.6,659.3-19353.4,659.1z"/>
		<path class="st2" d="M-19344,661.7c-0.6-0.5-1-1.1-1.3-1.8c-0.3-0.8-0.5-1.6-0.5-2.6c0-2.2,0.7-3.7,2.2-4.6
			c1.5-0.9,3.2-1.4,5.2-1.5c0-1.1-0.1-1.9-0.2-2.4c-0.1-0.5-0.5-0.8-1-0.8c-0.5,0-0.8,0.2-1.1,0.5c-0.2,0.4-0.4,0.8-0.4,1.4
			l-4.1-0.7c0.2-1.5,0.8-2.6,1.9-3.3c1.1-0.7,2.3-1,3.7-1c1.8,0,3.2,0.5,4.1,1.4s1.4,2.2,1.4,3.8v8.7c0,0.9,0.2,1.9,0.5,3l-4.1,0.4
			l-0.5-2.1c-0.4,0.6-0.9,1.2-1.6,1.6c-0.7,0.4-1.4,0.7-2.2,0.7C-19342.8,662.3-19343.4,662.1-19344,661.7z M-19339.3,659.1
			c0.2-0.2,0.5-0.4,0.9-0.8v-4.7c-1,0-1.8,0.3-2.4,0.8c-0.6,0.5-0.9,1.4-0.9,2.5c0,0.8,0.1,1.3,0.4,1.8s0.7,0.6,1.2,0.6
			C-19339.8,659.3-19339.5,659.3-19339.3,659.1z"/>
		<path class="st2" d="M-19330.7,645.4l4.2-0.4v2.2c0.9-0.8,1.7-1.3,2.5-1.8c0.8-0.4,1.6-0.6,2.3-0.6c1.1,0,1.9,0.4,2.6,1.2
			c0.7,0.8,1,1.8,1,3.1v12.7l-4.2,0.4v-11.4c0-1.5-0.5-2.2-1.5-2.2c-0.3,0-0.7,0.1-1.1,0.3c-0.4,0.2-0.9,0.5-1.6,0.9v12.2l-4.2,0.4
			V645.4z"/>
		<path class="st2" d="M-19308,653.5c0-3.1,0.4-5.3,1.2-6.6c0.8-1.4,2-2,3.8-2c0.7,0,1.4,0.2,2.1,0.7c0.7,0.5,1.1,1.1,1.4,1.8V640
			l4.2-0.5v22.3l-3.2,0.4l-1-2.3c-0.2,0.7-0.6,1.3-1.1,1.8c-0.5,0.5-1.4,0.7-2.5,0.7C-19306.3,662.3-19308,659.4-19308,653.5z
			 M-19300.1,658.3c0.4-0.7,0.6-1.8,0.6-3.4v-5.6c-0.6-0.9-1.3-1.3-2-1.3c-0.7,0-1.1,0.2-1.5,0.7s-0.5,1.1-0.6,1.8
			c-0.1,0.8-0.1,1.8-0.1,3c0,1.3,0,2.3,0.1,3.1s0.3,1.5,0.6,1.9c0.3,0.5,0.8,0.8,1.4,0.8C-19300.9,659.3-19300.5,659-19300.1,658.3z
			"/>
		<path class="st2" d="M-19290.8,659.9c-1.1-1.6-1.6-3.7-1.6-6.4c0-2.6,0.5-4.7,1.6-6.3c1.1-1.6,2.6-2.4,4.7-2.4
			c2,0,3.6,0.8,4.7,2.4c1.1,1.6,1.7,3.7,1.7,6.3c0,2.6-0.6,4.8-1.7,6.4c-1.1,1.6-2.7,2.4-4.7,2.4S-19289.8,661.5-19290.8,659.9z
			 M-19284.4,657.6c0.3-1.1,0.4-2.5,0.4-4c0-1.6-0.1-3-0.4-4.1c-0.3-1.1-0.8-1.6-1.7-1.6c-0.9,0-1.5,0.5-1.7,1.6
			c-0.2,1-0.4,2.3-0.4,3.8c0,1.8,0.1,3.3,0.4,4.4c0.2,1.1,0.8,1.6,1.7,1.6C-19285.3,659.2-19284.7,658.7-19284.4,657.6z"/>
		<path class="st2" d="M-19276.2,660c-1.1-1.6-1.6-3.7-1.6-6.3c0-2.7,0.5-4.8,1.6-6.4c1.1-1.6,2.7-2.4,4.7-2.4c2,0,3.5,0.8,4.5,2.4
			c1,1.6,1.6,3.7,1.6,6.4c0,0.2,0,0.3-0.1,0.3c-0.1,0.1-0.1,0.1-0.1,0.1h-8c0,1.3,0.2,2.5,0.5,3.6s0.9,1.6,1.6,1.6
			c0.8,0,1.4-0.5,1.7-1.3c0.4-0.9,0.6-1.4,0.6-1.4l3.2,1.2c-0.4,1.4-1.1,2.6-2,3.4c-0.9,0.8-2.1,1.2-3.6,1.2
			C-19273.6,662.3-19275.1,661.6-19276.2,660z M-19269.5,651.7c0-1.2-0.2-2.1-0.5-2.8s-0.8-1.1-1.5-1.1c-0.3,0-0.7,0.2-1,0.5
			s-0.6,0.8-0.8,1.4c-0.2,0.6-0.3,1.3-0.3,2H-19269.5z"/>
		<path class="st2" d="M-19262.8,645.4l4.2-0.4v2.2c0.9-0.8,1.7-1.3,2.5-1.8c0.8-0.4,1.6-0.6,2.3-0.6c1.1,0,1.9,0.4,2.6,1.2
			c0.7,0.8,1,1.8,1,3.1v12.7l-4.2,0.4v-11.4c0-1.5-0.5-2.2-1.5-2.2c-0.3,0-0.7,0.1-1.1,0.3c-0.4,0.2-0.9,0.5-1.6,0.9v12.2l-4.2,0.4
			V645.4z"/>
		<path class="st2" d="M-19245.7,654.9c0-1.1,0.1-2,0.4-2.7s0.6-1.2,1-1.5s0.9-0.7,1.5-1.1c0.5-0.3,1-0.6,1.3-0.9s0.6-0.6,0.8-1.1
			c0.2-0.5,0.3-1.1,0.3-1.8c0-2.1-0.6-3.1-1.7-3.1c-0.6,0-0.9,0.3-1.1,0.8c-0.2,0.5-0.3,1.2-0.4,2.1l-4-0.2c0-1.2,0.3-2.2,0.8-3.2
			c0.5-0.9,1.2-1.6,2-2.1s1.8-0.8,2.9-0.8c1.3,0,2.4,0.3,3.2,0.9c0.9,0.6,1.5,1.5,1.9,2.5c0.4,1,0.6,2.1,0.6,3.2
			c0,1.2-0.1,2.1-0.4,2.8c-0.3,0.7-0.6,1.3-1.1,1.7c-0.4,0.4-1,0.8-1.7,1.3c-0.6,0.4-1.1,0.8-1.5,1.1c-0.4,0.3-0.6,0.7-0.9,1.3
			s-0.4,1.2-0.4,2.1v0.2h-3.5C-19245.7,656-19245.7,655.5-19245.7,654.9z M-19246,662.1v-4.4h4.2v4.2L-19246,662.1z"/>
	</g>
</g>
</svg>
