<?xml version="1.0" encoding="utf-8"?>
<!-- Generator: Adobe Illustrator 21.0.0, SVG Export Plug-In . SVG Version: 6.00 Build 0)  -->
<svg version="1.1" id="Laag_1" xmlns="http://www.w3.org/2000/svg" xmlns:xlink="http://www.w3.org/1999/xlink" x="0px" y="0px"
	 viewBox="0 0 841.9 595.3" style="enable-background:new 0 0 841.9 595.3;" xml:space="preserve">
<style type="text/css">
	.st0{fill:#575756;}
</style>
<path class="st0" d="M572.6,404.4c-20.7,0-40.8-7.9-56-22H497c-9.6,0-16.2-7.2-19.6-21.5c-0.9-3.6-1.6-7.8-2.2-12.3c0,0-0.1,0-0.1,0
	c-6.2,0-12.3-2.2-17.1-6.1l-0.5-0.1c-2.6,0.8-5.2,1.2-7.9,1.2c-12,0-22.2-7.8-25.7-18.8c-8-2.4-14.5-8.5-17.5-16.3
	c-4.9-1.4-9.4-4.3-12.8-8.2l-0.1,0c-1.1,0.1-2.1,0.2-3.2,0.2c-4.1,0-8.1-0.9-11.8-2.7l-2.2,0.1c-3.1,1.5-6.4,2.3-9.8,2.6
	c-0.6,4.8-1.4,9.2-2.3,13c-3.4,13.8-10,20.8-19.5,20.8h-19.5c-15.2,14-35.3,22-56,22c-45.6,0-82.6-37.1-82.6-82.6
	s37.1-82.6,82.6-82.6c20.7,0,40.8,7.9,56,22h19.5c14.7,0,18.5,16.6,19.8,22.1c0.8,3.5,1.5,7.4,2,11.7c3.9,0.3,7.6,1.3,11,3.2
	c3.9-2.1,8.2-3.2,12.8-3.2c7.9,0,15.3,3.5,20.4,9.3c1.1-0.1,2.1-0.2,3.2-0.2c11.5,0,21.4,7.2,25.2,17.5c8.5,2.5,15.3,9.2,18,17.6
	c3.5,1,6.8,2.8,9.6,5.2c2.6-0.8,5.4-1.3,8.2-1.3c0,0,0.1,0,0.1,0c0.6-4.5,1.3-8.7,2.2-12.3c3.4-14.2,10-21.5,19.6-21.5h19.5
	c15.2-14,35.3-22,56-22c45.6,0,82.6,37.1,82.6,82.6S618.2,404.4,572.6,404.4z M550.4,349.3c6.3,5.1,14,7.8,22.2,7.8
	c19.5,0,35.4-15.9,35.4-35.4c0-19.5-15.9-35.4-35.4-35.4c-8.2,0-15.9,2.7-22.2,7.8V349.3z M269.3,238.2c-19.5,0-35.4,15.9-35.4,35.4
	s15.9,35.4,35.4,35.4c8.2,0,15.9-2.7,22.2-7.8V246C285.2,240.9,277.5,238.2,269.3,238.2z"/>
</svg>
