<?xml version="1.0" encoding="utf-8"?>
<!-- Generator: Adobe Illustrator 21.0.0, SVG Export Plug-In . SVG Version: 6.00 Build 0)  -->
<svg version="1.1" id="Laag_1" xmlns="http://www.w3.org/2000/svg" xmlns:xlink="http://www.w3.org/1999/xlink" x="0px" y="0px"
	 viewBox="0 0 595.3 595.3" style="enable-background:new 0 0 595.3 595.3;" xml:space="preserve">
<style type="text/css">
	.st0{fill:#F39200;}
	.st1{fill:#CE7E00;}
</style>
<g>
	<path id="XMLID_179_" class="st0" d="M297.6,41.6c-141.2,0-256,114.9-256,256c0,141.2,114.9,256,256,256c141.2,0,256-114.9,256-256
		C553.7,156.5,438.8,41.6,297.6,41.6z"/>
	<g id="XMLID_70_">
		<path id="XMLID_143_" class="st1" d="M297.6,595.3C133.5,595.3,0,461.8,0,297.6S133.5,0,297.6,0c164.1,0,297.6,133.5,297.6,297.6
			S461.8,595.3,297.6,595.3z M297.6,41.6c-141.2,0-256,114.9-256,256c0,141.2,114.9,256,256,256c141.2,0,256-114.9,256-256
			C553.7,156.5,438.8,41.6,297.6,41.6z"/>
		<path id="XMLID_142_" class="st1" d="M37.3,224.6l-14.7-27c76.8-41.9,174.5-65,275-65c97.2,0,192.4,21.7,267.9,61.2L551.3,221
			c-71.3-37.2-161.3-57.7-253.7-57.7C202.2,163.3,109.7,185.1,37.3,224.6z"/>
		<rect id="XMLID_141_" x="275.2" y="17.7" class="st1" width="30.8" height="560.8"/>
		<path id="XMLID_140_" class="st1" d="M120.1,526.2c-59.9-152.7,21.7-305.7,52.4-363.3c1.1-2.1,2.2-4.1,3.2-5.9
			c5.6-10.7,6.6-20.4,3-29.6c-8.8-22.5-42.2-38.5-54.3-42.8l10.2-29c0.6,0.2,14.2,5.1,29.7,14.5c21.8,13.3,36.3,28.8,43,46.1
			c6.9,17.6,5.3,36.6-4.5,55.2c-1,1.9-2.1,3.9-3.2,6C170.8,231.6,94,375.5,148.7,515L120.1,526.2z"/>
		<path id="XMLID_138_" class="st1" d="M468.9,526.2L440.3,515c54.7-139.5-22-283.4-50.9-337.6c-1.1-2.1-2.2-4.2-3.2-6
			c-9.8-18.5-11.4-37.6-4.5-55.2c6.8-17.3,21.2-32.8,43-46.1c15.4-9.4,29.1-14.3,29.7-14.5l10.2,29l-5.1-14.5l5.1,14.5
			c-12.2,4.3-45.6,20.5-54.3,42.9c-3.6,9.2-2.6,18.9,3.1,29.5c1,1.8,2,3.8,3.2,5.9C447.2,220.5,528.8,373.5,468.9,526.2z"/>
	</g>
</g>
</svg>
