<?xml version="1.0" encoding="utf-8"?>
<!-- Generator: Adobe Illustrator 21.0.0, SVG Export Plug-In . SVG Version: 6.00 Build 0)  -->
<svg version="1.1" id="Layer_1" xmlns="http://www.w3.org/2000/svg" xmlns:xlink="http://www.w3.org/1999/xlink" x="0px" y="0px"
	 viewBox="0 0 1024 512" style="enable-background:new 0 0 1024 512;" xml:space="preserve">
<style type="text/css">
	.st0{fill:#EA7177;}
	.st1{fill:#C94F5B;}
	.st2{fill:#BD9C71;}
	.st3{opacity:0.32;fill:#775F45;enable-background:new    ;}
	.st4{fill:#775F45;}
	.st5{fill:#FFFFFF;}
	.st6{fill:#9DBF8C;}
	.st7{fill:#AAE090;}
	.st8{fill:#F9C3C2;}
	.st9{fill:#4BB8EA;}
	.st10{fill:#3681A3;}
	.st11{opacity:0.44;fill:#DD8E92;enable-background:new    ;}
	.st12{fill:#E8E77B;}
	.st13{fill:#DD8E92;}
	.st14{opacity:0.62;fill:#DD8E92;enable-background:new    ;}
	.st15{fill:#F4A2A3;}
	.st16{fill:#6F3A76;}
	.st17{fill:#8C4A97;}
</style>
<g>
	<path class="st0" d="M430.3,407.2c26.2,0,47.4,21.2,47.4,47.4V512H154.9v-57.4c0-26.2,21.2-47.4,47.4-47.4H430.3z"/>
	<polygon class="st0" points="389,428.6 566.2,371.5 580.9,417 409.8,493.1 	"/>
	<path class="st0" d="M432.4,407.2h-50.6c26.2,0,47.4,21.2,47.4,47.4V512h50.6v-57.4C479.8,428.5,458.5,407.2,432.4,407.2z"/>
	<path class="st0" d="M378.4,358.8c30,11,49.8,29.7,49.8,50.9c0,33.8-111.9,61.2-111.9,61.2s-111.9-27.4-111.9-61.2
		c0-21.3,19.9-40,50-51L378.4,358.8z"/>
	<g>
		<path class="st1" d="M342,373.2c23.7,5.5,40.3,18.3,40.3,33.2c0,19.9-66,36.1-66,36.1s-66-16.1-66-36.1
			c0-14.9,16.4-27.6,39.9-33.1L342,373.2z"/>
	</g>
	<path class="st2" d="M289.1,356.8v77.9c14.5,5.3,27.5,8.5,27.5,8.5s13.2-3.2,27.8-8.6v-77.8L289.1,356.8L289.1,356.8z"/>
	<rect x="288.9" y="346.9" class="st3" width="55.6" height="49.2"/>
	<polygon class="st4" points="462.5,171.4 499.9,251.4 473.9,276 478.6,324.4 423.6,314.4 205.1,314.4 150.1,324.4 154.8,276 
		128.8,251.4 166.2,171.4 314.7,13.2 	"/>
	<path class="st2" d="M186.4,273.7c-19.8,0-35.9-16.1-35.9-35.9s16.1-35.9,35.9-35.9h258c19.8,0,35.9,16.1,35.9,35.9
		s-16.1,35.9-35.9,35.9H186.4z"/>
	<path class="st2" d="M441.3,120.8v127.8c0,68.5-56,124.5-124.5,124.5h-5.3c-68.5,0-124.5-56-124.5-124.5V124L441.3,120.8z"/>
	<path class="st2" d="M409.7,121.4v104.2c0,68.5-56,124.5-124.5,124.5h-5.3c-20.3,0-39.6-4.9-56.6-13.7
		c22.6,22.8,53.8,36.9,88.3,36.9h5.3c68.5,0,124.5-56,124.5-124.5V121L409.7,121.4z"/>
	<path class="st3" d="M326,233.6v12.3c0,6.4-5.2,11.6-11.6,11.6l0,0c-6.4,0-11.6-5.2-11.6-11.6v-12.3H326z"/>
	<polygon class="st4" points="265.3,139 318.4,181.7 335,158.9 389,185 344.7,44.9 	"/>
	<path class="st5" d="M350.2,279.3c1,0,1.8,0.8,1.7,1.9c-1,20-17.4,35.8-37.6,35.8s-36.7-15.9-37.6-35.8c0-1,0.7-1.9,1.7-1.9H350.2z
		"/>
	<path class="st6" d="M361.2,137.5c33.3,1.1,83.4,11.8,101.6,33.9V87c0-17.6-8.1-34.3-22.1-44.8C387.9,2.3,320.6-9.3,259.4,7.3
		c0,0-47.4,11.2-67,35.1S361.2,137.5,361.2,137.5"/>
	<path class="st7" d="M263.1,102.7l3.2-7.7c19.1-46.8-38.1-88.1-76-54.6c-0.7,0.6-1.4,1.2-2,1.8c-14,10.6-22.1,27.3-22.1,44.8v84.4
		c21.8-21.8,47.3-29.6,74.4-32.4l22.2-0.8h93c9.9,0,18.3-8.1,18.2-17.9c-0.1-9.6-8-17.5-17.7-17.5h-93.5"/>
	<path class="st4" d="M263.1,102.7c0-24.2,19.6-43.8,43.8-43.8s43.8,19.6,43.8,43.8H263.1z"/>
	<g>
		<path class="st4" d="M316.5,265.4c-10.8,0-19.5-8.8-19.5-19.5v-12.3c0-4.4,3.5-7.9,7.9-7.9s7.9,3.5,7.9,7.9v12.3
			c0,2,1.7,3.7,3.7,3.7c2,0,3.7-1.7,3.7-3.7v-12.3c0-4.4,3.5-7.9,7.9-7.9s7.9,3.5,7.9,7.9v12.3C336,256.7,327.2,265.4,316.5,265.4z"
			/>
		<path class="st4" d="M276.9,228.2c-4.4,0-7.9-3.5-7.9-7.9c0-6.6-5.4-12-12-12c-6.6,0-12,5.4-12,12c0,4.4-3.5,7.9-7.9,7.9
			s-7.9-3.5-7.9-7.9c0-15.3,12.5-27.8,27.8-27.8s27.8,12.5,27.8,27.8C284.8,224.7,281.3,228.2,276.9,228.2z"/>
		<path class="st4" d="M391.6,228.2c-4.4,0-7.9-3.5-7.9-7.9c0-6.6-5.4-12-12-12s-12,5.4-12,12c0,4.4-3.5,7.9-7.9,7.9
			s-7.9-3.5-7.9-7.9c0-15.3,12.5-27.8,27.8-27.8s27.8,12.5,27.8,27.8C399.5,224.7,396,228.2,391.6,228.2z"/>
	</g>
</g>
<circle class="st8" cx="573" cy="392.6" r="39.7"/>
<path class="st9" d="M825.6,407.2c26.2,0,47.4,21.2,47.4,47.4V512H550.2v-57.4c0-26.2,21.2-47.4,47.4-47.4H825.6z"/>
<path class="st9" d="M773.7,358.8c30,11,49.8,29.7,49.8,50.9c0,33.8-111.9,61.2-111.9,61.2s-111.9-27.4-111.9-61.2
	c0-21.3,19.9-40,50-51L773.7,358.8z"/>
<g>
	<path class="st10" d="M737.2,373.2c23.7,5.5,40.3,18.3,40.3,33.2c0,19.9-66,36.1-66,36.1s-66-16.1-66-36.1
		c0-14.9,16.4-27.6,39.9-33.1L737.2,373.2z"/>
</g>
<path class="st8" d="M684.4,356.8v77.9c14.5,5.3,27.5,8.5,27.5,8.5s13.2-3.2,27.8-8.6v-77.8L684.4,356.8L684.4,356.8z"/>
<rect x="684.1" y="346.9" class="st11" width="55.6" height="49.2"/>
<polygon class="st12" points="857.8,171.4 895.2,251.4 869.2,276 873.9,324.4 818.9,314.4 600.4,314.4 545.4,324.4 550.1,276 
	524,251.4 561.5,171.4 710,13.2 "/>
<path class="st13" d="M581.7,273.7c-19.8,0-35.9-16.1-35.9-35.9s16.1-35.9,35.9-35.9h258c19.8,0,35.9,16.1,35.9,35.9
	s-16.1,35.9-35.9,35.9H581.7z"/>
<path class="st8" d="M836.6,120.8v127.8c0,68.5-56,124.5-124.5,124.5h-5.3c-68.5,0-124.5-56-124.5-124.5V124L836.6,120.8z"/>
<path class="st14" d="M805,121.4v104.2c0,68.5-56,124.5-124.5,124.5h-5.3c-20.3,0-39.6-4.9-56.6-13.7c22.6,22.8,53.8,36.9,88.3,36.9
	h5.3c68.5,0,124.5-56,124.5-124.5V121L805,121.4z"/>
<path class="st15" d="M721.2,233.6v12.3c0,6.4-5.2,11.6-11.6,11.6l0,0c-6.4,0-11.6-5.2-11.6-11.6v-12.3H721.2z"/>
<polygon class="st12" points="660.6,139 713.7,181.7 730.3,158.9 784.3,185 740,44.9 "/>
<path class="st5" d="M745.5,279.3c1,0,1.8,0.8,1.7,1.9c-1,20-17.4,35.8-37.6,35.8S673,301.1,672,281.2c0-1,0.7-1.9,1.7-1.9H745.5z"
	/>
<path class="st16" d="M756.5,137.5c33.3,1.1,83.4,11.8,101.6,33.9V87c0-17.6-8.1-34.3-22.1-44.8C783.2,2.3,715.9-9.3,654.7,7.3
	c0,0-47.4,11.2-67,35.1C568.1,66.4,756.5,137.5,756.5,137.5"/>
<path class="st17" d="M658.4,102.7l3.2-7.7c19.1-46.8-38.1-88.1-76-54.6c-0.7,0.6-1.4,1.2-2,1.8c-14,10.6-22.1,27.3-22.1,44.8v84.4
	c21.8-21.8,47.3-29.6,74.4-32.4l22.2-0.8h93c9.9,0,18.3-8.1,18.2-17.9c-0.1-9.6-8-17.5-17.7-17.5h-93.5"/>
<path class="st12" d="M658.4,102.7c0-24.2,19.6-43.8,43.8-43.8c24.2,0,43.8,19.6,43.8,43.8H658.4z"/>
<g>
	<path class="st13" d="M711.8,265.4c-10.8,0-19.5-8.8-19.5-19.5v-12.3c0-4.4,3.5-7.9,7.9-7.9s7.9,3.5,7.9,7.9v12.3
		c0,2,1.7,3.7,3.7,3.7c2,0,3.7-1.7,3.7-3.7v-12.3c0-4.4,3.5-7.9,7.9-7.9s7.9,3.5,7.9,7.9v12.3C731.3,256.7,722.5,265.4,711.8,265.4z
		"/>
	<path class="st13" d="M672.2,228.2c-4.4,0-7.9-3.5-7.9-7.9c0-6.6-5.4-12-12-12c-6.6,0-12,5.4-12,12c0,4.4-3.5,7.9-7.9,7.9
		s-7.9-3.5-7.9-7.9c0-15.3,12.5-27.8,27.8-27.8s27.8,12.5,27.8,27.8C680.1,224.7,676.5,228.2,672.2,228.2z"/>
	<path class="st13" d="M786.9,228.2c-4.4,0-7.9-3.5-7.9-7.9c0-6.6-5.4-12-12-12c-6.6,0-12,5.4-12,12c0,4.4-3.5,7.9-7.9,7.9
		s-7.9-3.5-7.9-7.9c0-15.3,12.5-27.8,27.8-27.8s27.8,12.5,27.8,27.8C794.8,224.7,791.3,228.2,786.9,228.2z"/>
</g>
<g>
	<path class="st5" d="M274.9,469.2h6.7c3.6,0,6.3,0.7,7.9,2.1c1.7,1.4,2.5,3.3,2.5,5.6c0,1.5-0.3,2.8-0.9,3.9
		c-0.6,1.1-1.4,1.9-2.4,2.4c1.3,0.7,2.3,1.6,3,2.7c0.7,1.1,1.1,2.7,1.1,4.9c0,5.6-4.4,8.4-13.2,8.4h-4.8V469.2z M282,481.4
		c1.5,0,2.7-0.3,3.5-0.8c0.8-0.5,1.1-1.5,1.1-3.1c0-1.4-0.4-2.3-1.3-2.9c-0.9-0.5-2-0.8-3.5-0.8h-1.2v7.5H282z M281.9,494.6
		c1.9,0,3.3-0.5,4.2-1.4c0.9-0.9,1.3-2,1.3-3.1c0-1.7-0.5-2.9-1.4-3.5c-0.9-0.6-2.2-0.9-3.9-0.9h-1.3v8.8H281.9z"/>
	<path class="st5" d="M297,499.2v-30h15.2l-0.5,4.7h-8.9v7.2h6.3l0,5h-6.3v8.4h9.7l-0.5,4.7H297z"/>
	<path class="st5" d="M318.1,497.8c-1.7-1.3-2.9-3.2-3.7-5.4l5-2.3l0.5,0.8c0.8,1.3,1.5,2.4,2.2,3.1c0.7,0.7,1.6,1.1,2.7,1.1
		c0.7,0,1.3-0.3,1.9-1c0.5-0.7,0.8-1.4,0.8-2.2c0-0.7-0.2-1.4-0.6-2c-0.4-0.6-0.9-1.1-1.4-1.5l-5.2-3.1c-1.5-0.9-2.7-1.9-3.6-3.2
		c-0.9-1.3-1.4-2.8-1.4-4.4c0-1.7,0.4-3.3,1.2-4.6c0.8-1.4,1.9-2.4,3.3-3.2c1.4-0.7,3-1.1,4.7-1.1c2.1,0,3.8,0.5,5.2,1.5
		c1.4,1,2.5,2.5,3.2,4.5l-5,2.2c-0.1-0.2-0.3-0.7-0.7-1.4c-0.3-0.7-0.8-1.3-1.3-1.6c-0.5-0.3-1.1-0.5-1.8-0.5c-0.9,0-1.6,0.3-2,0.8
		c-0.5,0.6-0.7,1.3-0.7,2.2c0,0.6,0.2,1.2,0.5,1.7c0.4,0.5,0.8,0.9,1.3,1.2l4.8,2.8c3.6,2,5.5,4.7,5.6,8c0,1.9-0.4,3.6-1.3,5
		s-2,2.6-3.4,3.4c-1.5,0.8-3.1,1.2-4.9,1.2C321.8,499.8,319.7,499.1,318.1,497.8z"/>
	<path class="st5" d="M341.5,499.5v-25.6h-6.1l0.4-4.7h17.6l-0.5,4.7h-5.6V499L341.5,499.5z"/>
</g>
<g>
	<path class="st5" d="M644,499.2V469h15.2l-0.5,4.7h-8.9v7.8h6.3v5h-6.3v12.2L644,499.2z"/>
	<path class="st5" d="M670.5,485.8h-2.3v12.9l-5.8,0.5v-30l7.1-0.2c3.4,0,6.1,0.7,8.1,2.1c1.9,1.4,2.9,3.5,2.9,6.3
		c0,1.9-0.4,3.4-1.1,4.6s-1.8,2.2-3.2,3l2.7,6.5l2.7,6.5l-5.8,1.6L670.5,485.8z M670.2,481.5c1.4,0,2.5-0.3,3.3-0.9
		c0.8-0.6,1.2-1.7,1.2-3.3c0-2.5-1.2-3.7-3.7-3.7h-2.8v7.8H670.2z"/>
	<path class="st5" d="M685,499.2v-29.8l5.9-0.5v29.8L685,499.2z"/>
	<path class="st5" d="M696.5,499v-30h15.2l-0.5,4.7h-8.9v7.2h6.3l0,5h-6.3v8.4h9.7l-0.5,4.7H696.5z"/>
	<path class="st5" d="M729.8,499.2l-8.8-18.8v18.3l-5.2,0.2v-29.8l6.1-0.2l7.8,17.8v-17.4l5-0.5v29.8L729.8,499.2z"/>
	<path class="st5" d="M740.2,469h6.2c3.9,0,6.9,1.3,8.8,3.8c1.9,2.5,2.9,6.3,2.9,11.4c0,2.7-0.4,5.2-1.1,7.4c-0.7,2.2-1.9,4-3.5,5.4
		c-1.6,1.4-3.6,2.1-6.1,2.1h-7.2V469z M746.9,494.3c2,0,3.4-0.9,4.2-2.6c0.8-1.7,1.2-3.9,1.2-6.5v-1.4c0-1.8-0.1-3.5-0.3-4.9
		s-0.7-2.7-1.6-3.7c-0.8-1.1-2-1.6-3.7-1.6h-0.7v20.6H746.9z"/>
	<path class="st5" d="M764.2,497.5c-1.7-1.3-2.9-3.2-3.7-5.4l5-2.3l0.5,0.8c0.8,1.3,1.5,2.4,2.2,3.1c0.7,0.7,1.6,1.1,2.7,1.1
		c0.7,0,1.3-0.3,1.9-1c0.5-0.7,0.8-1.4,0.8-2.2c0-0.7-0.2-1.4-0.6-2c-0.4-0.6-0.9-1.1-1.4-1.5l-5.2-3.1c-1.5-0.9-2.7-1.9-3.6-3.2
		c-0.9-1.3-1.4-2.8-1.4-4.4c0-1.7,0.4-3.3,1.2-4.6c0.8-1.4,1.9-2.4,3.3-3.2c1.4-0.7,3-1.1,4.7-1.1c2.1,0,3.8,0.5,5.2,1.5
		c1.4,1,2.5,2.5,3.2,4.5l-5,2.2c-0.1-0.2-0.3-0.7-0.7-1.4c-0.3-0.7-0.8-1.3-1.3-1.6c-0.5-0.3-1.1-0.5-1.8-0.5c-0.9,0-1.6,0.3-2,0.8
		c-0.5,0.6-0.7,1.3-0.7,2.2c0,0.6,0.2,1.2,0.5,1.7c0.4,0.5,0.8,0.9,1.3,1.2l4.8,2.8c3.6,2,5.5,4.7,5.6,8c0,1.9-0.4,3.6-1.3,5
		c-0.8,1.5-2,2.6-3.4,3.4c-1.5,0.8-3.1,1.2-4.9,1.2C767.9,499.5,765.8,498.9,764.2,497.5z"/>
</g>
</svg>
