<?xml version="1.0" encoding="utf-8"?>
<!-- Generator: Adobe Illustrator 21.0.0, SVG Export Plug-In . SVG Version: 6.00 Build 0)  -->
<svg version="1.1" id="Laag_1" xmlns="http://www.w3.org/2000/svg" xmlns:xlink="http://www.w3.org/1999/xlink" x="0px" y="0px"
	 viewBox="0 0 511.2 595.3" style="enable-background:new 0 0 511.2 595.3;" xml:space="preserve">
<style type="text/css">
	.st0{fill:#A56528;}
	.st1{fill:#B36D2C;}
</style>
<g>
	<path class="st0" d="M280.7,12c11.3,39.2,29.2,75.5,49.8,110.6c16.8,28.8,27.2,58.2,7.3,90.1c-4.5,7.3-4.8,15.3,2,21.4
		c7.1,6.4,14.2,0.3,18.9-3.4c14.8-11.5,28.3-24.6,42.6-36.7c30.7-26,65.9-44,106.6-59.1c-11.1,27.1-24,52.8-14.2,79.6
		c8.9,24.3,5.2,43.4-9.4,64.2c-12.7,18.1-6.6,33.3,18.4,53c10.3,8.1,12.2,12.1,0.1,19.4c-11.4,6.8-21.7,15.4-32.5,23
		c-37.3,26.4-40.1,38.6-16.1,79c-46.1-3.3-88.5,18.5-134.3,11.9c-20.4-2.9-39.7-7.6-57.8-17.4c-9.7-4.3-9.4-13.4-10.7-21.8
		c-10.9-68-1.3-135.8,1.6-203.6c2.3-53.1,12.7-105.6,12.6-158.9C265.5,45.1,266.2,26.2,280.7,12z"/>
	<path class="st1" d="M280.7,12c-5.4,18.6-7.3,37.6-8.6,57c-5.5,79-12.7,157.8-17.8,236.8c-3.1,47.4-1,94.8,7.8,141.7
		c-5.5,36.4,4,72.6,2,109c-0.5,9.3,0.4,18.8,0.7,28.1c0.2,6.1-0.9,10.9-8.7,10.7c-8.2-0.3-8-5.9-7.4-11.5
		c2.6-25.7,5.8-51.3,4.5-77.2c-0.2-3.9,0-7.8-0.3-11.7c-1.1-13.2,1.7-29-4.6-39.1c-9.1-14.4-22.3,2.8-34.3,3
		c-22.1,0.4-43.6-2.1-65-7.1c-20.6-4.8-41.2-8.9-62.5-7.6c-5.4,0.3-12.9,3.4-12.1-7.9c3.7-52.8-30.1-78.2-72.2-98
		c4.4-10.4,15.3-14.6,23.4-21.5c22.1-18.8,24-27.2,10.4-51.8c-1.8-3.3-6.2-6.2-4.3-10.2c18.8-39-7.6-66.7-23.9-96.9
		c-1.9-3.4-3.9-6.7-7.7-13.2c40.4,10.8,76.6,24.8,111.4,42.3c11.8,6,23,13.2,34.4,20.1c34.3,20.9,45.9,15,46.7-24.7
		c0.4-18.6,5.8-35,16.5-50.3c28.3-40.6,50.5-84.2,64.7-132C281.2,1,280.4,6.8,280.7,12z"/>
</g>
</svg>
