<?xml version="1.0" encoding="utf-8"?>
<!-- Generator: Adobe Illustrator 21.0.0, SVG Export Plug-In . SVG Version: 6.00 Build 0)  -->
<svg version="1.1" id="Laag_1" xmlns="http://www.w3.org/2000/svg" xmlns:xlink="http://www.w3.org/1999/xlink" x="0px" y="0px"
	 viewBox="0 0 554.8 595.3" style="enable-background:new 0 0 554.8 595.3;" xml:space="preserve">
<style type="text/css">
	.st0{fill:#F7A817;}
	.st1{fill:#FED481;}
	.st2{opacity:0.1;fill:#020203;}
	.st3{opacity:0.4;fill:#FFFFFF;}
	.st4{opacity:0.2;fill:#020203;}
</style>
<g>
	<g>
		<circle class="st0" cx="225.5" cy="235.9" r="140.7"/>
		<circle class="st1" cx="225.5" cy="235.9" r="107.1"/>
		<g>
			<path class="st2" d="M175,367.2c15.7,6,32.7,9.4,50.5,9.4c48.3,0,90.8-24.3,116.2-61.4c-15.7-6-32.7-9.4-50.5-9.4
				C242.9,305.9,200.3,330.2,175,367.2z"/>
		</g>
		<polygon class="st3" points="138.6,0 154,123.3 277.2,138.6 154,154 138.6,277.3 123.2,154 -0.1,138.6 123.2,123.3 		"/>
		<path class="st2" d="M258.1,276.3c0,32.4,11,62.2,29.4,86c46.6-22.9,78.7-70.9,78.7-126.3c0-32.4-11-62.2-29.4-86
			C290.2,172.9,258.1,220.8,258.1,276.3z"/>
	</g>
	<g>
		<circle class="st0" cx="414" cy="277.3" r="140.7"/>
		<circle class="st1" cx="414" cy="277.3" r="107.1"/>
	</g>
	<path class="st4" d="M274.6,296c9.1,68.9,68.1,122,139.4,122c11.9,0,23.4-1.5,34.3-4.2c-9.1-68.9-68-122-139.4-122
		C297.1,291.7,285.6,293.2,274.6,296z"/>
	<g>
		<circle class="st0" cx="307.9" cy="454.6" r="140.7"/>
		<circle class="st1" cx="307.9" cy="454.6" r="107.1"/>
	</g>
</g>
</svg>
