<?xml version="1.0" encoding="utf-8"?>
<!-- Generator: Adobe Illustrator 21.0.0, SVG Export Plug-In . SVG Version: 6.00 Build 0)  -->
<svg version="1.1" id="Layer_1" xmlns="http://www.w3.org/2000/svg" xmlns:xlink="http://www.w3.org/1999/xlink" x="0px" y="0px"
	 viewBox="0 0 512 512" style="enable-background:new 0 0 512 512;" xml:space="preserve">
<style type="text/css">
	.st0{fill:#F5EA78;}
	.st1{fill:#9DBF8C;}
	.st2{fill:#7D966E;}
	.st3{fill:#F9C3C2;}
	.st4{opacity:0.26;}
	.st5{fill:#BA6A73;}
	.st6{fill:#FFFFFF;}
	.st7{fill:#E0656B;}
	.st8{fill:#775F45;}
</style>
<path class="st0" d="M96,510.7c0.5-15.5,0.6-82.4,0.6-145l-0.2-86.1C96.3,213.1,96,158.5,96,158.5c0-34.2,10.9-65.9,29.3-91.9
	c0,0,20.2-27.7,46.1-43.1C195.8,9,224.1,0,254.5,0c87.5,0,158.5,71,158.5,158.5l0.7,18.8c0,0-1.4,293.1,0,333.4L96,510.7L96,510.7z"
	/>
<path class="st1" d="M289.9,389.1c67.7,0,122.6,54.9,122.6,122.6v0.2H96.2v-0.2c0-67.7,54.9-122.6,122.6-122.6H289.9z"/>
<path class="st2" d="M192.6,392.7v19.6c0,34,27.5,61.5,61.5,61.5s61.5-27.5,61.5-61.5v-20c0,0-12.1-3.8-62.1-3.8
	C199.7,388.4,192.6,392.7,192.6,392.7z"/>
<path class="st3" d="M281.6,360.9v55.2c0,14.9-12.1,27.1-27.1,27.1l0,0c-14.9,0-27.1-12.1-27.1-27.1v-55.2H281.6z"/>
<g>
	<path class="st2" d="M341.3,511.7l14.9,0.3H413v-0.2c0-41.4-20.6-78.1-52-100.3h-0.6C360.4,411.5,341.3,438.9,341.3,511.7z"/>
	<path class="st2" d="M168.2,511.7l-14.9,0.3H96.5v-0.2c0-41.4,20.6-78.1,52-100.3h0.6C149.1,411.5,168.2,438.9,168.2,511.7z"/>
</g>
<path class="st3" d="M278.1,121.1c-13.2-20-21-44-21-69.9h-0.6c0,26-7.9,50.1-21.4,70.1l-27.7,29.4c-21.1,16.2-47.6,25.9-76.3,25.9
	l-2.9-0.4v74.8c0,68,55.6,123.6,123.6,123.6h5.2c68,0,123.6-55.6,123.6-123.6v-74.8l0.1,0.4c-29.5,0-53.9-8.2-75.1-25.7L278.1,121.1
	z"/>
<g class="st4">
	<path class="st5" d="M380.6,176.1v0.4c0,0,0.1,0,0.1,0L380.6,176.1z"/>
	<path class="st5" d="M341.3,170.7V244c0,64.7-47.7,118.8-109.7,128.8c6.6,1.1,13.3,1.7,20.2,1.7h5.2c68,0,123.6-55.6,123.6-123.6
		v-74.4C366.4,176.5,353.4,174.6,341.3,170.7z"/>
</g>
<g>
	<circle class="st6" cx="186.3" cy="220.8" r="52.3"/>
	<circle class="st6" cx="324.6" cy="220.8" r="52.3"/>
</g>
<path class="st7" d="M408.9,121.9H100.4c-2.1,9.1-3.5,18.5-4,28.1H413C412.5,140.4,411.1,131,408.9,121.9z"/>
<path class="st5" d="M255.5,281c-10.8,0-19.6-8.8-19.6-19.6c0-4.3,3.5-7.9,7.9-7.9c4.3,0,7.9,3.5,7.9,7.9c0,2.1,1.7,3.9,3.9,3.9
	c2.1,0,3.9-1.7,3.9-3.9c0-4.3,3.5-7.9,7.9-7.9s7.9,3.5,7.9,7.9C275.1,272.3,266.3,281,255.5,281z"/>
<path class="st6" d="M298.2,296.7c0,23.6-19.1,42.7-42.7,42.7s-42.7-19.1-42.7-42.7L298.2,296.7L298.2,296.7z"/>
<path class="st8" d="M285.2,192.5h-58.3c-4.3,0-7.9-3.5-7.9-7.9s3.5-7.9,7.9-7.9h58.3c4.3,0,7.9,3.5,7.9,7.9
	C293,188.9,289.5,192.5,285.2,192.5z"/>
<g>
	<path class="st5" d="M198.8,238.7c-4.3,0-7.9-3.5-7.9-7.9v-19.4c0-4.3,3.5-7.9,7.9-7.9c4.3,0,7.9,3.5,7.9,7.9v19.4
		C206.7,235.1,203.2,238.7,198.8,238.7z"/>
	<path class="st5" d="M310.2,238.7c-4.3,0-7.9-3.5-7.9-7.9v-19.4c0-4.3,3.5-7.9,7.9-7.9s7.9,3.5,7.9,7.9v19.4
		C318,235.1,314.5,238.7,310.2,238.7z"/>
</g>
<g>
	<path class="st8" d="M186.3,280.9c-33.2,0-60.1-27-60.1-60.1s27-60.1,60.1-60.1c33.2,0,60.1,27,60.1,60.1S219.4,280.9,186.3,280.9z
		 M186.3,176.3c-24.5,0-44.4,19.9-44.4,44.4s19.9,44.4,44.4,44.4s44.4-19.9,44.4-44.4S210.8,176.3,186.3,176.3z"/>
	<path class="st8" d="M324.6,280.9c-33.2,0-60.1-27-60.1-60.1s27-60.1,60.1-60.1s60.1,27,60.1,60.1S357.7,280.9,324.6,280.9z
		 M324.6,176.3c-24.5,0-44.4,19.9-44.4,44.4s19.9,44.4,44.4,44.4s44.4-19.9,44.4-44.4S349.1,176.3,324.6,176.3z"/>
</g>
</svg>
