<?xml version="1.0" encoding="utf-8"?>
<!-- Generator: Adobe Illustrator 21.0.0, SVG Export Plug-In . SVG Version: 6.00 Build 0)  -->
<svg version="1.1" id="Layer_1" xmlns="http://www.w3.org/2000/svg" xmlns:xlink="http://www.w3.org/1999/xlink" x="0px" y="0px"
	 viewBox="0 0 512 512" style="enable-background:new 0 0 512 512;" xml:space="preserve">
<style type="text/css">
	.st0{fill:#E0656B;}
	.st1{fill:#B1DEE0;}
	.st2{opacity:0.29;fill:#80A8A8;enable-background:new    ;}
	.st3{fill:#E5AF6E;}
	.st4{fill:#F9C3C2;}
	.st5{fill:#80A8A8;}
	.st6{fill:#F4A2A3;}
	.st7{opacity:0.37;fill:#F4A2A3;enable-background:new    ;}
	.st8{fill:#DD8E92;}
	.st9{fill:#F5EA78;}
	.st10{fill:#775F45;}
	.st11{fill:#FFFFFF;}
</style>
<path class="st0" d="M401.9,416.4c14.6-49.9-33-65.5-33-65.5H146.2c0,0-47.5,15.2-33.6,64L401.9,416.4z"/>
<path class="st1" d="M314,403h55.5c25.9,0,47,21,47,47V512H96.6v-62.1c0-25.9,21-47,47-47h54.2L314,403L314,403z"/>
<path class="st2" d="M369.5,403H314h-13.5c25.9,0,47,21,47,47V512h69v-62.1C416.5,424,395.5,403,369.5,403z"/>
<circle class="st3" cx="254.8" cy="17.4" r="17.4"/>
<path class="st4" d="M297.5,409.6c0,24.2-19.6,43.9-43.9,43.9s-43.9-19.6-43.9-43.9H297.5L297.5,409.6z"/>
<g>
	<polygon class="st5" points="148.5,424 148.5,402.9 178.9,402.9 178.9,511.8 148.5,511.8 148.5,473.6 	"/>
	<rect x="326.2" y="402.9" class="st5" width="30.4" height="108.9"/>
</g>
<path class="st6" d="M379.1,297.7c23.2,0,42.1-18.8,42.1-42.1s-18.8-42.1-42.1-42.1H132.9c-23.2,0-42.1,18.8-42.1,42.1
	c0,23.2,18.8,42.1,42.1,42.1H379.1z"/>
<path class="st4" d="M134.3,199.6c0-31.2,25.3-56.5,56.5-56.5h131.4c31.2,0,56.5,25.3,56.5,56.5v54.1v42.5
	c0,65.8-53.8,119.7-119.7,119.7H254c-65.8,0-119.7-53.8-119.7-119.7v-10.8L134.3,199.6L134.3,199.6L134.3,199.6z"/>
<path class="st7" d="M338.2,144.9c1.5,5,2.2,10.3,2.2,15.8v54.1v42.5c0,65.8-53.8,119.7-119.7,119.7h-5.1
	c-23.1,0-44.7-6.6-63.1-18.1c21.2,33.9,58.8,56.6,101.5,56.6h5.1c65.8,0,119.7-53.8,119.7-119.7v-42.5v-54.1
	C378.9,173.4,361.8,151.7,338.2,144.9z"/>
<g>
	<path class="st8" d="M210.7,270c-4.3,0-7.8-3.5-7.8-7.8v-19.6c0-4.3,3.5-7.8,7.8-7.8s7.8,3.5,7.8,7.8v19.6
		C218.6,266.5,215.1,270,210.7,270z"/>
	<path class="st8" d="M302.4,270c-4.3,0-7.8-3.5-7.8-7.8v-19.6c0-4.3,3.5-7.8,7.8-7.8s7.8,3.5,7.8,7.8v19.6
		C310.2,266.5,306.7,270,302.4,270z"/>
	<path class="st8" d="M265.2,283.5h-18c-2.3,0-4.5-1-6-2.8c-1.5-1.8-2.1-4.1-1.7-6.4l6.8-38c0.8-4.3,4.8-7.1,9.1-6.3
		c4.3,0.8,7.1,4.8,6.3,9.1l-5.2,28.8h8.7c4.3,0,7.8,3.5,7.8,7.8S269.6,283.5,265.2,283.5z"/>
</g>
<g>
	<path class="st9" d="M295.9,115.6c22.5-22.5,22.5-36.3,0-58.7s-58.9-22.5-81.4,0s-22.5,36.3,0,58.7v1.6h80.9
		C295.4,117.2,295.6,116,295.9,115.6z"/>
	<path class="st9" d="M184.5,125.1c-3.7,0-7-2.7-7.7-6.5l-12.2-69.5c-2.3-13.4,3-26.7,13.8-34.8c10.9-8.1,25.2-9.4,37.3-3.3
		l42.6,21.9c3.9,2,5.4,6.7,3.4,10.6c-2,3.9-6.7,5.4-10.6,3.4L208.6,25c-6.8-3.4-14.6-2.7-20.8,1.9c-6.2,4.6-9.1,11.9-7.8,19.5
		l12.2,69.5c0.7,4.3-2.1,8.3-6.4,9.1C185.4,125,185,125.1,184.5,125.1z"/>
	<path class="st9" d="M323.4,125.1c-0.5,0-0.9,0-1.4-0.1c-4.3-0.7-7.1-4.8-6.4-9.1l12.2-69.5c1.3-7.6-1.6-14.9-7.8-19.5
		c-6.2-4.6-14-5.3-20.9-1.8l-42.5,21.8c-3.9,2-8.6,0.5-10.6-3.4c-2-3.9-0.5-8.6,3.4-10.6l42.5-21.8c12.2-6.1,26.5-4.8,37.4,3.3
		c10.9,8.1,16.2,21.4,13.8,34.8l-12.2,69.5C330.5,122.4,327.2,125.1,323.4,125.1z"/>
</g>
<path class="st3" d="M246.5,41.3v75.9h21.1V40.8C260.7,39.7,253.5,39.8,246.5,41.3z"/>
<g>
	<path class="st10" d="M187.6,143.4c0,0,19.1,49.4,60.4,64.4l0.7-27.4c0,0,34.6,14.6,62.3,15.6l-8.2-53.1L187.6,143.4z"/>
	<path class="st10" d="M245.2,308.7c-0.4,0-0.9,0-1.3-0.1l-47.7-8.2c-4.3-0.7-7.1-4.8-6.4-9.1s4.8-7.1,9.1-6.4l47.7,8.2
		c4.3,0.7,7.1,4.8,6.4,9.1C252.3,306,249,308.7,245.2,308.7z"/>
	<path class="st10" d="M268.5,308.7c-3.7,0-7.1-2.7-7.7-6.5c-0.7-4.3,2.1-8.3,6.4-9.1l47.7-8.2c4.3-0.7,8.3,2.1,9.1,6.4
		c0.7,4.3-2.1,8.3-6.4,9.1l-47.7,8.2C269.4,308.7,268.9,308.7,268.5,308.7z"/>
</g>
<path class="st11" d="M293.5,323.6c0,19.9-16.1,36-36,36s-36-16.1-36-36H293.5z"/>
<rect x="184.5" y="117.2" class="st9" width="139.4" height="26.3"/>
</svg>
