<?xml version="1.0" encoding="utf-8"?>
<!-- Generator: Adobe Illustrator 21.0.0, SVG Export Plug-In . SVG Version: 6.00 Build 0)  -->
<svg version="1.1" id="Laag_1" xmlns="http://www.w3.org/2000/svg" xmlns:xlink="http://www.w3.org/1999/xlink" x="0px" y="0px"
	 viewBox="0 0 595.3 595.3" style="enable-background:new 0 0 595.3 595.3;" xml:space="preserve">
<style type="text/css">
	.st0{fill:#EDEDED;stroke:#000000;stroke-miterlimit:10;}
	.st1{display:none;fill:#FFFFFF;}
	.st2{fill:#DAE3DC;}
</style>
<g>
	<circle class="st0" cx="297.6" cy="300.4" r="277.9"/>
	<g>
		<path id="XMLID_424_" class="st1" d="M297.6,41.6c-141.2,0-256,114.9-256,256s114.9,256,256,256c141.2,0,256-114.9,256-256
			S438.8,41.6,297.6,41.6z"/>
		<g id="XMLID_125_">
			<path id="XMLID_101_" class="st2" d="M297.6,595.3C133.5,595.3,0,461.8,0,297.6C0,133.5,133.5,0,297.6,0
				c164.1,0,297.6,133.5,297.6,297.6C595.3,461.8,461.8,595.3,297.6,595.3z M297.6,41.6c-141.2,0-256,114.9-256,256
				s114.9,256,256,256c141.2,0,256-114.9,256-256S438.8,41.6,297.6,41.6z"/>
			<path id="XMLID_100_" class="st2" d="M202.8,538.1l-30.6-3.3c13-120.3,87.7-216.4,108.7-241.4C255.7,194,121.2,88,119.8,86.9
				l18.9-24.2c6.2,4.8,151.5,119.5,174,232l1.5,7.6L309,308C308.1,309,216.5,411,202.8,538.1z"/>
			<path id="XMLID_99_" class="st2" d="M458.1,360.2c-35.2,0-65.7-6-89.2-13c-49.1-14.6-79-36.2-80.3-37.1l18.1-24.9
				c0.3,0.2,27.8,19.9,72.1,32.9c58.9,17.3,118.1,15.3,176.1-5.9l10.6,28.9C526.8,355.1,490.5,360.2,458.1,360.2z"/>
			<path id="XMLID_98_" class="st2" d="M378.4,339.4c-13.5-106.3-54.9-180.7-87.3-224.5c-35.2-47.5-67.6-70.2-67.9-70.4l17.4-25.4
				c1.5,1,36.2,25.1,74.4,76.2c34.9,46.8,79.6,126.5,94,240.1L378.4,339.4z"/>
			<path id="XMLID_97_" class="st2" d="M502.8,346.2l-30-6.8c30.6-135.8-93.3-287.4-94.5-288.9l23.7-19.6c1.4,1.7,34,41.4,63,99.8
				C503.8,209.1,516.9,283.6,502.8,346.2z"/>
			<path id="XMLID_96_" class="st2" d="M438.2,448.9c-46.6,0-86-9.1-115.2-19.1c-53.4-18.3-84.9-43-86.2-44.1l19.1-24.1
				c0.3,0.2,29.4,23,78.2,39.4c65,21.9,132.2,22.9,200,2.9l8.7,29.5C505.2,444.7,470,448.9,438.2,448.9z"/>
			<path id="XMLID_95_" class="st2" d="M402.4,537c-108.4,0-200.6-58.8-205.2-61.8l16.7-25.8c1.2,0.8,124.6,79.2,245,50.4l7.2,29.9
				C444.6,534.8,423.2,537,402.4,537z"/>
			<path id="XMLID_93_" class="st2" d="M48.8,382.7l-30.2-6c40.8-204.8,148.7-258.7,153.3-260.9l13.3,27.7l-6.7-13.9l6.7,13.8
				c-0.2,0.1-24.9,12.5-53.8,47.9C104.6,224.1,68.5,284,48.8,382.7z"/>
			<path id="XMLID_92_" class="st2" d="M120.7,493.8l-30.7-1.2c4.3-107.2,40.1-183.3,69.3-228.2c32-49.2,63.1-72.8,64.4-73.8
				l18.5,24.6l-9.2-12.3l9.3,12.3c-0.3,0.2-28.8,22.1-57.9,67.2C157.4,323.9,124.7,394.3,120.7,493.8z"/>
		</g>
	</g>
</g>
</svg>
