<?xml version="1.0" encoding="utf-8"?>
<!-- Generator: Adobe Illustrator 21.0.0, SVG Export Plug-In . SVG Version: 6.00 Build 0)  -->
<svg version="1.1" id="Laag_1" xmlns="http://www.w3.org/2000/svg" xmlns:xlink="http://www.w3.org/1999/xlink" x="0px" y="0px"
	 viewBox="0 0 375.4 595.3" style="enable-background:new 0 0 375.4 595.3;" xml:space="preserve">
<style type="text/css">
	.st0{fill:#FBCD18;}
	.st1{fill:#FAB612;}
	.st2{fill:#FAD748;}
	.st3{fill:#FCE280;}
</style>
<g>
	<path class="st0" d="M167.9,379c0.1-6.3,0.5-12.7-5.4-17c1.1-45.1,6.3-89.7,17.9-133.3c16.7-62.7,30.4-126.1,40.1-190.3
		c1.7-11,5.9-21.2,9.1-31.8c2.1-4.9,5.6-11,9.1-2.1C263.4,66.6,312.1,112.7,347,168c20.1,31.9,32.3,65.6,30.1,104.2
		c-3.4,58.1-42.6,98.9-101,102.4c-29.5,1.8-58.9,1.1-87.6-7.2c-10.3-3-17.7-2-16.7,11.4C170.6,380.4,169.3,380.5,167.9,379z"/>
	<path class="st1" d="M229.6,6.7c3.9,21-2.8,41.3-6.7,61.1C210,133.5,195.5,199,178.1,263.8c-7.1,26.5-7.1,54.8-10.2,82.4
		c-0.6,5.8,0.5,11.9-5.5,15.8c-32.3-3.4-64-10.3-94.3-21.4C-8.7,312.4-21.6,211.4,45,157.2C90,120.5,136.9,86,182.4,49.8
		C199,36.5,213.9,21.1,229.6,6.7z"/>
	<path class="st2" d="M163.8,436.7c0.8,47.7-3.6,95.5,4,143c0.8,5.3,4.7,15.3-5.6,15.6c-9.8,0.3-7-9.6-7.3-15.5
		c-2.3-47.8,1.4-95.4,4.5-143C160.8,435.2,162.3,435.2,163.8,436.7z"/>
	<path class="st3" d="M163.8,436.7l-2.2,0c0,0-2.2,0.1-2.2,0.1c1.4-19.5,0.9-39.2,8.5-57.8c1.3,0,2.6-0.1,3.9-0.3
		C167.3,397.8,171.6,418.1,163.8,436.7z"/>
</g>
</svg>
