<?xml version="1.0" encoding="utf-8"?>
<!-- Generator: Adobe Illustrator 21.0.0, SVG Export Plug-In . SVG Version: 6.00 Build 0)  -->
<svg version="1.1" id="Laag_1" xmlns="http://www.w3.org/2000/svg" xmlns:xlink="http://www.w3.org/1999/xlink" x="0px" y="0px"
	 viewBox="0 0 841.9 595.3" style="enable-background:new 0 0 841.9 595.3;" xml:space="preserve">
<style type="text/css">
	.st0{fill:#FBFBFB;}
	.st1{fill:#F6F6F6;}
	.st2{fill:#FFED00;}
</style>
<g>
	<g>
		<path class="st0" d="M465.8,207c0,24.8-20.1,44.8-44.8,44.8s-44.8-20.1-44.8-44.8s20.1-84.8,44.8-84.8S465.8,182.2,465.8,207z"/>
		<path class="st1" d="M414.4,196.7c12.4,21.4,5,48.8-16.4,61.2c-21.4,12.4-48.8,5-61.2-16.4c-12.4-21.4-25-83.5-3.6-95.9
			C354.6,133.3,402,175.3,414.4,196.7z"/>
		<path class="st0" d="M364.8,213.5c21.4,12.4,28.8,39.8,16.4,61.2c-12.4,21.4-39.8,28.8-61.2,16.4c-21.4-12.4-63.4-59.8-51-81.2
			C281.3,188.5,343.4,201.1,364.8,213.5z"/>
		<path class="st1" d="M330.3,252.8c24.8,0,44.8,20.1,44.8,44.8c0,24.8-20.1,44.8-44.8,44.8c-24.8,0-84.8-20.1-84.8-44.8
			C245.4,272.9,305.5,252.8,330.3,252.8z"/>
		<path class="st0" d="M320,304.2c21.4-12.4,48.8-5,61.2,16.4c12.4,21.4,5,48.8-16.4,61.2c-21.4,12.4-83.5,25-95.9,3.6
			C256.6,364,298.6,316.5,320,304.2z"/>
		<path class="st1" d="M336.8,353.8c12.4-21.4,39.8-28.8,61.2-16.4c21.4,12.4,28.8,39.8,16.4,61.2c-12.4,21.4-59.8,63.4-81.2,51
			C311.8,437.3,324.4,375.2,336.8,353.8z"/>
		<path class="st0" d="M376.1,388.3c0-24.8,20.1-44.8,44.8-44.8s44.8,20.1,44.8,44.8c0,24.8-20.1,84.8-44.8,84.8
			S376.1,413.1,376.1,388.3z"/>
		<path class="st1" d="M427.5,398.6c-12.4-21.4-5-48.8,16.4-61.2c21.4-12.4,48.8-5,61.2,16.4c12.4,21.4,25,83.5,3.6,95.9
			C487.3,462,439.8,420,427.5,398.6z"/>
		<path class="st0" d="M477.1,381.8c-21.4-12.4-28.8-39.8-16.4-61.2c12.4-21.4,39.8-28.8,61.2-16.4c21.4,12.4,63.4,59.8,51,81.2
			C560.6,406.8,498.5,394.2,477.1,381.8z"/>
		<path class="st1" d="M511.6,342.5c-24.8,0-44.8-20.1-44.8-44.8c0-24.8,20.1-44.8,44.8-44.8c24.8,0,84.8,20.1,84.8,44.8
			C596.4,322.4,536.4,342.5,511.6,342.5z"/>
		<path class="st0" d="M521.9,291.1c-21.4,12.4-48.8,5-61.2-16.4c-12.4-21.4-5-48.8,16.4-61.2c21.4-12.4,83.5-25,95.9-3.6
			S543.3,278.7,521.9,291.1z"/>
		<path class="st1" d="M505.1,241.5c-12.4,21.4-39.8,28.8-61.2,16.4c-21.4-12.4-28.8-39.8-16.4-61.2c12.4-21.4,59.8-63.4,81.2-51
			S517.5,220.1,505.1,241.5z"/>
	</g>
	<circle class="st2" cx="420.9" cy="297.6" r="62.3"/>
</g>
</svg>
