<svg xmlns="http://www.w3.org/2000/svg" viewBox="20108.314 230.802 387.098 392.187">
  <defs>
    <style>
      .cls-1 {
        fill: #1579fb;
      }

      .cls-2 {
        opacity: 0.3;
      }

      .cls-3 {
        fill: #ad7447;
      }

      .cls-4 {
        fill: #ede8e5;
      }

      .cls-5 {
        fill: #533825;
      }

      .cls-6 {
        fill: #e30613;
      }

      .cls-7 {
        fill: #be1622;
      }

      .cls-8 {
        fill: #f39200;
      }

      .cls-9 {
        fill: #e94e1b;
      }

      .cls-10 {
        fill: #48301f;
      }

      .cls-11 {
        fill: #7e543c;
      }

      .cls-12, .cls-14 {
        fill: #fff;
      }

      .cls-13 {
        fill: #e55042;
        font-size: 30px;
      }

      .cls-13, .cls-14 {
        font-family: FrancoisOne-Regular, Francois One;
      }

      .cls-14 {
        font-size: 180px;
      }
    </style>
  </defs>
  <g id="Group_201" data-name="Group 201" transform="translate(19584)">
    <g id="Group_191" data-name="Group 191">
      <path id="Path_100" data-name="Path 100" class="cls-1" d="M167.2.2C139.291,2.332,37.278-3.278,11.517,63.37s-16.39,183.4,112.971,178.838,191.024-2.574,215.318-67.714S335.379,40.368,303.719,26.637,195.11-1.923,167.2.2Z" transform="translate(596.654 579.686) rotate(-90)"/>
      <g id="Group_67" data-name="Group 67" class="cls-2" transform="translate(613.914 420.369)">
        <path id="Path_101" data-name="Path 101" class="cls-3" d="M217.3,169.707H327.1a1.7,1.7,0,1,0,0-3.407H217.3Z" transform="translate(-143.214 -109.638)"/>
        <path id="Path_102" data-name="Path 102" class="cls-3" d="M234.777,97.7H217.3v3.407H327.1a1.7,1.7,0,1,0,0-3.407H234.777Z" transform="translate(-143.214 -64.408)"/>
        <path id="Path_103" data-name="Path 103" class="cls-3" d="M136.651,107.541a21.941,21.941,0,0,0-2.351,0h2.351Z" transform="translate(-88.49 -70.877)"/>
        <path id="Path_104" data-name="Path 104" class="cls-4" d="M113.173,107.7h-2.419c-2.725.136-7.154.749-9.88,3.3a7.482,7.482,0,0,0-2.283,6c.068,3.986.17,10.663,11.958,10.663H247.264a23.6,23.6,0,0,1,0-19.964H113.173Z" transform="translate(-64.944 -71.001)"/>
        <path id="Path_105" data-name="Path 105" class="cls-5" d="M103.959,124.4h28.447V121H103.959c-11.788,0-11.89-6.677-11.958-10.663a7.664,7.664,0,0,1,2.283-6c2.691-2.555,7.154-3.168,9.88-3.3a21.943,21.943,0,0,1,2.351,0H132.44V97.626H106.719c-.954-.068-9.743-.477-14.751,4.224a10.908,10.908,0,0,0-3.373,8.551C88.662,114.217,88.833,124.4,103.959,124.4Z" transform="translate(-58.353 -64.334)"/>
        <path id="Path_106" data-name="Path 106" class="cls-6" d="M221.4,260.052H348.78a1.976,1.976,0,1,0,0-3.952H221.4Z" transform="translate(-145.917 -168.845)"/>
        <path id="Path_107" data-name="Path 107" class="cls-6" d="M347.009,180.352h1.772a1.976,1.976,0,1,0,0-3.952H221.4v3.952Z" transform="translate(-145.917 -116.297)"/>
        <path id="Path_108" data-name="Path 108" class="cls-3" d="M127.925,187.941c-.034,0-1.124-.068-2.725,0h2.725Z" transform="translate(-82.49 -123.886)"/>
        <path id="Path_109" data-name="Path 109" class="cls-4" d="M100.691,188H97.9c-3.168.17-8.313.886-11.447,3.85a8.786,8.786,0,0,0-2.657,6.984c.068,4.633.2,12.367,13.9,12.367H256.313a27.533,27.533,0,0,1,0-23.166H100.691Z" transform="translate(-55.187 -123.945)"/>
        <path id="Path_110" data-name="Path 110" class="cls-7" d="M89.881,207.422h33.012V203.47H89.881c-13.661,0-13.8-7.733-13.9-12.367a8.878,8.878,0,0,1,2.657-6.984c3.134-2.964,8.279-3.679,11.447-3.85,1.6-.068,2.691,0,2.725,0h30.048v-3.952H93.015c-1.09-.068-11.311-.579-17.1,4.906A12.8,12.8,0,0,0,72,191.137C72.1,195.6,72.3,207.422,89.881,207.422Z" transform="translate(-47.41 -116.214)"/>
        <path id="Path_111" data-name="Path 111" class="cls-8" d="M320.987,360.2H173.2v4.6H320.987a2.283,2.283,0,0,0,2.283-2.283A2.248,2.248,0,0,0,320.987,360.2Z" transform="translate(-114.138 -237.48)"/>
        <path id="Path_112" data-name="Path 112" class="cls-8" d="M318.943,272.465h2.078a2.283,2.283,0,0,0,0-4.565H173.2v4.6H318.943Z" transform="translate(-114.138 -176.624)"/>
        <path id="Path_113" data-name="Path 113" class="cls-3" d="M64.668,281.212a26.559,26.559,0,0,0-3.168,0h3.168Z" transform="translate(-40.492 -185.372)"/>
        <path id="Path_114" data-name="Path 114" class="cls-4" d="M33.056,281.234H29.785c-3.679.17-9.641,1.022-13.287,4.463a10.289,10.289,0,0,0-3.1,8.074c.1,5.349.238,14.343,16.114,14.343H213.582a32.031,32.031,0,0,1,0-26.914H33.056Z" transform="translate(-8.777 -185.393)"/>
        <path id="Path_115" data-name="Path 115" class="cls-9" d="M20.77,299.2c-15.876,0-16.012-8.994-16.114-14.343a10.174,10.174,0,0,1,3.1-8.074c3.611-3.441,9.607-4.293,13.287-4.463a26.559,26.559,0,0,1,3.168,0H59.062v-4.6H24.449c-1.261-.068-13.116-.647-19.828,5.689A14.736,14.736,0,0,0,.091,284.921c.1,5.144.341,18.84,20.713,18.84H59.1v-4.6H20.77Z" transform="translate(0 -176.475)"/>
        <path id="Path_116" data-name="Path 116" class="cls-3" d="M149.6,12.441h2.419C151.78,12.441,150.861,12.373,149.6,12.441Z" transform="translate(-98.578 -8.176)"/>
        <path id="Path_117" data-name="Path 117" class="cls-5" d="M447.942,87.412a1.989,1.989,0,0,1-1.806,2.112H378V85.3h68.136A1.945,1.945,0,0,1,447.942,87.412Z" transform="translate(-249.166 -56.233)"/>
        <path id="Path_118" data-name="Path 118" class="cls-5" d="M447.942,2.212a1.989,1.989,0,0,1-1.806,2.112H378V.1h68.136A1.966,1.966,0,0,1,447.942,2.212Z" transform="translate(-249.166 -0.059)"/>
        <path id="Path_119" data-name="Path 119" class="cls-3" d="M295.558,12.434H294.4V12.4c.647,0,1.056.034,1.056.034Z" transform="translate(-194.047 -8.168)"/>
        <path id="Path_120" data-name="Path 120" class="cls-4" d="M359.569,24.966a35.312,35.312,0,0,0,2.351,12.4H265.3a18.946,18.946,0,0,1-5.655-.749,12.538,12.538,0,0,1-1.5-.579l-2.317-1.567c-3.032-2.862-3.1-7.222-3.134-10.289a10.543,10.543,0,0,1,2.419-7.461c2.862-3.168,7.563-3.952,10.425-4.122h96.412A33.514,33.514,0,0,0,359.569,24.966Z" transform="translate(-166.551 -8.3)"/>
        <path id="Path_121" data-name="Path 121" class="cls-5" d="M289.7.041h2.862C292.289.041,291.2-.027,289.7.041Z" transform="translate(-190.948 0)"/>
        <path id="Path_122" data-name="Path 122" class="cls-5" d="M305.87,83.784v4.224H268.6L270.1,83a19.108,19.108,0,0,0,5.655.749H305.87Z" transform="translate(-177.037 -54.716)"/>
        <path id="Path_123" data-name="Path 123" class="cls-5" d="M322.947.1V4.324H295.556c-.034,0-.409-.034-1.056-.034L295.76.1h27.186Z" transform="translate(-194.113 -0.059)"/>
        <path id="Path_124" data-name="Path 124" class="cls-5" d="M147.559,16.707c0-16.625,12.3-16.625,20.816-16.625H153.623L147.559,5.7H123.541s-2.419,0-3.373-1.4H117.75a17.189,17.189,0,0,1,2.419,0,2.236,2.236,0,0,1-.375-1.295c0-.681.613-1.7,2.01-2.9h-1.363c-.988-.068-10.289-.613-15.569,5.246a14.982,14.982,0,0,0-3.577,10.6c.034,2.317.1,6.541,2.044,10.22h45.856A24.153,24.153,0,0,1,147.559,16.707Z" transform="translate(-66.727 -0.041)"/>
        <path id="Path_125" data-name="Path 125" class="cls-10" d="M162.186,83.854s-6.132,0-9.13-7.154H107.2c2.01,3.85,6.064,7.154,14.24,7.154h40.745Z" transform="translate(-70.622 -50.563)"/>
        <path id="Path_126" data-name="Path 126" class="cls-5" d="M156.768,12.5h0Z" transform="translate(-103.259 -8.234)"/>
        <path id="Path_127" data-name="Path 127" class="cls-11" d="M155.6,3.03a2.161,2.161,0,0,0,.375,1.295h0c.954,1.4,3.373,1.4,3.373,1.4H186.3L201.319.1H157.61C156.213,1.292,155.6,2.348,155.6,3.03Z" transform="translate(-102.534 -0.059)"/>
        <path id="Path_128" data-name="Path 128" class="cls-5" d="M291.7,12.4v.034h-1.4C290.845,12.4,291.322,12.4,291.7,12.4Z" transform="translate(-191.344 -8.168)"/>
        <path id="Path_129" data-name="Path 129" class="cls-5" d="M270.1,81.879l-1.5,4.974V81.3A15.282,15.282,0,0,0,270.1,81.879Z" transform="translate(-177.037 -53.595)"/>
        <path id="Path_130" data-name="Path 130" class="cls-5" d="M257.816.1l-1.261,4.19c-.409,0-.886,0-1.431.034-2.9.17-7.563.954-10.425,4.122a10.336,10.336,0,0,0-2.419,7.461c.034,3.066.1,7.427,3.134,10.289h-6.78A24.03,24.03,0,0,1,237,16.725C237.034.1,249.333.1,257.816.1Z" transform="translate(-156.202 -0.059)"/>
        <path id="Path_131" data-name="Path 131" class="cls-5" d="M264.117,78.267A9.193,9.193,0,0,1,261.8,76.7Z" transform="translate(-172.553 -50.563)"/>
        <path id="Path_132" data-name="Path 132" class="cls-5" d="M248.58,76.7H241.8c3,7.154,9.13,7.154,9.13,7.154V78.267A10.09,10.09,0,0,1,248.58,76.7Z" transform="translate(-159.367 -50.563)"/>
      </g>
      <g id="Group_65" data-name="Group 65" transform="translate(532.054 534.155)">
        <g id="Group_64" data-name="Group 64" transform="translate(-7.79 -32.243)">
          <path id="Path_21" data-name="Path 21" class="cls-12" d="M8.037,34.528c12.158-2.512,122.857-8.887,165.778-16.635s94.367-8.616,109.168-9.236S359.032-1.855,366.117-.917,377.97,10.551,379.39,17.167s1.435,17.72-1.094,22.028S338.012,52.135,314.86,53.468s-72.857,6.964-92.1,9.568-24.73.775-59.872,4.808-74.953,4.861-94,8.5-44.012,5.9-53.363,5.334S-1.356,68.995-.028,64.124-4.121,37.039,8.037,34.528Z" transform="matrix(0.995, 0.105, -0.105, 0.995, 8.776, 0)"/>
        </g>
      </g>
    </g>
    <text id="Ik_wil_nog_een_schat_zoeken" data-name="Ik wil nog een schat zoeken" class="cls-13" transform="translate(717.926 570.93)"><tspan x="-170.685" y="0">Ik wil nog een schat zoeken</tspan></text>
    <text id="_" data-name="?" class="cls-14" transform="translate(680 479)"><tspan x="0" y="0">?</tspan></text>
  </g>
</svg>
