<?xml version="1.0" encoding="utf-8"?>
<!-- Generator: Adobe Illustrator 21.0.0, SVG Export Plug-In . SVG Version: 6.00 Build 0)  -->
<svg version="1.1" id="Layer_1" xmlns="http://www.w3.org/2000/svg" xmlns:xlink="http://www.w3.org/1999/xlink" x="0px" y="0px"
	 viewBox="0 0 512 512" style="enable-background:new 0 0 512 512;" xml:space="preserve">
<style type="text/css">
	.st0{fill:#F5E977;}
	.st1{fill:#5D5D5D;}
	.st2{fill:#008D36;}
	.st3{fill:#39A935;}
	.st4{fill:#006633;}
	.st5{opacity:0.44;fill:#DD8E92;enable-background:new    ;}
	.st6{fill:none;stroke:#000000;stroke-width:15;stroke-linecap:round;stroke-linejoin:round;stroke-miterlimit:10;}
	.st7{opacity:0.25;fill:#DD8E92;enable-background:new    ;}
	.st8{fill:#E4AE6E;}
</style>
<path class="st0" d="M385.3,184.5h11.9c11.6,0,20.6,9.9,19.6,21.4l-3.5,40.2c-0.9,10.2-9.4,18-19.6,18h-8.3H125.6h-8.3
	c-10.2,0-18.7-7.8-19.6-18l-3.5-40.2c-1-11.5,8.1-21.4,19.6-21.4h11.9H385.3z"/>
<path class="st1" d="M405.1,186.1c0,0,24.7-106.7-45.9-132.8c0,0-35.1-78.9-154.6-44.8l5.6,12.3c0,0-33-16.2-84.7,43.1l13.3,2.8
	c0,0-49.9,32.2-29.1,118.1L405.1,186.1z"/>
<path class="st2" d="M370.9,408.2c25.9,0,47,21,47,47V512H98v-56.9c0-25.9,21-47,47-47H370.9z"/>
<path class="st3" d="M371,408.2h-50.2c25.9,0,47,21,47,47V512H418v-56.9C418,429.2,396.9,408.2,371,408.2z"/>
<path class="st4" d="M319.5,360.2c29.8,10.9,49.4,29.4,49.4,50.5c0,33.5-111,60.6-111,60.6s-111-27.2-111-60.6
	c0-21.1,19.7-39.6,49.5-50.5L319.5,360.2z"/>
<g>
	<path class="st3" d="M283.4,374.4c23.5,5.4,39.9,18.1,39.9,32.9c0,19.7-65.4,35.7-65.4,35.7s-65.4-16-65.4-35.7
		c0-14.7,16.3-27.4,39.5-32.8L283.4,374.4z"/>
	<path class="st3" d="M298.5,488.1c-4.3,0-7.8-3.5-7.8-7.8v-20.7c0-4.3,3.5-7.8,7.8-7.8c4.3,0,7.8,3.5,7.8,7.8v20.7
		C306.4,484.5,302.9,488.1,298.5,488.1z"/>
	<path class="st3" d="M215.4,488.1c-4.3,0-7.8-3.5-7.8-7.8v-20.7c0-4.3,3.5-7.8,7.8-7.8s7.8,3.5,7.8,7.8v20.7
		C223.2,484.5,219.7,488.1,215.4,488.1z"/>
</g>
<path class="st0" d="M231,358.1v77.2c14.3,5.2,27.2,8.4,27.2,8.4s13.1-3.2,27.5-8.5v-77.1L231,358.1L231,358.1z"/>
<rect x="230.7" y="348.4" class="st5" width="55.1" height="48.8"/>
<path class="st6" d="M279.2,329.5c-13.4,13.4-35.1,13.4-48.5,0"/>
<path class="st0" d="M264.5,121.1c-9.1-3.6-17.6-8.5-25.4-14.4c-44.2-33.3-80.2-16.1-80.9-15.2l0,0c-18.5,21.8-29.7,50-29.7,80.6
	v26.4v49.2c0,68.7,56.2,125,125,125h5.3c59.2,0,109.1-41.7,121.9-97.2c2-8.9,3.1-18.2,3.1-27.8v-52.9v-22.7c0-17.9-3.8-35-10.7-50.4
	l0,0c0,0-10,5-25,9.2c-22.4,6.3-46.3,4.8-68-3.7L264.5,121.1z"/>
<g>
	<path class="st7" d="M373.1,121.7L373.1,121.7c0,0-8.3,4.1-21.2,8c0.3,3.6,0.5,7.3,0.5,11v22.7v52.9c0,9.5-1.1,18.8-3.1,27.8
		c-12.7,55.5-62.7,97.2-121.9,97.2h-5.3c-26.4,0-51-8.3-71.2-22.4c22.6,32.5,60.2,53.8,102.6,53.8h5.3c59.2,0,109.1-41.7,121.9-97.2
		c2-8.9,3.1-18.2,3.1-27.8v-52.9v-22.7C383.7,154.2,379.9,137.2,373.1,121.7z"/>
	<path class="st8" d="M210.3,231c-4.3,0-7.8-3.5-7.8-7.8v-19.6c0-4.3,3.5-7.8,7.8-7.8s7.8,3.5,7.8,7.8v19.6
		C218.2,227.5,214.6,231,210.3,231z"/>
	<path class="st8" d="M301.9,231c-4.3,0-7.8-3.5-7.8-7.8v-19.6c0-4.3,3.5-7.8,7.8-7.8s7.8,3.5,7.8,7.8v19.6
		C309.8,227.5,306.3,231,301.9,231z"/>
	<path class="st8" d="M254.9,311c-20.2,0-40.4-7.7-55.8-23.1c-3.1-3.1-3.1-8,0-11.1c3.1-3.1,8-3.1,11.1,0
		c24.6,24.6,64.7,24.6,89.4,0c3.1-3.1,8-3.1,11.1,0c3.1,3.1,3.1,8,0,11.1C295.3,303.3,275.1,311,254.9,311z"/>
	<path class="st8" d="M238.1,201.7c-2.2,0-4.3-0.9-5.9-2.6c0,0-3.9-4.4-9-9.9c-7.3-7.9-19.5-8.8-27.8-2l-11.3,9.2
		c-3.4,2.7-8.3,2.2-11-1.1c-2.7-3.4-2.2-8.3,1.1-11l11.3-9.2c14.7-12,36.4-10.5,49.3,3.5c5.2,5.6,9.1,10,9.2,10.2
		c2.9,3.2,2.6,8.2-0.7,11.1C241.8,201.1,240,201.7,238.1,201.7z"/>
	<path class="st8" d="M331.4,201.7c-2.2,0-4.3-0.9-5.9-2.6c0,0-3.9-4.4-9-9.9c-7.3-7.9-19.5-8.8-27.8-2l-11.3,9.2
		c-3.4,2.7-8.3,2.2-11-1.1c-2.7-3.4-2.2-8.3,1.1-11l11.3-9.2c14.7-12,36.4-10.5,49.3,3.5c5.2,5.6,9.1,10,9.2,10.2
		c2.9,3.2,2.6,8.2-0.7,11.1C335.1,201.1,333.3,201.7,331.4,201.7z"/>
	<path class="st8" d="M252.8,274.3c-3.7,0-6.9-2.6-7.7-6.3c-0.9-4.2,1.9-8.4,6.1-9.2c10.5-2.1,17.6-12.1,16.2-22.7l-2-14.5
		c-0.6-4.3,2.4-8.2,6.7-8.8c4.3-0.6,8.2,2.4,8.8,6.7l2,14.5c2.6,18.8-10,36.5-28.6,40.2C253.8,274.2,253.3,274.3,252.8,274.3z"/>
</g>
</svg>
