<?xml version="1.0" encoding="utf-8"?>
<!-- Generator: Adobe Illustrator 21.0.0, SVG Export Plug-In . SVG Version: 6.00 Build 0)  -->
<svg version="1.1" id="Layer_1" xmlns="http://www.w3.org/2000/svg" xmlns:xlink="http://www.w3.org/1999/xlink" x="0px" y="0px"
	 viewBox="0 0 512 512" style="enable-background:new 0 0 512 512;" xml:space="preserve">
<style type="text/css">
	.st0{fill:#F9C3C2;}
	.st1{fill:#E0656B;}
	.st2{opacity:0.46;}
	.st3{fill:#DD8E92;}
	.st4{opacity:0.54;}
	.st5{fill:#511C21;}
	.st6{fill:#B1DEE0;}
</style>
<path class="st0" d="M280.7,347.5V411c0,5.7,4.6,10.4,10.4,10.4l0,0h29.6c48.8,0,88.3,39.5,88.3,88.3v2.3H97.3v-2.3
	c0-48.8,39.5-88.3,88.3-88.3h30.6h0.1c5.7,0,10.4-4.6,10.4-10.4v-63.5L280.7,347.5L280.7,347.5z"/>
<path class="st1" d="M179.7,331.4h-54.5c-18.4,0-33.3-14.9-33.3-33.3V115c0,0-2.4-38.2,26.9-74c20.8-25.3,52.7-41,88-41h98.3
	c63.5,0,115,51.5,115,115v183.1c0,18.4-14.9,33.3-33.3,33.3h-60.7"/>
<path class="st0" d="M391.4,159.2c-50.6-15.1-76-81.9-76-81.9c-76,109.9-187.8,102.5-187.8,102.5v2.6v46.9
	c0,67.8,55.5,123.3,123.3,123.3h5.2c25.4,0,49.1-7.8,68.8-21.1c32.8-22.2,54.5-59.8,54.5-102.2v-74.6L391.4,159.2z"/>
<g class="st2">
	<path class="st3" d="M349.7,131.8v67.7c0,42.4-21.7,80-54.5,102.2c-19.7,13.3-43.4,21.1-68.8,21.1h-5.2c-26.4,0-50.8-8.4-71-22.6
		c22.4,31.6,59.3,52.4,100.7,52.4h5.2c25.4,0,49.1-7.8,68.8-21.1c32.8-22.2,54.5-59.8,54.5-102.2v-74.6l1.7,0.7
		C369,149.7,358.5,141.2,349.7,131.8z"/>
</g>
<g>
	<path class="st3" d="M208.3,212.9c-4.3,0-7.8-3.5-7.8-7.8v-19.3c0-4.3,3.5-7.8,7.8-7.8s7.8,3.5,7.8,7.8V205
		C216.2,209.4,212.7,212.9,208.3,212.9z"/>
	<path class="st3" d="M298.8,212.9c-4.3,0-7.8-3.5-7.8-7.8v-19.3c0-4.3,3.5-7.8,7.8-7.8s7.8,3.5,7.8,7.8V205
		C306.6,209.4,303.1,212.9,298.8,212.9z"/>
	<path class="st3" d="M252.3,291.8c-20,0-39.9-7.6-55.1-22.8c-3.1-3.1-3.1-8,0-11.1c3.1-3.1,8-3.1,11.1,0
		c24.3,24.3,63.8,24.3,88.1,0c3.1-3.1,8-3.1,11.1,0c3.1,3.1,3.1,8,0,11.1C292.3,284.2,272.3,291.8,252.3,291.8z"/>
</g>
<g class="st4">
	<path class="st5" d="M132.5,145.9c-3.1,0-5-0.1-5.5-0.1c-4.3-0.3-7.6-4-7.3-8.3c0.3-4.3,4-7.6,8.3-7.3c0.8,0.1,68.2,3.7,131.8-46.4
		c3.4-2.7,8.3-2.1,11,1.3c2.7,3.4,2.1,8.3-1.3,11C211.1,142.1,150.8,145.9,132.5,145.9z"/>
</g>
<path class="st3" d="M260.7,245.3h-18.8c-2.3,0-4.6-1-6-2.8s-2.1-4.2-1.7-6.5l7.8-40.8c0.8-4.3,4.9-7,9.2-6.2c4.3,0.8,7,4.9,6.2,9.2
	l-6,31.4h9.3c4.3,0,7.8,3.5,7.8,7.8S265.1,245.3,260.7,245.3z"/>
<g>
	<path class="st6" d="M324.3,421.5c0,0-0.3,31.8-71.4,31.8c-69.9,0-72.6-31.7-72.6-31.7c-46.3,2.7-83.1,41.1-83.1,88.2v2.3H409v-2.3
		C409,462.1,371.4,423.4,324.3,421.5z"/>
</g>
</svg>
