<?xml version="1.0" encoding="utf-8"?>
<!-- Generator: Adobe Illustrator 21.0.0, SVG Export Plug-In . SVG Version: 6.00 Build 0)  -->
<svg version="1.1" id="Layer_1" xmlns="http://www.w3.org/2000/svg" xmlns:xlink="http://www.w3.org/1999/xlink" x="0px" y="0px"
	 viewBox="0 0 512 512" style="enable-background:new 0 0 512 512;" xml:space="preserve">
<style type="text/css">
	.st0{fill:#F5EA78;}
	.st1{opacity:0.12;fill:#DD8E92;enable-background:new    ;}
	.st2{fill:#F9C3C2;}
	.st3{fill:#B1DEE0;}
	.st4{fill:#92CCCC;}
	.st5{opacity:0.34;fill:#DD8E92;enable-background:new    ;}
	.st6{fill:#DD8E92;}
	.st7{fill:#F4A2A3;}
	.st8{fill:#1D1D1B;}
	.st9{fill:#FFFFFF;}
</style>
<path class="st0" d="M167.2,456.9c0,0-124.7-27.3-77.1-236.2c6.4-28.2,15.2-51.1,25.6-69.6c0,0,19-36.6,49.8-53.5
	c69.1-38,149.2-2.6,149.2-2.6S386,68.9,421.6,220.7c48.9,208.6-77.1,236.2-77.1,236.2H167.2L167.2,456.9z"/>
<rect x="227.2" y="424.2" class="st1" width="54.1" height="26.9"/>
<path class="st2" d="M128.3,232.8c0,0,106.1,0.4,164.7-107.3c0,0,24.1,15,57.5,27.1c26.8,9.7,29.8,51.3,29.8,80.2v74.6
	c0,67.9-55.5,123.4-123.4,123.4h-5.2c-67.8,0-123.4-55.5-123.4-123.4L128.3,232.8L128.3,232.8z"/>
<g>
	<path class="st3" d="M249.4,445.5h-30.5v-0.1c-47.5,0-88.7,27.1-109,66.6h243.7C334.1,473.8,294.9,447.2,249.4,445.5z"/>
	<path class="st4" d="M353.7,512h45c-5.8-11.4-13.4-21.7-22.4-30.7c-22.1-22.1-52.7-35.8-86.5-35.8h-40.4
		C294.9,447.2,334.1,473.8,353.7,512z"/>
</g>
<path class="st2" d="M281.5,418.5v53.9c0,14.9-12.1,27-27,27l0,0c-14.9,0-27-12.1-27-27v-53.9H281.5z"/>
<g>
	<path class="st5" d="M350.5,152.7c-1.7-0.6-3.4-1.3-5.1-1.9c6,16.6,7,37.5,7,54.2v74.6c0,67.8-55.5,123.4-123.4,123.4h-5.2
		c-26.9,0-51.8-8.7-72.1-23.4c22.5,31,58.9,51.3,99.9,51.3h5.2c67.9,0,123.4-55.5,123.4-123.4v-74.6
		C380.3,204,377.2,162.4,350.5,152.7z"/>
	<path class="st6" d="M209.1,291.1c-4.3,0-7.8-3.5-7.8-7.8V264c0-4.3,3.5-7.8,7.8-7.8s7.8,3.5,7.8,7.8v19.3
		C216.9,287.5,213.4,291.1,209.1,291.1z"/>
	<path class="st6" d="M299.5,291.1c-4.3,0-7.8-3.5-7.8-7.8V264c0-4.3,3.5-7.8,7.8-7.8s7.8,3.5,7.8,7.8v19.3
		C307.3,287.5,303.8,291.1,299.5,291.1z"/>
	<path class="st6" d="M253.1,370c-20,0-39.9-7.6-55.1-22.8c-3.1-3.1-3.1-8,0-11.1s8-3.1,11.1,0c24.3,24.3,63.8,24.3,88.1,0
		c3.1-3.1,8-3.1,11.1,0s3.1,8,0,11.1C293,362.4,273,370,253.1,370z"/>
	<path class="st6" d="M261.5,323.5h-18.8c-2.3,0-4.6-1-6-2.8c-1.5-1.8-2.1-4.2-1.7-6.5l7.8-40.8c0.8-4.3,4.9-7,9.2-6.2
		c4.3,0.8,7,4.9,6.2,9.2l-6,31.4h9.3c4.3,0,7.8,3.5,7.8,7.8C269.3,319.9,265.8,323.5,261.5,323.5z"/>
</g>
<g>
	<circle class="st7" cx="162.6" cy="296.3" r="19.6"/>
	<circle class="st7" cx="343" cy="296.3" r="19.6"/>
</g>
<g>
	<path class="st3" d="M339,0l-48.7,50c14.5,8.3,35.1,16.6,61,18.2L339,0z"/>
	<path class="st3" d="M274.3,66.5L249.5,92c0,0,41.6,43.9,112.6,35.5l-6.7-36.9C318,91,290.2,77.3,274.3,66.5z"/>
	<path class="st4" d="M355.4,90.5l-4-22.3c-25.9-1.6-46.5-9.9-61-18.2l-16,16.5C290.2,77.3,318,91,355.4,90.5z"/>
</g>
<g>
	<polygon class="st8" points="390.7,401.1 386.7,420.4 374.9,417.9 379,398.7 355.2,512 367.4,512 	"/>
	
		<rect x="373" y="403.5" transform="matrix(0.2057 -0.9786 0.9786 0.2057 -96.6693 699.9341)" class="st9" width="19.7" height="12"/>
</g>
</svg>
