<?xml version="1.0" encoding="utf-8"?>
<!-- Generator: Adobe Illustrator 21.0.0, SVG Export Plug-In . SVG Version: 6.00 Build 0)  -->
<svg version="1.1" id="Layer_1" xmlns="http://www.w3.org/2000/svg" xmlns:xlink="http://www.w3.org/1999/xlink" x="0px" y="0px"
	 viewBox="0 0 512 512" style="enable-background:new 0 0 512 512;" xml:space="preserve">
<style type="text/css">
	.st0{fill:#5D5D5D;}
	.st1{fill:#AAE090;}
	.st2{fill:#AF8FE5;}
	.st3{fill:#7D966E;}
	.st4{fill:#FFFFFF;}
	.st5{opacity:0.2;enable-background:new    ;}
	.st6{opacity:0.26;fill:#7D966E;enable-background:new    ;}
</style>
<path class="st0" d="M110.6,107.9H73.4v-9.7c0-2.6-2.1-4.7-4.7-4.7H41.5c-2.6,0-4.7,2.1-4.7,4.7v58c0,2.6,2.1,4.7,4.7,4.7h27.2
	c2.6,0,4.7-2.1,4.7-4.7v-9.7h41.5h271.3h41.5v9.7c0,2.6,2.1,4.7,4.7,4.7h27.2c2.6,0,4.7-2.1,4.7-4.7v-58c0-2.6-2.1-4.7-4.7-4.7
	h-27.2c-2.6,0-4.7,2.1-4.7,4.7v9.7h-37.2L110.6,107.9L110.6,107.9z"/>
<path class="st1" d="M257.5,0h122.8c11.9,0,21.2,10.4,19.9,22.2l-30.4,270c-0.7,9.8-8.9,17.4-18.7,17.4l0,0
	c-5.9,0-10.8,4.6-11.3,10.5l-1.6,22.1c-1,13-11.8,23.1-24.9,23.1H188.6c-13.1,0-24-10.1-24.9-23.1l-1.6-22.1
	c-0.4-5.9-5.3-10.5-11.3-10.5l0,0c-9.8,0-18-7.6-18.7-17.4l-7.4-64.4l-23-205.6C100.5,10.4,109.8,0,121.7,0h58.4H257.5z"/>
<path class="st2" d="M134.3,41.3L134.3,41.3l21.9,32.3l31.2-31.2l32.2,32.3l31.2-31.2l32.6,32.3l31.2-31.2L346.9,77l20.8-31.2
	l0.3-0.2l10.4,170.7h0.1l21.8-194.1C401.7,10.4,392.4,0,380.5,0H257.6h-77.5h-58.4c-11.9,0-21.2,10.4-19.9,22.2l21.7,194.1h0.2
	L134.3,41.3z"/>
<g>
	<path class="st3" d="M250.6,159.9c-39.7,0-76.9-15.4-105-43.5c-3.1-3.1-3.1-8,0-11.1c3.1-3.1,8-3.1,11.1,0
		c25.1,25.1,58.4,38.9,93.9,38.9c35.5,0,68.8-13.8,93.9-38.9c3.1-3.1,8-3.1,11.1,0c3.1,3.1,3.1,8,0,11.1
		C327.5,144.5,290.2,159.9,250.6,159.9z"/>
	<path class="st3" d="M192.4,201.2c-4.3,0-7.8-3.5-7.8-7.8v-25.7c0-4.3,3.5-7.8,7.8-7.8s7.8,3.5,7.8,7.8v25.7
		C200.2,197.7,196.7,201.2,192.4,201.2z"/>
	<path class="st3" d="M308.7,201.2c-4.3,0-7.8-3.5-7.8-7.8v-25.7c0-4.3,3.5-7.8,7.8-7.8s7.8,3.5,7.8,7.8v25.7
		C316.5,197.7,313,201.2,308.7,201.2z"/>
</g>
<path class="st4" d="M298.2,278.6H201c-10.5,0-19.1-8.6-19.1-19.1V256c0-10.5,8.6-19.1,19.1-19.1h97.2c10.5,0,19.1,8.6,19.1,19.1
	v3.5C317.3,270,308.7,278.6,298.2,278.6z"/>
<path class="st3" d="M271.8,214.8c-2,0-4-0.8-5.5-2.3l-15.9-15.9l-15.9,15.9c-3.1,3.1-8,3.1-11.1,0c-3.1-3.1-3.1-8,0-11.1l21.4-21.4
	c3.1-3.1,8-3.1,11.1,0l21.4,21.4c3.1,3.1,3.1,8,0,11.1C275.8,214.1,273.8,214.8,271.8,214.8z"/>
<polygon class="st1" points="194.9,415 194.9,384.1 194.9,355.5 302.7,355.5 302.7,415 "/>
<path class="st0" d="M306.8,390.9h120.5c26.4,0,47.9,21.4,47.9,47.9V512H37.7v-73.2c0-26.4,21.4-47.9,47.9-47.9h108.6H306.8z"/>
<path class="st5" d="M427.3,390.9h-70.9c26.4,0,47.9,21.4,47.9,47.9V512h70.9v-73.2C475.1,412.3,453.7,390.9,427.3,390.9z"/>
<polygon class="st1" points="366.2,390.9 246.3,510.7 119.7,390.9 "/>
<g>
	<rect x="211" y="236.9" class="st0" width="25" height="41.7"/>
	<rect x="261.1" y="236.9" class="st0" width="25" height="41.7"/>
</g>
<g>
	<path class="st3" d="M289.6,317.3h-78.3c-4.3,0-7.8-3.5-7.8-7.8s3.5-7.8,7.8-7.8h78.3c4.3,0,7.8,3.5,7.8,7.8
		S293.9,317.3,289.6,317.3z"/>
	<path class="st6" d="M380.4,0h-45.9c11.9,0,21.2,10.4,19.9,22.2l-30.4,270c-0.7,9.8-8.9,17.4-18.7,17.4l0,0
		c-5.9,0-10.8,4.6-11.3,10.5l-1.6,22.1c-1,13-11.8,23.1-24.9,23.1h45.9c13.1,0,24-10.1,24.9-23.1L340,320
		c0.4-5.9,5.3-10.5,11.3-10.5l0,0c9.8,0,18-7.6,18.7-17.4l30.4-270C401.6,10.4,392.3,0,380.4,0z"/>
	<rect x="194.5" y="365.3" class="st6" width="108.3" height="13.8"/>
</g>
</svg>
