<?xml version="1.0" encoding="utf-8"?>
<!-- Generator: Adobe Illustrator 21.0.0, SVG Export Plug-In . SVG Version: 6.00 Build 0)  -->
<svg version="1.1" id="Layer_1" xmlns="http://www.w3.org/2000/svg" xmlns:xlink="http://www.w3.org/1999/xlink" x="0px" y="0px"
	 viewBox="0 0 512 512" style="enable-background:new 0 0 512 512;" xml:space="preserve">
<style type="text/css">
	.st0{opacity:0.13;fill:#DD8E92;enable-background:new    ;}
	.st1{fill:#DD8E92;}
	.st2{fill:#FBEA26;}
	.st3{opacity:0.34;fill:#7D966E;enable-background:new    ;}
	.st4{fill:#00859F;}
	.st5{fill:#F7D7D5;}
	.st6{opacity:0.26;fill:#DD8E92;enable-background:new    ;}
	.st7{fill:#FFFFFF;}
	.st8{fill:#775F45;}
	.st9{fill:#58B031;}
	.st10{fill:#1D1D1B;}
	.st11{fill:#B31917;}
</style>
<g>
	<rect x="226.9" y="416.6" class="st0" width="53.7" height="26"/>
	<path class="st1" d="M388.5,316.3c22,0,39.8-17.8,39.8-39.8s-17.8-39.8-39.8-39.8H130.8c-22,0-39.8,17.8-39.8,39.8
		s17.8,39.8,39.8,39.8H388.5z"/>
</g>
<g>
	<path class="st2" d="M193.3,474.2v-14.9h33.6v-0.5h-0.8h-80.5c-31.5,0-57.6,23.3-61.3,53.2h122
		C198.2,501.6,193.3,488.5,193.3,474.2z"/>
	<path class="st2" d="M316.4,460.3v13.9c0,14.2-4.9,27.3-13,37.8h60.9C361.1,486.5,341.6,465.8,316.4,460.3z"/>
	<path class="st2" d="M310.9,459.3c-2.6-0.3-5.2-0.5-7.9-0.5h-21.7h-0.5v0.5H310.9z"/>
	<path class="st3" d="M425.5,512L425.5,512c-3.7-29.9-29.9-53.2-61.3-53.2h0C395.6,458.8,421.7,482.1,425.5,512z"/>
	<path class="st2" d="M316.4,459.3v1c25.2,5.5,44.7,26.2,47.9,51.7h61.2c-3.7-29.9-29.9-53.2-61.3-53.2h-61.2c2.7,0,5.3,0.2,7.9,0.5
		H316.4z"/>
	<path class="st3" d="M316.4,459.3v1c25.2,5.5,44.7,26.2,47.9,51.7h61.2c-3.7-29.9-29.9-53.2-61.3-53.2h-61.2c2.7,0,5.3,0.2,7.9,0.5
		H316.4z"/>
	<path class="st4" d="M316.4,460.3c-1.8-0.4-3.7-0.7-5.6-1h-30v9.2c0,14.9-12.1,27-27,27c-14.9,0-27-12.1-27-27v-9.2h-33.6v14.9
		c0,14.2,4.9,27.3,13,37.8h97.1c8.1-10.4,13-23.5,13-37.8V460.3z"/>
	<path class="st4" d="M316.4,459.3h-5.6c1.9,0.2,3.7,0.6,5.6,1V459.3z"/>
	<rect x="226.9" y="406.3" class="st5" width="53.9" height="52.5"/>
	<rect x="226.9" y="458.8" class="st5" width="53.9" height="0.5"/>
	<path class="st5" d="M253.9,495.5c14.9,0,27-12.1,27-27v-9.2h-53.9v9.2C226.9,483.5,239,495.5,253.9,495.5z"/>
</g>
<path class="st5" d="M383.7,211.9v38.7v53.6c0,67.7-55.4,123.1-123.1,123.1h-5.2c-30.8,0-58.1-12.4-80.6-30.2
	C152,379,142,352,142,352c-6.2-14.7-9.7-30.9-9.7-47.8v-53.6v-38.7v-68h249.1L383.7,211.9z"/>
<g>
	<path class="st6" d="M381.5,143.9h-30.2l1.3,36.7v38.7V273c0,67.7-55.4,123.1-123.1,123.1h-5.2c-26.5,0-50.6-9.3-71.1-23.2
		c5.2,7.9,12.4,16.9,21.8,24.3c22.5,17.8,49.8,30.2,80.6,30.2h5.2c67.7,0,123.1-55.4,123.1-123.1v-53.6v-38.7L381.5,143.9z"/>
</g>
<path class="st7" d="M298.7,339c0,22.3-18.1,40.3-40.3,40.3S218,361.3,218,339H298.7z"/>
<g>
	<path class="st1" d="M213.8,278.8c-4.3,0-7.8-3.5-7.8-7.8v-24.4c0-4.3,3.5-7.8,7.8-7.8c4.3,0,7.8,3.5,7.8,7.8V271
		C221.6,275.3,218.1,278.8,213.8,278.8z"/>
	<path class="st1" d="M300.1,278.8c-4.3,0-7.8-3.5-7.8-7.8v-24.4c0-4.3,3.5-7.8,7.8-7.8c4.3,0,7.8,3.5,7.8,7.8V271
		C307.9,275.3,304.4,278.8,300.1,278.8z"/>
	<path class="st1" d="M240.1,236.6c-2,0-4-0.8-5.5-2.3c-11.9-11.9-31.4-11.9-43.3,0c-3.1,3.1-8,3.1-11.1,0c-3.1-3.1-3.1-8,0-11.1
		c18-18,47.4-18,65.4,0c3.1,3.1,3.1,8,0,11.1C244.1,235.9,242.1,236.6,240.1,236.6z"/>
	<path class="st1" d="M328.8,236.6c-2,0-4-0.8-5.5-2.3c-11.9-11.9-31.4-11.9-43.3,0c-3.1,3.1-8,3.1-11.1,0c-3.1-3.1-3.1-8,0-11.1
		c18-18,47.4-18,65.4,0c3.1,3.1,3.1,8,0,11.1C332.8,235.9,330.8,236.6,328.8,236.6z"/>
</g>
<path class="st8" d="M298,166.8v26.8c-46.1,0-75.4-28.3-75.4-28.3l13.9-13.9h66L298,166.8z"/>
<path class="st9" d="M126,183.9v-68.4c0-30.5,25-55.5,55.5-55.5h153C365,60,390,85,390,115.5v68.4c0,0-94.3-40.6-127-40.8
	C227.9,142.8,126,183.9,126,183.9z"/>
<g>
	<path class="st4" d="M232.3,60v89c14-3.6,26.4-6,34.9-5.9c5.9,0,13.7,1.4,22.6,3.6V60H232.3z"/>
</g>
<rect x="253.6" y="41.7" class="st10" width="14.9" height="18.3"/>
<path class="st11" d="M398.6,186.5c-77.7-77.7-203.7-77.7-281.4,0v33.4c77.7-77.7,203.7-77.7,281.4,0V186.5z"/>
<polygon class="st2" points="326.4,54.9 195,39.9 196.6,29.6 327,49.5 "/>
<polygon class="st11" points="195.6,52.9 327,39.9 325.4,29.6 195,49.5 "/>
<path class="st1" d="M258,317.6c-10.8,0-19.6-8.8-19.6-19.6c0-4.3,3.5-7.9,7.9-7.9c4.3,0,7.9,3.5,7.9,7.9c0,2.1,1.7,3.9,3.9,3.9
	c2.1,0,3.9-1.7,3.9-3.9c0-4.3,3.5-7.9,7.9-7.9c4.3,0,7.9,3.5,7.9,7.9C277.6,308.9,268.8,317.6,258,317.6z"/>
</svg>
