<?xml version="1.0" encoding="utf-8"?>
<!-- Generator: Adobe Illustrator 21.0.0, SVG Export Plug-In . SVG Version: 6.00 Build 0)  -->
<svg version="1.1" id="Layer_1" xmlns="http://www.w3.org/2000/svg" xmlns:xlink="http://www.w3.org/1999/xlink" x="0px" y="0px"
	 viewBox="0 0 512 512" style="enable-background:new 0 0 512 512;" xml:space="preserve">
<style type="text/css">
	.st0{fill:#E5AF6E;}
	.st1{fill:#F5EA78;}
	.st2{fill:#5D5D5D;}
	.st3{opacity:0.27;fill:#E5AF6E;enable-background:new    ;}
	.st4{fill:none;stroke:#F5EA78;stroke-width:20;stroke-linecap:round;stroke-miterlimit:10;}
	.st5{opacity:0.32;fill:#E5AF6E;enable-background:new    ;}
</style>
<path class="st0" d="M368.9,409.2h-53.3c25.9,0,46.9,21,46.9,46.9v56.8h53.3v-56.8C415.8,430.2,394.8,409.2,368.9,409.2z"/>
<path class="st1" d="M335.7,409.2h-20.1h-32.1h-0.1c0-0.5,0.1-1.1,0.1-1.6v-35c0,0,0,0,0,0c0.1,0,0.2,0,0.4-0.1c0,0,0.1,0,0.1,0
	c0.1,0,0.2,0,0.3-0.1c0.6-0.1,1.2-0.3,1.8-0.4c0.4-0.1,0.8-0.2,1.2-0.3c0.3-0.1,0.5-0.1,0.8-0.2c0.9-0.2,1.7-0.4,2.6-0.7
	c0.3-0.1,0.6-0.2,0.9-0.2c0.8-0.2,1.7-0.5,2.5-0.7c0.3-0.1,0.5-0.2,0.8-0.2c0.3-0.1,0.7-0.2,1-0.3c0.5-0.2,1.1-0.3,1.6-0.5
	c0.2-0.1,0.4-0.1,0.6-0.2c1.7-0.5,3.3-1.2,4.9-1.8c0.8-0.3,1.5-0.6,2.2-0.9c0.1,0,0.1-0.1,0.2-0.1c0.8-0.3,1.5-0.6,2.3-0.9
	c0.1,0,0.1,0,0.2-0.1c0.1,0,0.2-0.1,0.3-0.1c0.4-0.2,0.8-0.3,1.1-0.5c0.5-0.2,1-0.5,1.5-0.7c0.1-0.1,0.3-0.1,0.4-0.2
	c0.1,0,0.1-0.1,0.2-0.1c0.8-0.4,1.7-0.8,2.5-1.2c0.2-0.1,0.4-0.2,0.6-0.3c0,0,0.1,0,0.1,0c0.8-0.4,1.7-0.9,2.5-1.3
	c0.1-0.1,0.2-0.1,0.3-0.2c0,0,0,0,0.1,0c1.5-0.8,3-1.6,4.4-2.5c0.1-0.1,0.3-0.2,0.4-0.2c0.7-0.4,1.3-0.8,2-1.2
	c0.5-0.3,1-0.6,1.4-0.9c0.2-0.1,0.5-0.3,0.7-0.4c0,0,0.1,0,0.1-0.1c0,0,0,0,0,0h0.1c0.9-0.6,1.8-1.2,2.7-1.8
	c0.1-0.1,0.2-0.2,0.3-0.2c0.8-0.6,1.6-1.2,2.5-1.7c0.1-0.1,0.2-0.2,0.4-0.3c0.8-0.6,1.7-1.2,2.5-1.9c0.1-0.1,0.1-0.1,0.2-0.2
	c1.8-1.4,3.6-2.9,5.3-4.4c1.7-1.5,3.4-3,5.1-4.6c0-0.1,0.1-0.1,0.1-0.1c0.8-0.8,1.5-1.5,2.3-2.3c0.1-0.1,0.1-0.1,0.2-0.2
	c0.8-0.8,1.5-1.5,2.2-2.3c0,0,0.1-0.1,0.1-0.1c0.1-0.1,0.2-0.2,0.3-0.3c1-1.1,2-2.2,2.9-3.3c0.1-0.1,0.2-0.3,0.4-0.4
	c1-1.2,1.9-2.3,2.9-3.5c0.1-0.1,0.2-0.2,0.3-0.4c0.1-0.1,0.2-0.2,0.2-0.3c1.4-1.8,2.8-3.7,4.1-5.5c0,0,0,0,0,0c0,0,0,0,0.1-0.1
	c1.7-2.5,3.3-5,4.8-7.5c0.1-0.1,0.1-0.2,0.2-0.3c1.5-2.6,2.9-5.2,4.2-7.8c0-0.1,0.1-0.1,0.1-0.2c0.7-1.3,1.3-2.7,1.9-4
	c0-0.1,0-0.1,0.1-0.2c1.2-2.7,2.3-5.5,3.4-8.3c0-0.1,0.1-0.3,0.1-0.4c1-2.8,1.9-5.6,2.7-8.5c0-0.1,0.1-0.2,0.1-0.3
	c0.4-1.4,0.8-2.8,1.1-4.3c0-0.1,0.1-0.3,0.1-0.5c0.7-2.9,1.2-5.8,1.7-8.7c0-0.2,0.1-0.4,0.1-0.6c0.2-1.5,0.4-2.9,0.6-4.4
	c0-0.1,0-0.2,0-0.3c0.2-1.4,0.3-2.8,0.4-4.3c0-0.1,0-0.3,0-0.5c0.1-1.5,0.2-2.9,0.3-4.4c0-0.2,0-0.5,0-0.7c0-1.5,0.1-3,0.1-4.5l0,0
	v-69.3c0-1.5,0-2.9-0.1-4.3v-15.7c-0.1,0-0.2-1.4-0.3-3.8c-0.1-2.3-0.1-5.7-0.1-9.5c0-1.1,0-2.3,0-3.4v-1.5c0-1,0-2,0-3v0
	c0.1-14.6,0.3-31.3,0.3-31.3V82l-0.1,0V82l0,0v0.1l0,0V82l-14.9,9.3l14.9-9.3v0l-16.5,10.4l-4.3,2.7l-1.4,0.9v0l0,0l-33.5,21
	c-9.7-6.5-20.4-11.7-31.8-15.2c-1.6-0.5-3.3-1-4.9-1.4c-7.3-2-14.9-3.3-22.7-3.9c-0.8-0.1-1.6-0.1-2.3-0.2c-0.6,0-1.3-0.1-1.9-0.1
	c-1.7-0.1-3.5-0.1-5.3-0.1h-5.3c-0.3,0-0.6,0-1,0c-0.1,0-0.2,0-0.3,0c-0.8,0-1.7,0-2.5,0c-0.8,0-1.5,0-2.2,0.1c-0.3,0-0.7,0-1,0.1
	c-0.2,0-0.3,0-0.5,0c-0.7,0-1.4,0.1-2,0.1c0,0,0,0,0,0c-0.2,0-0.4,0-0.6,0c-0.4,0-0.9,0.1-1.3,0.1c-0.2,0-0.3,0-0.4,0
	c-0.2,0-0.5,0-0.7,0.1c-0.1,0-0.3,0-0.4,0c-0.7,0.1-1.3,0.1-2,0.2c-0.1,0-0.2,0-0.2,0c-0.2,0-0.5,0-0.7,0.1c-0.5,0.1-1,0.1-1.5,0.2
	c-0.1,0-0.2,0-0.4,0c-0.2,0-0.4,0.1-0.6,0.1c-0.7,0.1-1.3,0.2-2,0.3c-0.4,0.1-0.7,0.1-1.1,0.2c-1.4,0.2-2.8,0.5-4.2,0.8
	c-0.2,0-0.3,0.1-0.5,0.1c-1.4,0.3-2.9,0.6-4.3,1c-1.7,0.4-3.4,0.9-5.1,1.4c0.7-0.2,1.5-0.4,2.2-0.6c-0.9,0.2-1.8,0.5-2.7,0.8
	c0.2,0,0.3-0.1,0.5-0.1c-0.2,0-0.4,0.1-0.5,0.2c-0.7,0.2-1.3,0.4-2,0.6c0.6-0.2,1.1-0.4,1.7-0.5c-0.8,0.2-1.5,0.5-2.3,0.7
	c-0.4,0.1-0.7,0.2-1.1,0.4c0,0,0,0,0,0c-0.3,0.1-0.7,0.2-1,0.3c-0.2,0.1-0.4,0.2-0.7,0.2c-1.8,0.6-3.5,1.3-5.2,2
	c-0.3,0.1-0.6,0.2-0.9,0.4c-0.3,0.1-0.7,0.3-1,0.4c-0.3,0.1-0.6,0.2-0.9,0.4c-0.2,0.1-0.3,0.2-0.5,0.2c-0.2,0.1-0.5,0.2-0.7,0.3
	c-0.4,0.2-0.8,0.4-1.2,0.6c0,0,0,0,0,0c-0.1,0-0.2,0.1-0.3,0.1c-0.4,0.2-0.9,0.4-1.3,0.6c0.2-0.1,0.4-0.2,0.5-0.3
	c-0.5,0.2-1,0.5-1.5,0.7c-0.2,0.1-0.4,0.2-0.5,0.3c-0.7,0.3-1.4,0.7-2.1,1c-0.3,0.2-0.6,0.3-1,0.5c-0.9,0.5-1.9,1-2.8,1.5
	c-0.2,0.1-0.5,0.3-0.7,0.4c-0.6,0.3-1.1,0.6-1.7,1c-0.4,0.2-0.7,0.4-1.1,0.6c-0.2,0.1-0.4,0.2-0.6,0.4c-0.8,0.5-1.6,1-2.4,1.5
	c-0.6,0.4-1.2,0.7-1.8,1.1L129,81.2v0l-0.1,0v0.1l0,0l0,117.6l0,0l-0.2,51.2c0,3.6-0.3,7.3,0,10.8c1.8,19.5,8.9,37.5,18.3,53.4
	c0.1,0.1,0.2,0.3,0.2,0.4c0.6,1.1,1.3,2.1,2,3.2c0.2,0.3,0.3,0.5,0.5,0.8c0.8,1.2,1.6,2.5,2.5,3.7c0.1,0.1,0.1,0.2,0.2,0.2
	c1,1.4,2,2.8,3,4.1c9.1,11.8,20.2,21.9,32.8,29.8c3.1,1.9,6.2,3.7,9.5,5.4c0.1,0,0.1,0,0.2,0.1c0,0,0.1,0,0.1,0
	c0.9,0.5,1.9,0.9,2.8,1.4c0.1,0,0.2,0.1,0.2,0.1c0,0,0.1,0,0.1,0c0.3,0.1,0.6,0.3,0.9,0.4c0.7,0.3,1.4,0.6,2,0.9
	c0.1,0,0.1,0.1,0.2,0.1c2.1,0.9,4.3,1.8,6.5,2.6c1.1,0.4,2.1,0.8,3.2,1.2c0.1,0,0.2,0.1,0.2,0.1c0,0,0.1,0,0.1,0
	c0.9,0.3,1.9,0.6,2.8,0.9c0.2,0.1,0.5,0.1,0.7,0.2c0.9,0.2,1.7,0.5,2.6,0.7c0.3,0.1,0.5,0.2,0.8,0.2c0.4,0.1,0.9,0.2,1.3,0.3
	c0.4,0.1,0.8,0.2,1.2,0.3c0.1,0,0.1,0,0.2,0c0.2,0.1,0.4,0.1,0.6,0.1c1,0.2,2,0.5,2.9,0.7c0.1,0,0.1,0,0.1,0c0.1,0,0.2,0,0.3,0.1
	c0.3,0.1,0.6,0.1,0.9,0.2v35c0,0.5,0,1.1,0.1,1.6h-1.7h-84c-25.9,0-46.9,21-46.9,46.9v56.8h266.3h53.3h0v-56.8
	c0-24.2-18.4-44.2-42-46.7 M321.8,357.7c0,0,0.1-0.1,0.1-0.1c0.1,0,0.2-0.1,0.2-0.1C322,357.5,321.9,357.6,321.8,357.7z"/>
<path class="st2" d="M215.6,102.1c-0.6,0.2-1.1,0.4-1.7,0.6c0.4-0.1,0.7-0.2,1.1-0.4C215.2,102.3,215.4,102.2,215.6,102.1z"/>
<path class="st0" d="M383.4,176.4L383.4,176.4c0,1.4,0.1,2.9,0.1,4.3v0C383.5,179.3,383.5,177.9,383.4,176.4z"/>
<path class="st0" d="M383.1,144.1c0-15.3,0.3-35.8,0.3-35.8V82l0,0v26.3C383.4,108.4,383.1,128.8,383.1,144.1z"/>
<path class="st0" d="M383.4,160.8L383.4,160.8c-0.2,0-0.3-5.6-0.3-13.2C383.1,155.1,383.2,160.8,383.4,160.8z"/>
<path class="st0" d="M383.1,147.5c0-1.1,0-2.3,0-3.4C383.1,145.3,383.1,146.4,383.1,147.5z"/>
<g>
	<path class="st3" d="M280.6,373c-1.2,0.2-2.3,0.4-3.5,0.6c-0.2,0-0.5,0.1-0.7,0.1c-0.9,0.1-1.8,0.2-2.7,0.4c-0.3,0-0.7,0.1-1,0.1
		c-0.8,0.1-1.7,0.2-2.5,0.3c-0.4,0-0.7,0.1-1.1,0.1c-0.8,0.1-1.7,0.1-2.5,0.2c-0.3,0-0.7,0-1,0.1c-0.9,0-1.8,0.1-2.8,0.1
		c-0.2,0-0.5,0-0.7,0c-1.2,0-2.4,0.1-3.6,0.1h-5.3c-1.2,0-2.4,0-3.6-0.1c-0.2,0-0.5,0-0.8,0c-0.9,0-1.8-0.1-2.7-0.1
		c-0.3,0-0.7,0-1-0.1c-0.8-0.1-1.7-0.1-2.5-0.2c-0.4,0-0.7-0.1-1.1-0.1c-0.8-0.1-1.6-0.2-2.5-0.2c-0.3,0-0.7-0.1-1-0.1
		c-0.9-0.1-1.8-0.2-2.7-0.4c-0.2,0-0.5-0.1-0.7-0.1c-1-0.1-2-0.3-2.9-0.5c-1-0.2-1.9-0.4-2.8-0.5c0,0,0,0-0.1,0v21.1h54.4v-21.2
		c0,0,0,0,0,0C282.4,372.7,281.5,372.8,280.6,373z"/>
	<path class="st3" d="M383.4,176.4v-15.7c-0.2,0-0.3-5.6-0.3-13.2c0-1.1,0-2.3,0-3.4c0-15.3,0.3-35.8,0.3-35.8V82l-20.8,13.1
		l-1.4,0.9v12.4c0,0-0.7,52.4,0,52.4v15.7c0,1.4,0.1,2.9,0.1,4.3v9.4c0,17-1.9,32.6-5.2,46.7c-11,46.2-38.2,76.9-69.8,93.3
		c-0.2,0.1-0.4,0.2-0.6,0.3c-0.2,0.1-0.5,0.2-0.7,0.4c-0.4,0.2-0.7,0.4-1.1,0.5c-0.1,0-0.2,0.1-0.2,0.1c-15,7.4-30.9,11.5-46.4,12.7
		c-1,0.1-2.1,0.1-3.1,0.2c-0.5,0-1,0-1.5,0.1c-0.1,0-0.3,0-0.4,0c-0.5,0-1.1,0-1.6,0c-0.8,0-1.6,0-2.4,0H223
		c-24.8,0-47.8-7.3-67.1-19.9c-1.2-0.8-2.4-1.6-3.6-2.5c0.1,0.1,0.1,0.2,0.2,0.2l3,4.1v0c1.4,1.8,2.9,3.6,4.4,5.4c0,0,0,0,0,0
		c2.3,2.6,4.6,5.1,7.1,7.6c0,0,0,0,0,0c0.8,0.8,1.7,1.6,2.5,2.4c0.6,0.5,1.1,1,1.7,1.5c0.2,0.2,0.3,0.3,0.5,0.5
		c0.2,0.2,0.5,0.4,0.7,0.6c0.5,0.4,1,0.8,1.5,1.2c0.2,0.1,0.3,0.3,0.5,0.4c0.8,0.7,1.7,1.4,2.6,2.1c0.4,0.3,0.8,0.7,1.3,1
		c0.1,0.1,0.3,0.2,0.4,0.3c1,0.8,2,1.5,3,2.2c0.6,0.5,1.3,0.9,2,1.4c1.3,0.9,2.6,1.8,4,2.6c0.6,0.4,1.2,0.8,1.9,1.2
		c0.4,0.2,0.7,0.5,1.1,0.7c0.4,0.3,0.9,0.5,1.3,0.8c1.1,0.7,2.3,1.3,3.4,1.9c0.4,0.2,0.8,0.4,1.1,0.6c0.5,0.3,1,0.5,1.6,0.8
		c0.1,0,0.2,0.1,0.2,0.1c0.9,0.5,1.9,0.9,2.8,1.4c0.1,0.1,0.2,0.1,0.3,0.2c1,0.5,1.9,0.9,2.9,1.3c0.1,0,0.1,0.1,0.2,0.1
		c3.2,1.4,6.4,2.6,9.7,3.7c0.1,0,0.2,0.1,0.4,0.1c0.9,0.3,1.9,0.6,2.8,0.9c0.2,0.1,0.5,0.1,0.7,0.2c0.9,0.2,1.7,0.5,2.6,0.7
		c0.3,0.1,0.5,0.2,0.8,0.2c0.8,0.2,1.7,0.5,2.6,0.7c0.2,0.1,0.5,0.1,0.8,0.2c1,0.2,1.9,0.5,2.9,0.7c0.1,0,0.3,0.1,0.4,0.1
		c0.3,0.1,0.6,0.1,0.8,0.2c0.1,0,0.1,0,0.2,0c0,0,0,0,0,0c0,0,0,0,0.1,0c0.9,0.2,1.9,0.4,2.8,0.5c1,0.2,2,0.3,2.9,0.5
		c0.2,0,0.5,0.1,0.7,0.1c0.9,0.1,1.8,0.2,2.7,0.4c0.3,0,0.7,0.1,1,0.1c0.8,0.1,1.6,0.2,2.5,0.2c0.4,0,0.7,0.1,1.1,0.1
		c0.8,0.1,1.6,0.1,2.5,0.2c0.3,0,0.7,0,1,0.1c0.9,0,1.8,0.1,2.7,0.1c0.2,0,0.5,0,0.8,0c1.2,0,2.4,0.1,3.6,0.1h5.3
		c1.2,0,2.4,0,3.6-0.1c0.2,0,0.5,0,0.7,0c0.9,0,1.9-0.1,2.8-0.1c0.3,0,0.7,0,1-0.1c0.8-0.1,1.7-0.1,2.5-0.2c0.4,0,0.7-0.1,1.1-0.1
		c0.8-0.1,1.7-0.2,2.5-0.3c0.3,0,0.7-0.1,1-0.1c0.9-0.1,1.8-0.2,2.7-0.4c0.2,0,0.5-0.1,0.7-0.1c1.2-0.2,2.3-0.4,3.5-0.6
		c0.9-0.2,1.8-0.3,2.7-0.5c0,0,0,0,0,0c0,0,0.1,0,0.2,0c0.2,0,0.4-0.1,0.5-0.1c0.1,0,0.2,0,0.3-0.1c1-0.2,2-0.4,3-0.7
		c0.3-0.1,0.5-0.1,0.8-0.2c0.9-0.2,1.7-0.4,2.6-0.7c0.3-0.1,0.6-0.2,0.9-0.2c0.8-0.2,1.7-0.5,2.5-0.7c0.3-0.1,0.5-0.2,0.8-0.2
		c0.9-0.3,1.8-0.5,2.7-0.8c0.2-0.1,0.4-0.1,0.6-0.2c1.6-0.6,3.3-1.1,4.9-1.8c0.8-0.3,1.5-0.6,2.2-0.9c0.1,0,0.1-0.1,0.2-0.1
		c0.8-0.3,1.6-0.7,2.3-1c0.1-0.1,0.3-0.1,0.4-0.2c0.9-0.4,1.8-0.8,2.6-1.2c0.2-0.1,0.4-0.2,0.6-0.3c0.8-0.4,1.7-0.8,2.5-1.2
		c0.2-0.1,0.4-0.2,0.6-0.3c0.9-0.4,1.8-0.9,2.6-1.3c0.1-0.1,0.2-0.1,0.4-0.2c0.6-0.3,1.1-0.6,1.7-0.9c0.6-0.3,1.1-0.6,1.7-1
		c0.4-0.2,0.8-0.4,1.1-0.6c0.7-0.4,1.5-0.9,2.2-1.3c0.5-0.3,1-0.6,1.4-0.9c0.2-0.2,0.5-0.3,0.8-0.5c0,0,0.1,0,0.1-0.1
		c0.9-0.6,1.8-1.2,2.7-1.8c0.1-0.1,0.2-0.2,0.3-0.2c0.8-0.6,1.6-1.2,2.5-1.8c0.1-0.1,0.2-0.2,0.4-0.3c0.8-0.6,1.7-1.2,2.5-1.9
		c0.1,0,0.1-0.1,0.2-0.2c3.6-2.8,7.1-5.8,10.4-9c0,0,0.1-0.1,0.1-0.1c0.8-0.7,1.5-1.5,2.3-2.3c0.1-0.1,0.1-0.1,0.2-0.2
		c0.8-0.8,1.5-1.6,2.2-2.3c0,0,0.1-0.1,0.1-0.1c0.1-0.2,0.3-0.3,0.5-0.6c0.1-0.1,0.2-0.2,0.3-0.3c1.4-1.7,3.8-4.6,5.9-7.3
		c1.9-2.5,3.7-4.7,4.2-5.4c0,0,0.1-0.1,0.1-0.1c0,0,0.1-0.1,0.1-0.1c0,0,0,0,0,0v0c0.9-1.3,1.7-2.5,2.6-3.9c0.3-0.5,0.6-1,1-1.5
		c0.1-0.2,0.2-0.4,0.4-0.6c0.4-0.6,0.7-1.2,1.1-1.8c0,0,0,0,0,0c0.4-0.7,0.8-1.3,1.1-2c0.8-1.3,1.5-2.7,2.2-4.1
		c0.3-0.7,0.7-1.4,1-2.1c0.3-0.7,0.7-1.4,1-2.1c0.3-0.7,0.7-1.4,1-2.1c0.6-1.4,1.2-2.8,1.8-4.3c0.3-0.7,0.6-1.4,0.8-2.2
		c0.3-0.7,0.5-1.5,0.8-2.2c0.3-0.9,0.7-1.8,1-2.8c0.9-2.8,1.8-5.6,2.5-8.4c1-3.8,1.8-7.7,2.4-11.6c0.1-0.8,0.2-1.6,0.3-2.4
		c0.3-2.4,0.6-4.8,0.8-7.2c0-0.6,0.1-1.3,0.1-1.9c0-0.3,0-0.5,0.1-0.8c0-0.7,0.1-1.4,0.1-2.1c0-0.8,0.1-1.5,0.1-2.3v-0.6
		c0-0.7,0-1.3,0-2v-69.3C383.5,179.3,383.5,177.9,383.4,176.4z"/>
</g>
<path class="st0" d="M211.2,207.1v7.8c0,4.3-3.5,7.8-7.8,7.8c-4.3,0-7.8-3.5-7.8-7.8v-7.8c0-4.3,3.5-7.8,7.8-7.8
	C207.7,199.3,211.2,202.8,211.2,207.1z"/>
<path class="st0" d="M312.1,207.1v7.8c0,4.3-3.5,7.8-7.8,7.8c-4.3,0-7.8-3.5-7.8-7.8v-7.8c0-4.3,3.5-7.8,7.8-7.8
	C308.5,199.3,312.1,202.8,312.1,207.1z"/>
<path class="st0" d="M262.4,266.9c0,7.5-3,14.3-7.8,19.3c-5,5.2-12.1,8.4-19.9,8.4c-15.3,0-27.7-12.4-27.7-27.7
	c0-4.3,3.5-7.8,7.8-7.8c4.3,0,7.8,3.5,7.8,7.8c0,6.6,5.4,12,12,12c6.6,0,12-5.4,12-12c0-4.3,3.5-7.8,7.8-7.8
	C258.9,259.1,262.4,262.6,262.4,266.9z"/>
<path class="st0" d="M302.1,266.9c0,15.3-12.4,27.7-27.7,27.7c-7.8,0-14.8-3.2-19.8-8.4c-4.8-5-7.8-11.8-7.8-19.3
	c0-4.3,3.5-7.8,7.8-7.8c4.3,0,7.8,3.5,7.8,7.8c0,6.6,5.4,12,12,12s12-5.4,12-12c0-4.3,3.5-7.8,7.8-7.8S302.1,262.6,302.1,266.9z"/>
<path class="st0" d="M273.1,231.7l-15.5,20.6c-1.5,2-4.6,2-6.1,0l-15.5-20.6c-1.3-1.8-0.1-4.3,2.1-4.3H271
	C273.2,227.4,274.5,230,273.1,231.7z"/>
<path class="st4" d="M335.7,439.5V391c0,0-4.2-31,31-31s30.8,30.8,30.8,30.8"/>
<path class="st5" d="M368.9,409.2h-53.3c25.9,0,46.9,21,46.9,46.9v56.8h53.3v-56.8C415.8,430.2,394.8,409.2,368.9,409.2z"/>
</svg>
