<?xml version="1.0" encoding="utf-8"?>
<!-- Generator: Adobe Illustrator 21.0.0, SVG Export Plug-In . SVG Version: 6.00 Build 0)  -->
<svg version="1.1" id="Layer_1" xmlns="http://www.w3.org/2000/svg" xmlns:xlink="http://www.w3.org/1999/xlink" x="0px" y="0px"
	 viewBox="0 0 512 512" style="enable-background:new 0 0 512 512;" xml:space="preserve">
<style type="text/css">
	.st0{fill:#DBDBDB;}
	.st1{fill:#B2B2B2;}
	.st2{fill:#333232;}
	.st3{fill:#5D5D5D;}
	.st4{fill:#F7D7D5;}
	.st5{fill:#DD8E92;}
	.st6{opacity:0.54;}
	.st7{opacity:0.16;enable-background:new    ;}
	.st8{opacity:0.21;enable-background:new    ;}
</style>
<polygon class="st0" points="318,393.7 351.6,345.8 380.6,365.4 341,420.5 "/>
<rect x="351.2" y="331.5" transform="matrix(0.5595 -0.8288 0.8288 0.5595 -126.0346 460.8506)" class="st1" width="38.8" height="35"/>
<path class="st2" d="M408.2,324.6l-29-19.6l44.9-66.5c0.9-1.3,2.7-1.7,4-0.8l24.2,16.4c1.3,0.9,1.7,2.7,0.8,4L408.2,324.6z"/>
<path class="st3" d="M399.1,344.8l-36.1-24.4c-3.8-2.6-4.8-7.8-2.3-11.6l5.4-8c2.6-3.8,7.8-4.8,11.6-2.3l36.1,24.4
	c3.8,2.6,4.8,7.8,2.3,11.6l-5.4,8C408.1,346.4,402.9,347.4,399.1,344.8z"/>
<polygon points="406.8,264.9 435.1,284.5 443.9,271.5 415.6,251.9 "/>
<polygon points="393.5,283.9 422.3,303.5 431.1,290.5 402.3,270.9 "/>
<g>
	<path class="st3" d="M140.8,23.3C162,7.3,189.5,0,217.9,0l0,0c77.9,0,141.6,63.7,141.6,141.6v72.8c0,77.9-63.7,141.6-141.6,141.6
		l0,0c-77.9,0-141.6-63.7-138.5-137.4v-72.8c-0.9-23.4,3.7-45.4,12.5-64.8C91.9,81,108.4,47.7,140.8,23.3z"/>
	<path class="st3" d="M250.4,373.3h33.5c50.5,0,91.5,54.6,91.5,105.1V512H58.5v-47.2c0-50.5,41-91.5,91.5-91.5h38.6H250.4z"/>
</g>
<g>
	<rect x="188.5" y="349.6" class="st4" width="61.8" height="53.7"/>
	<path class="st4" d="M318.7,209.9V183c0-50.5-41-91.5-91.5-91.5h-19.8c-50.5,0-91.5,41-91.5,91.5v26.9l100.6,76.3L318.7,209.9z"/>
</g>
<g>
	<path class="st5" d="M151.9,195.2c-4.3,0-7.9-3.5-7.9-7.9v-19.8c0-4.3,3.5-7.9,7.9-7.9s7.9,3.5,7.9,7.9v19.8
		C159.8,191.7,156.3,195.2,151.9,195.2z"/>
	<path class="st5" d="M280.7,195.2c-4.3,0-7.9-3.5-7.9-7.9v-19.8c0-4.3,3.5-7.9,7.9-7.9c4.3,0,7.9,3.5,7.9,7.9v19.8
		C288.5,191.7,285,195.2,280.7,195.2z"/>
	<path class="st5" d="M227.2,216.2h-20.8c-2.5,0-4.8-1.1-6.2-3.1c-1.5-2-2-4.5-1.3-6.8l10.6-38.5c1.2-4.2,5.5-6.6,9.7-5.5
		c4.2,1.2,6.6,5.5,5.5,9.7l-7.9,28.6h10.5c4.3,0,7.9,3.5,7.9,7.9C235.1,212.7,231.5,216.2,227.2,216.2z"/>
</g>
<path class="st4" d="M308.9,377.7c-7.9-2.9-16.2-4.5-24.8-4.5h-33.5h-61.8h-38.6c-8.8,0-17.4,1.3-25.4,3.6l95.3,94.3L308.9,377.7z"
	/>
<path class="st2" d="M258.2,228.8c-24.7,8.6-51.5,8.6-76.2,0L79.5,194.3v24.3C76.3,292.3,140.1,356,217.9,356l0,0
	c77.9,0,141.6-63.7,141.6-141.6v-20.8L258.2,228.8z"/>
<g class="st6">
	<path d="M220.1,274.9c-9.2,0-18.4-1.5-27.1-4.6l-65.4-22.8c-4.1-1.4-6.3-5.9-4.8-10c1.4-4.1,5.9-6.3,10-4.8l65.4,22.8
		c14.2,4.9,29.7,4.9,43.9,0l65.4-22.8c4.1-1.4,8.6,0.7,10,4.8c1.4,4.1-0.7,8.6-4.8,10l-65.4,22.8
		C238.5,273.4,229.3,274.9,220.1,274.9z"/>
</g>
<path class="st7" d="M297.8,24.8c15.7,22.8,24.8,50.3,24.8,79.9v72.8c0,77.9-63.7,141.6-141.6,141.6l0,0c-29.5,0-57-9.2-79.6-24.6
	c24.8,36.6,67.9,61.5,116.5,61.5l0,0c77.9,0,141.6-63.7,141.6-141.6v-72.8C359.6,93.3,335,50.4,297.8,24.8z"/>
<path class="st8" d="M283.7,373.3h-33.5h-11.9c50.5,0,91.5,54.6,91.5,105.1V512h45.4v-33.6C375.2,427.8,334.3,373.3,283.7,373.3z"/>
</svg>
