<?xml version="1.0" encoding="utf-8"?>
<!-- Generator: Adobe Illustrator 21.0.0, SVG Export Plug-In . SVG Version: 6.00 Build 0)  -->
<svg version="1.1" id="Layer_1" xmlns="http://www.w3.org/2000/svg" xmlns:xlink="http://www.w3.org/1999/xlink" x="0px" y="0px"
	 viewBox="0 0 512 512" style="enable-background:new 0 0 512 512;" xml:space="preserve">
<style type="text/css">
	.st0{fill:#C2B0E2;}
	.st1{fill:#AF8FE5;}
	.st2{fill:#F7D7D5;}
	.st3{fill:#F4A2A3;}
	.st4{fill:#FFFFFF;}
	.st5{fill:#DD8E92;}
	.st6{opacity:0.43;fill:#DD8E92;enable-background:new    ;}
	.st7{fill:#E0656B;}
</style>
<path class="st0" d="M287.5,406.1h83.6c26.2,0,47.4,21.2,47.4,47.4V512h-323v-58.5c0-26.2,21.2-47.4,47.4-47.4h84.2L287.5,406.1
	L287.5,406.1z"/>
<g>
	<path class="st1" d="M371.1,406.1h-63.3c26.2,0,47.4,21.2,47.4,47.4V512h63.3v-58.5C418.5,427.3,397.3,406.1,371.1,406.1z"/>
	<rect x="140.1" y="447.7" class="st1" width="58.9" height="28.1"/>
</g>
<g>
	<path class="st2" d="M285.5,348.4v66.9c0,15.3-12.4,27.6-27.6,27.6l0,0c-15.3,0-27.6-12.4-27.6-27.6v-66.9H285.5L285.5,348.4z"/>
	<path class="st2" d="M128.1,85v184.6c0,15.3,2.8,29.9,7.8,43.5c0,0,10.7,26.4,29.4,45.7c22.5,23.2,54.4,37,89,37h5.3
		c69.4,0,126.2-56.8,126.2-126.2v-182L128.1,85z"/>
</g>
<path class="st3" d="M357,227.1c-7.3,0-13.2,5.9-13.2,13.2v44c0,7.5-6.1,13.7-13.7,13.7c-7.5,0-13.7-6.1-13.7-13.7v-9
	c0-11-8.9-19.9-19.9-19.9h-78.8c-11,0-19.9,8.9-19.9,19.9v9c0,7.5-6.1,13.7-13.7,13.7l0,0c-7.6,0-13.7-6.1-13.7-13.7v-44
	c0-7.3-5.9-13.2-13.2-13.2h-29.1v42.5c0,15.3,2.8,29.9,7.8,43.5c0,0,10.7,26.4,29.4,45.7c22.5,23.2,54.4,37,89,37h5.3
	c69.4,0,126.2-56.8,126.2-126.2v-42.5L357,227.1L357,227.1L357,227.1z"/>
<path class="st4" d="M294.3,284.3c0,20.1-16.3,36.4-36.4,36.4s-36.4-16.3-36.4-36.4L294.3,284.3L294.3,284.3z"/>
<g>
	<path class="st5" d="M210.7,226.5c-4.4,0-7.9-3.5-7.9-7.9v-19.8c0-4.4,3.5-7.9,7.9-7.9s7.9,3.5,7.9,7.9v19.8
		C218.6,222.9,215.1,226.5,210.7,226.5z"/>
	<path class="st5" d="M303.2,226.5c-4.4,0-7.9-3.5-7.9-7.9v-19.8c0-4.4,3.5-7.9,7.9-7.9s7.9,3.5,7.9,7.9v19.8
		C311.2,222.9,307.6,226.5,303.2,226.5z"/>
</g>
<path class="st3" d="M215.6,138.5c0,0,37.4,34,92.5,35.9v-35.8L215.6,138.5z"/>
<g>
	<path class="st5" d="M265.8,240.1h-18.2c-2.3,0-4.6-1-6.1-2.8c-1.5-1.8-2.1-4.2-1.7-6.5l6.9-38.4c0.8-4.3,4.9-7.2,9.2-6.4
		c4.3,0.8,7.2,4.9,6.4,9.2l-5.2,29.1h8.7c4.4,0,7.9,3.5,7.9,7.9S270.1,240.1,265.8,240.1z"/>
	<path class="st6" d="M357.4,87.3v164.2c0,69.4-56.8,126.2-126.2,126.2h-5.3c-17.4,0-34.2-3.5-49.4-9.9c21.5,17.7,49.4,28,79.3,28
		h5.3c69.4,0,126.2-56.8,126.2-126.2v-182L357.4,87.3z"/>
</g>
<path class="st0" d="M195.8,8.1C214.7,3,234.9,0,256,0c103,0,186.4,68.2,186.4,152.3c0,42.9-21.7,81.7-56.7,109.4v-90.9
	c0-17-13.8-30.8-30.8-30.8H158.7c-17,0-30.8,13.8-30.8,30.8v92.2C92,235.2,69.6,195.9,69.6,152.3c0-43.7,22.5-83.1,58.6-110.9
	C128.2,41.4,148.9,20.8,195.8,8.1z"/>
<path class="st1" d="M257.6,0c-7.5,0-14.9,0.4-22.2,1.1V140H273V0.5C267.9,0.2,262.8,0,257.6,0z"/>
<path class="st7" d="M359.7,111.5H216.5h-57.2h-7.7c-28.3,0-51.2,22.9-51.2,51.2v73.4c7.9,9.8,17.2,18.8,27.6,26.8v-92.2
	c0-17,13.8-30.8,30.8-30.8h196.2c17,0,30.8,13.8,30.8,30.8v90.9c9.4-7.5,17.9-15.7,25.2-24.7v-74.2
	C410.9,134.4,388,111.5,359.7,111.5z"/>
</svg>
