<?xml version="1.0" encoding="utf-8"?>
<!-- Generator: Adobe Illustrator 21.0.0, SVG Export Plug-In . SVG Version: 6.00 Build 0)  -->
<svg version="1.1" id="Layer_1" xmlns="http://www.w3.org/2000/svg" xmlns:xlink="http://www.w3.org/1999/xlink" x="0px" y="0px"
	 viewBox="0 0 512 512" style="enable-background:new 0 0 512 512;" xml:space="preserve">
<style type="text/css">
	.st0{fill:#9DBF8C;}
	.st1{opacity:0.35;fill:#7D966E;enable-background:new    ;}
	.st2{fill:#7D966E;}
	.st3{fill:#F9C3C2;}
	.st4{opacity:0.37;fill:#DD8E92;enable-background:new    ;}
	.st5{fill:#DD8E92;}
	.st6{opacity:0.19;fill:#DD8E92;enable-background:new    ;}
	.st7{fill:#FFFFFF;}
	.st8{opacity:0.31;fill:#7D966E;enable-background:new    ;}
	.st9{fill:#E0656B;}
</style>
<path class="st0" d="M287.4,365.6h33.7c50.9,0,92.2,41.6,92.2,93V512H93.9v-53.4c0-51.4,41.3-93,92.2-93H225L287.4,365.6
	L287.4,365.6z"/>
<g>
	<path class="st1" d="M371.9,380.6c9.7,14.7,15.4,32.4,15.4,51.4v27c0,14.6-11.8,26.4-26.4,26.4H94.4V512h319.4v-53.4
		C413.9,425.9,397.2,397.2,371.9,380.6z"/>
	<path class="st2" d="M314.1,365.7v20c0,32.2-25.9,58.3-57.9,58.3l0,0c-32,0-57.9-26.1-57.9-58.3v-20H314.1z"/>
</g>
<path class="st3" d="M287.4,332.4v53.1c0,17.2-14,31.2-31.2,31.2l0,0c-17.2,0-31.2-14-31.2-31.2V342L287.4,332.4z"/>
<g>
	<path class="st2" d="M163.9,511.8v-38c0-4.4,3.5-7.9,7.9-7.9s7.9,3.5,7.9,7.9v38H163.9z"/>
	<path class="st2" d="M322.7,511.8v-38c0-4.4,3.5-7.9,7.9-7.9s7.9,3.5,7.9,7.9v38H322.7z"/>
	<path class="st2" d="M146.4,438c25.8-11.7,8.4-27.1,15.4-37.2s1-23.8-13.1-25.8h-3.2c-16.7,8.2-30.5,21.4-39.6,37.6l1.6,4
		C107.6,416.6,120.6,449.7,146.4,438z"/>
	<path class="st2" d="M368.5,427.6c0,0-8.4,8-6.7,16.4s-8.7,17.7,2,29.1c10.7,11.4,47.6,12.1,37.5-9.7
		C391.2,441.7,382.5,421.6,368.5,427.6z"/>
</g>
<g>
	<rect x="225.1" y="353" class="st4" width="62" height="30"/>
	<path class="st5" d="M391.9,267.5c20.6,0,37.2-16.7,37.2-37.2S412.5,193,391.9,193H120.1c-20.6,0-37.2,16.7-37.2,37.2
		s16.7,37.2,37.2,37.2H391.9z"/>
</g>
<path class="st3" d="M121.6,139.6v99v61c0,36.9,29.9,66.7,66.7,66.7h136.2c36.8,0,66.6-29.8,66.7-66.5c0.1-32.5,0.1-64.7-0.4-63.1
	v-97.2L121.6,139.6L121.6,139.6z"/>
<g>
	<path class="st6" d="M391.5,236.7v-97.2h-26.8v70.3c0.5-1.7,0.5,30.6,0.4,63.1c-0.1,36.8-30,66.5-66.7,66.5H162.1
		c-11.5,0-22.4-2.9-31.9-8.1c11.3,20.8,33.3,34.9,58.7,34.9h136.2c36.8,0,66.6-29.8,66.7-66.5C392,267.3,392,235.1,391.5,236.7z"/>
	<path class="st4" d="M270.7,207.2v16.3c0,8-6.5,14.4-14.4,14.4l0,0c-8,0-14.4-6.5-14.4-14.4v-16.3H270.7z"/>
	<path class="st5" d="M206.6,217.5c-4.4,0-7.9-3.5-7.9-7.9v-18.9c0-4.4,3.5-7.9,7.9-7.9s7.9,3.5,7.9,7.9v18.9
		C214.5,214,211,217.5,206.6,217.5z"/>
	<path class="st5" d="M222.6,178c-2,0-4-0.8-5.6-2.3c-5.7-5.7-15-5.7-20.7,0c-3.1,3.1-8.1,3.1-11.2,0c-3.1-3.1-3.1-8.1,0-11.2
		c11.9-11.9,31.2-11.9,43,0c3.1,3.1,3.1,8.1,0,11.2C226.6,177.2,224.6,178,222.6,178z"/>
	<path class="st5" d="M307.3,217.5c-4.4,0-7.9-3.5-7.9-7.9v-18.9c0-4.4,3.5-7.9,7.9-7.9s7.9,3.5,7.9,7.9v18.9
		C315.1,214,311.6,217.5,307.3,217.5z"/>
	<path class="st5" d="M323.2,178c-2,0-4-0.8-5.6-2.3c-5.7-5.7-15-5.7-20.7,0c-3.1,3.1-8.1,3.1-11.2,0c-3.1-3.1-3.1-8.1,0-11.2
		c11.9-11.9,31.2-11.9,43,0c3.1,3.1,3.1,8.1,0,11.2C327.2,177.2,325.2,178,323.2,178z"/>
</g>
<path class="st7" d="M298.6,264.4c0,23.4-19,42.4-42.4,42.4s-42.4-19-42.4-42.4H298.6L298.6,264.4z"/>
<path class="st0" d="M313.9,143.8h-208c-8.7,0-15.9-7.2-15.9-15.9s7.2-15.9,15.9-15.9h14.6c4.1-23.9,13.6-46.4,29.4-63.4
	c10.4-11.2,27.7-26.9,48.9-37C215.4,3.7,234.2,0,253.8,0C320.5,0,376,48.4,387,112h14.6c8.7,0,15.9,7.2,15.9,15.9
	s-7.2,15.9-15.9,15.9h-27.7L313.9,143.8L313.9,143.8z"/>
<path class="st8" d="M402.5,112h-14.6C376.9,48.4,321.4,0,254.7,0c-6.9,0-13.7,0.5-20.4,1.4C292.1,9.8,338.1,54.7,347.9,112h14.6
	c8.7,0,15.9,7.2,15.9,15.9s-7.2,15.9-15.9,15.9h12.2h27.7c8.7,0,15.9-7.2,15.9-15.9C418.4,119.2,411.2,112,402.5,112z"/>
<path class="st5" d="M257.6,345.8c-4.4,0-7.9-3.5-7.9-7.9v-5.1c0-4.4,3.5-7.9,7.9-7.9c4.4,0,7.9,3.5,7.9,7.9v5.1
	C265.4,342.3,261.9,345.8,257.6,345.8z"/>
<path class="st2" d="M371.4,67.6H136.7c-4.7,8.2-8.5,17.1-11.3,26.4h257.7C380.2,84.7,376.2,75.9,371.4,67.6z"/>
<g>
	<path class="st9" d="M181.9,231.6h-32.5c-4.4,0-7.9-3.5-7.9-7.9s3.5-7.9,7.9-7.9h32.5c4.4,0,7.9,3.5,7.9,7.9
		S186.3,231.6,181.9,231.6z"/>
	<path class="st9" d="M181.9,257.3h-32.5c-4.4,0-7.9-3.5-7.9-7.9s3.5-7.9,7.9-7.9h32.5c4.4,0,7.9,3.5,7.9,7.9
		S186.3,257.3,181.9,257.3z"/>
	<path class="st9" d="M363.1,231.6h-32.5c-4.4,0-7.9-3.5-7.9-7.9s3.5-7.9,7.9-7.9h32.5c4.4,0,7.9,3.5,7.9,7.9
		S367.5,231.6,363.1,231.6z"/>
	<path class="st9" d="M363.1,257.3h-32.5c-4.4,0-7.9-3.5-7.9-7.9s3.5-7.9,7.9-7.9h32.5c4.4,0,7.9,3.5,7.9,7.9
		S367.5,257.3,363.1,257.3z"/>
</g>
<path class="st2" d="M251.7,34.7c25.3,12.4,26.9-13.5,51.2,2.2s31.2-8.1,31.2-8.1l0.7-1C315.1,12.8,291.2,3,265.1,0.6L264,0.8
	C264,0.8,226.3,22.3,251.7,34.7z"/>
<g>
	<path class="st5" d="M256.2,245.8c-12.3,0-22.3-10-22.3-22.3v-16.3c0-4.4,3.5-7.9,7.9-7.9s7.9,3.5,7.9,7.9v16.3
		c0,3.6,2.9,6.6,6.6,6.6c3.6,0,6.6-2.9,6.6-6.6v-16.3c0-4.4,3.5-7.9,7.9-7.9s7.9,3.5,7.9,7.9v16.3
		C278.6,235.7,268.6,245.8,256.2,245.8z"/>
	<path class="st5" d="M261.6,285.6c0-4.4-3.5-7.9-7.9-7.9h-34.2c-1.2,0-2.3,0.3-3.3,0.7c2,5.7,5.1,10.8,9.2,15h28.3
		C258.1,293.5,261.6,289.9,261.6,285.6z"/>
</g>
</svg>
