<svg xmlns="http://www.w3.org/2000/svg" viewBox="0 0 4.85 15.22"><defs><style>.cls-1{fill:#fff;}.cls-2{fill:#20b6d4;}</style></defs><title>TermoHigh</title><g id="Laag_2" data-name="Laag 2"><g id="Laag_1-2" data-name="Laag 1"><path class="cls-1" d="M3.87,10.85V9.64h.57V9.07H3.87V8.51h.57V7.94H3.87V7.37h.57V6.81H3.87V6.24h.57V5.67H3.87V5.11h.57V4.54H3.87V4h.57V3.41H3.87V2.84h.57V2.27H3.87V1.45A1.45,1.45,0,1,0,1,1.45v9.4a2.43,2.43,0,1,0,2.89,0ZM2.43,14A1.16,1.16,0,1,1,3.59,12.8,1.16,1.16,0,0,1,2.43,14Z"/><path class="cls-2" d="M1.81,12.8V4c0-.59.27-1.07.61-1.07S3,3.41,3,4v8.8"/></g></g></svg>