<svg xmlns="http://www.w3.org/2000/svg" viewBox="0 0 118.67 372.17"><defs><style>.cls-1{fill:#fff;}.cls-2{fill:#20b6d4;}</style></defs><title>Termo</title><g id="Laag_2" data-name="Laag 2"><g id="Laag_1-2" data-name="Laag 1"><path class="cls-1" d="M94.67,265.17V235.72h13.86V221.86H94.67V208h13.86V194.14H94.67V180.28h13.86V166.42H94.67V152.56h13.86V138.7H94.67V124.84h13.86V111H94.67V97.11h13.86V83.25H94.67V69.39h13.86V55.53H94.67V35.34a35.34,35.34,0,1,0-70.67,0V265.17a59.34,59.34,0,1,0,70.67,0ZM59.33,341.38A28.38,28.38,0,1,1,87.72,313,28.38,28.38,0,0,1,59.33,341.38Z"/><path class="cls-2" d="M59.33,279.67A33.33,33.33,0,1,0,92.67,313,33.34,33.34,0,0,0,59.33,279.67Z"/><path class="cls-2" d="M44.33,313V190.18a15,15,0,0,1,30,0V313"/></g></g></svg>