<?xml version="1.0" encoding="utf-8"?>
<!-- Generator: Adobe Illustrator 21.0.0, SVG Export Plug-In . SVG Version: 6.00 Build 0)  -->
<svg version="1.1" id="Laag_1" xmlns="http://www.w3.org/2000/svg" xmlns:xlink="http://www.w3.org/1999/xlink" x="0px" y="0px"
	 viewBox="0 0 841.9 363.9" style="enable-background:new 0 0 841.9 363.9;" xml:space="preserve">
<style type="text/css">
	.st0{fill:#EEEAD5;}
</style>
<path class="st0" d="M225.2,93.8c0,0,298.9,21.3,380.4,5.9c0,0,37.8-107.5,139.4-98.1s111.1,137,65,179.6c0,0,88,106.4-28.4,170.1
	c-99.2,54.3-174.9-85.1-174.9-85.1s-267-5.9-381.6,2.4c0,0-34.3,67.3-74.4,87.4S9,352.5,1.9,267.5c0,0-10.6-48.3,33.1-85
	c0,0-59.1-61.5-23.6-121.8s100.4-73.2,140.6-49.6S225.2,79.6,225.2,93.8z"/>
</svg>
