<?xml version="1.0" encoding="utf-8"?>
<!-- Generator: Adobe Illustrator 21.0.0, SVG Export Plug-In . SVG Version: 6.00 Build 0)  -->
<svg version="1.1" id="Layer_1" xmlns="http://www.w3.org/2000/svg" xmlns:xlink="http://www.w3.org/1999/xlink" x="0px" y="0px"
	 viewBox="0 0 512 512" style="enable-background:new 0 0 512 512;" xml:space="preserve">
<style type="text/css">
	.st0{fill:#7B913B;}
	.st1{fill:#EFE41B;}
	.st2{fill:#BD9C71;}
	.st3{opacity:0.17;fill:#5D5D5D;enable-background:new    ;}
	.st4{fill:#775F45;}
	.st5{opacity:0.13;fill:#5D5D5D;enable-background:new    ;}
	.st6{fill:#FFFFFF;}
	.st7{fill:#B1DEE0;}
</style>
<g>
	<path class="st0" d="M381.9,402.4c-3.6-4-7.4-7.6-11.5-10.9c0.1,38.1,0.4,120.3,0.6,120.5H139.8V385.6c-26.5,16-44.1,45-44.1,78.2
		V512h316.2v-34.6C411.8,427.5,381.9,402.4,381.9,402.4z"/>
	<path class="st1" d="M371,511.9c-0.2-0.1-0.5-82.4-0.6-120.5c-14.3-11.7-31.5-19-49.9-19h-33.4h-61.7h-38.5
		c-17.3,0-33.4,4.8-47.2,13.1v126.3H371z"/>
</g>
<path class="st2" d="M287.1,343.8v58.7c0,17-13.8,30.9-30.9,30.9l0,0c-17,0-30.9-13.8-30.9-30.9v-58.7H287.1z"/>
<rect x="225.3" y="343.7" class="st3" width="61.5" height="21.4"/>
<path class="st4" d="M397.1,248.2c21.4,0,38.7-17.3,38.7-38.7s-17.3-38.7-38.7-38.7H114.9c-21.4,0-38.7,17.3-38.7,38.7
	s17.3,38.7,38.7,38.7H397.1z"/>
<path class="st2" d="M134.4,70.1C156.9,27,203.4,0,254.7,0l0,0c77.7,0,141.3,63.6,141.3,141.3v72.6c0,77.7-63.6,141.3-141.3,141.3
	l0,0c-77.7,0-141.3-63.6-138.2-137.1v-72.6C116.5,145.5,114.6,108,134.4,70.1z"/>
<path class="st5" d="M339.1,28.1c17.6,23.6,28.1,52.8,28.1,84.3V185c0,77.7-63.6,141.3-141.3,141.3l0,0c-31.5,0-60.7-10.5-84.1-27.8
	c25.1,34,66.5,56.7,113,56.7l0,0c77.7,0,141.3-63.6,141.3-141.3v-72.6C396.1,95.1,373.7,53.9,339.1,28.1z"/>
<g>
	<path class="st4" d="M256.5,301.1c-20,0-39.9-7.6-55.1-22.8c-3.1-3.1-3.1-8,0-11.1c3.1-3.1,8-3.1,11.1,0c24.3,24.3,63.7,24.3,88,0
		c3.1-3.1,8-3.1,11.1,0c3.1,3.1,3.1,8,0,11.1C296.4,293.6,276.5,301.1,256.5,301.1z"/>
	<path class="st4" d="M225.4,147.5c-2,0-4-0.8-5.5-2.3c-6.2-6.2-14.4-9.6-23.2-9.6c-8.8,0-17,3.4-23.2,9.6c-3.1,3.1-8,3.1-11.1,0
		c-3.1-3.1-3.1-8,0-11.1c9.2-9.2,21.3-14.2,34.3-14.2c12.9,0,25.1,5,34.3,14.2c3.1,3.1,3.1,8,0,11.1
		C229.4,146.7,227.4,147.5,225.4,147.5z"/>
	<path class="st4" d="M334.8,147.5c-2,0-4-0.8-5.5-2.3c-6.2-6.2-14.4-9.6-23.2-9.6c-8.8,0-17,3.4-23.2,9.6c-3.1,3.1-8,3.1-11.1,0
		c-3.1-3.1-3.1-8,0-11.1c9.2-9.2,21.3-14.2,34.3-14.2s25.1,5,34.3,14.2c3.1,3.1,3.1,8,0,11.1C338.8,146.7,336.8,147.5,334.8,147.5z"
		/>
</g>
<g>
	<path class="st6" d="M222,232.2h-58.9c-7.8,0-14.1-6.3-14.1-14.1v-45.9h87.1v45.9C236.1,225.9,229.8,232.2,222,232.2z"/>
	<path class="st6" d="M345,231.4h-58.9c-7.8,0-14.1-6.3-14.1-14.1v-45.9h87.1v45.9C359.2,225.1,352.8,231.4,345,231.4z"/>
	<rect x="235.3" y="177.3" class="st6" width="38.3" height="24.1"/>
</g>
<path class="st4" d="M256.5,59.9c20,0,68.6,0.6,68.6-37.3l-1.9-4.8C302.9,6.5,279.5,0,254.7,0l0,0c-24,0-46.9,5.9-66.8,16.6v6.1
	C187.9,60.5,237.4,59.9,256.5,59.9z"/>
<g>
	<path class="st7" d="M199.1,172.1l-45.9,55.6c2.6,2.7,6.2,4.4,10.2,4.4h20.6l48.4-60H199.1z"/>
	<path class="st7" d="M322.4,171.4l-45.9,55.7c2.6,2.7,6.2,4.4,10.2,4.4h20.6l48.4-60.1L322.4,171.4L322.4,171.4L322.4,171.4z"/>
</g>
<rect x="177.4" y="446.6" class="st6" width="152.6" height="65.4"/>
<g>
	<polygon points="265.8,467.8 256,467.8 232.5,481.5 232.5,495.9 246.6,492.9 246.6,511.9 265.8,511.9 	"/>
</g>
</svg>
