<?xml version="1.0" encoding="utf-8"?>
<!-- Generator: Adobe Illustrator 21.0.0, SVG Export Plug-In . SVG Version: 6.00 Build 0)  -->
<svg version="1.0" id="Laag_1" xmlns="http://www.w3.org/2000/svg" xmlns:xlink="http://www.w3.org/1999/xlink" x="0px" y="0px"
	 viewBox="0 0 387.1 392.2" style="enable-background:new 0 0 387.1 392.2;" xml:space="preserve">
<style type="text/css">
	.st0{fill:#1579FB;}
	.st1{opacity:0.3;}
	.st2{fill:#AD7447;}
	.st3{fill:#EDE8E5;}
	.st4{fill:#533825;}
	.st5{fill:#E30613;}
	.st6{fill:#BE1622;}
	.st7{fill:#F39200;}
	.st8{fill:#E94E1B;}
	.st9{fill:#48301F;}
	.st10{fill:#7E543C;}
	.st11{fill:#FFFFFF;}
	.st12{enable-background:new    ;}
	.st13{fill:#E55042;}
</style>
<g id="Group_201" transform="translate(19584)">
	<g id="Group_191">
		<g id="Path_100">
			<path class="st0" d="M-19511.5,181.7c2.1,27.9-3.5,129.9,63.2,155.7c66.6,25.8,183.4,16.4,178.8-113
				c-4.6-129.4-2.6-191-67.7-215.3c-65.1-24.3-134.1,4.4-147.9,36.1S-19513.6,153.8-19511.5,181.7z"/>
		</g>
		<g id="Group_67" transform="translate(613.914 420.369)" class="st1">
			<g id="Path_101">
				<path class="st2" d="M-20034.2-170.7h109.8c0.9,0,1.7-0.8,1.7-1.7c0-0.9-0.8-1.7-1.7-1.7l0,0h-109.8V-170.7z"/>
			</g>
			<g id="Path_102">
				<path class="st2" d="M-20016.8-197.5h-17.5v3.4h109.8c0.9,0,1.7-0.8,1.7-1.7c0-0.9-0.8-1.7-1.7-1.7l0,0H-20016.8z"/>
			</g>
			<g id="Path_103">
				<path class="st2" d="M-20060.2-194.1c-0.8,0-1.6,0-2.3,0H-20060.2z"/>
			</g>
			<g id="Path_104">
				<path class="st3" d="M-20060.1-194.1h-2.4c-2.7,0.1-7.2,0.7-9.9,3.3c-1.6,1.6-2.5,3.8-2.3,6c0.1,4,0.2,10.7,12,10.7h136.7
					c-3-6.3-3-13.6,0-20L-20060.1-194.1L-20060.1-194.1z"/>
			</g>
			<g id="Path_105">
				<path class="st4" d="M-20062.7-170.7h28.4v-3.4h-28.4c-11.8,0-11.9-6.7-12-10.7c-0.2-2.2,0.7-4.4,2.3-6c2.7-2.6,7.2-3.2,9.9-3.3
					c0.8,0,1.6,0,2.4,0h25.9v-3.4h-25.7c-1-0.1-9.7-0.5-14.8,4.2c-2.3,2.2-3.6,5.3-3.4,8.6
					C-20078-180.9-20077.8-170.7-20062.7-170.7z"/>
			</g>
			<g id="Path_106">
				<path class="st5" d="M-20032.8-139.6h127.4c1.1,0,2-0.9,2-2s-0.9-2-2-2c0,0,0,0,0,0h-127.4V-139.6z"/>
			</g>
			<g id="Path_107">
				<path class="st5" d="M-19907.2-166.7h1.8c1.1,0,2-0.9,2-2c0-1.1-0.9-2-2-2c0,0,0,0,0,0h-127.4v4H-19907.2z"/>
			</g>
			<g id="Path_108">
				<path class="st2" d="M-20062.9-166.7c0,0-1.1-0.1-2.7,0H-20062.9z"/>
			</g>
			<g id="Path_109">
				<path class="st3" d="M-20062.8-166.7h-2.8c-3.2,0.2-8.3,0.9-11.4,3.9c-1.9,1.8-2.9,4.4-2.7,7c0.1,4.6,0.2,12.4,13.9,12.4h158.6
					c-3.4-7.3-3.4-15.8,0-23.2L-20062.8-166.7L-20062.8-166.7z"/>
			</g>
			<g id="Path_110">
				<path class="st6" d="M-20065.8-139.6h33v-4h-33c-13.7,0-13.8-7.7-13.9-12.4c-0.2-2.6,0.8-5.2,2.7-7c3.1-3,8.3-3.7,11.4-3.9
					c1.6-0.1,2.7,0,2.7,0h30v-4h-29.8c-1.1-0.1-11.3-0.6-17.1,4.9c-2.7,2.6-4.1,6.2-3.9,9.9
					C-20083.6-151.4-20083.4-139.6-20065.8-139.6z"/>
			</g>
			<g id="Path_111">
				<path class="st7" d="M-19901.5-108.1h-147.8v4.6h147.8c1.3,0,2.3-1,2.3-2.3c0-1.2-0.9-2.3-2.2-2.3
					C-19901.4-108.1-19901.4-108.1-19901.5-108.1z"/>
			</g>
			<g id="Path_112">
				<path class="st7" d="M-19903.5-135h2.1c1.3,0,2.3-1.1,2.2-2.3c0-1.2-1-2.2-2.2-2.2h-147.8v4.6L-19903.5-135L-19903.5-135z"/>
			</g>
			<g id="Path_113">
				<path class="st2" d="M-20084.1-135c-1.1-0.1-2.1-0.1-3.2,0H-20084.1z"/>
			</g>
			<g id="Path_114">
				<path class="st3" d="M-20084-135h-3.3c-3.7,0.2-9.6,1-13.3,4.5c-2.2,2.1-3.3,5.1-3.1,8.1c0.1,5.3,0.2,14.3,16.1,14.3h184.1
					c-4-8.5-4-18.4,0-26.9L-20084-135L-20084-135z"/>
			</g>
			<g id="Path_115">
				<path class="st8" d="M-20087.5-108.1c-15.9,0-16-9-16.1-14.3c-0.2-3,0.9-6,3.1-8.1c3.6-3.4,9.6-4.3,13.3-4.5
					c1.1-0.1,2.1-0.1,3.2,0h34.9v-4.6h-34.6c-1.3-0.1-13.1-0.6-19.8,5.7c-3.1,3-4.8,7.2-4.5,11.5c0.1,5.1,0.3,18.8,20.7,18.8h38.3
					v-4.6L-20087.5-108.1L-20087.5-108.1z"/>
			</g>
			<g id="Path_116">
				<path class="st2" d="M-20057.3-226.5h2.4C-20055.1-226.5-20056-226.6-20057.3-226.5z"/>
			</g>
			<g id="Path_117">
				<path class="st4" d="M-19909.5-199.6c0.1,1.1-0.7,2-1.8,2.1h-68.1v-4.2h68.1C-19910.3-201.7-19909.5-200.7-19909.5-199.6
					C-19909.5-199.6-19909.5-199.6-19909.5-199.6z"/>
			</g>
			<g id="Path_118">
				<path class="st4" d="M-19909.5-228.6c0.1,1.1-0.7,2-1.8,2.1h-68.1v-4.2h68.1C-19910.3-230.7-19909.5-229.7-19909.5-228.6z"/>
			</g>
			<g id="Path_119">
				<path class="st2" d="M-20006.8-226.5h-1.2v0c0.6,0,1.1,0,1.1,0H-20006.8z"/>
			</g>
			<g id="Path_120">
				<path class="st3" d="M-19915.3-214.1c0,4.2,0.8,8.4,2.4,12.4h-96.6c-1.9,0-3.8-0.2-5.7-0.7c-0.5-0.2-1-0.4-1.5-0.6l-2.3-1.6
					c-3-2.9-3.1-7.2-3.1-10.3c-0.2-2.7,0.7-5.4,2.4-7.5c2.9-3.2,7.6-4,10.4-4.1h96.4C-19914.5-222.6-19915.3-218.4-19915.3-214.1z"
					/>
			</g>
			<g id="Path_121">
				<path class="st4" d="M-20009.6-230.8h2.9C-20007-230.8-20008.1-230.8-20009.6-230.8z"/>
			</g>
			<g id="Path_122">
				<path class="st4" d="M-19979.5-201.7v4.2h-37.3l1.5-5c1.8,0.5,3.7,0.8,5.7,0.7L-19979.5-201.7L-19979.5-201.7z"/>
			</g>
			<g id="Path_123">
				<path class="st4" d="M-19979.5-230.8v4.2h-27.4c0,0-0.4,0-1.1,0l1.3-4.2H-19979.5L-19979.5-230.8z"/>
			</g>
			<g id="Path_124">
				<path class="st4" d="M-20027.5-214.1c0-16.6,12.3-16.6,20.8-16.6h-14.8l-6.1,5.6h-24c0,0-2.4,0-3.4-1.4h-2.4
					c0.8-0.1,1.6-0.1,2.4,0c-0.3-0.4-0.4-0.8-0.4-1.3c0-0.7,0.6-1.7,2-2.9h-1.4c-1-0.1-10.3-0.6-15.6,5.2c-2.5,2.9-3.8,6.7-3.6,10.6
					c0,2.3,0.1,6.5,2,10.2h45.9C-20027-207.7-20027.6-210.9-20027.5-214.1z"/>
			</g>
			<g id="Path_125">
				<path class="st9" d="M-20016.8-197.5c0,0-6.1,0-9.1-7.2h-45.9c2,3.9,6.1,7.2,14.2,7.2H-20016.8L-20016.8-197.5z"/>
			</g>
			<g id="Path_126">
				<path class="st4" d="M-20054.8-226.5L-20054.8-226.5z"/>
			</g>
			<g id="Path_127">
				<path class="st10" d="M-20055.2-227.8c0,0.5,0.1,0.9,0.4,1.3l0,0c1,1.4,3.4,1.4,3.4,1.4h27l15-5.6h-43.7
					C-20054.6-229.6-20055.2-228.5-20055.2-227.8z"/>
			</g>
			<g id="Path_128">
				<path class="st4" d="M-20008-226.6L-20008-226.6l-1.4,0C-20008.8-226.6-20008.3-226.6-20008-226.6z"/>
			</g>
			<g id="Path_129">
				<path class="st4" d="M-20015.3-202.5l-1.5,5v-5.6C-20016.3-202.9-20015.8-202.7-20015.3-202.5z"/>
			</g>
			<g id="Path_130">
				<path class="st4" d="M-20006.7-230.8l-1.3,4.2c-0.4,0-0.9,0-1.4,0c-2.9,0.2-7.6,1-10.4,4.1c-1.8,2.1-2.6,4.8-2.4,7.5
					c0,3.1,0.1,7.4,3.1,10.3h-6.8c-1.2-3-1.7-6.2-1.6-9.5C-20027.5-230.8-20015.2-230.8-20006.7-230.8z"/>
			</g>
			<g id="Path_131">
				<path class="st4" d="M-20016.8-203.1c-0.8-0.4-1.6-0.9-2.3-1.6L-20016.8-203.1z"/>
			</g>
			<g id="Path_132">
				<path class="st4" d="M-20019.1-204.7h-6.8c3,7.2,9.1,7.2,9.1,7.2v-5.6C-20017.6-203.5-20018.4-204-20019.1-204.7z"/>
			</g>
		</g>
		<g id="Group_65" transform="translate(532.054 534.155)">
			<g id="Group_64" transform="translate(-7.79 -32.243)">
				<g id="Path_21">
					<path class="st11" d="M-20097.5-207.2c12.5-1.8,124.8,5.9,168.8,1.2c44.1-4.7,96,1.9,111,3.3c15,1.4,77.8-3.6,84.8-1.2
						s10.7,18.4,11.5,28.2c0.7,9.8-0.4,25.9-3.4,31.8c-3,5.9-42,12.6-65.5,11c-23.5-1.6-74.2-1-93.8-0.2s-25-2.7-60.9-2.2
						c-35.8,0.5-76.1-4.4-95.6-2.1s-45,1.8-54.3-0.4c-9.4-2.3-15.7-21-13.8-27.8C-20106.9-172.4-20110-205.4-20097.5-207.2z"/>
				</g>
			</g>
		</g>
	</g>
	<g class="st12">
		<path class="st13" d="M-19559,340.3V318l4.4-0.4v22.3L-19559,340.3z"/>
		<path class="st13" d="M-19541.6,340.5l-3.4-8.4l-1.4,1.8v6.2h-4.2v-22l4.2-0.5v11.2l4.3-5.5h4.6l-4.7,6.1l4.4,9.9L-19541.6,340.5z
			"/>
		<path class="st13" d="M-19526.2,340.1l-3.5-16.6l4.3-0.3l1.4,9.6l2.1-9.2l3.5-0.4l1.8,9.4l1.8-9.1l3.4-0.2l-3.9,16.7h-3.4l-1.9-11
			l-2.4,11H-19526.2z"/>
		<path class="st13" d="M-19509.1,340.3v-16.7l4.2-0.4v16.7L-19509.1,340.3z M-19509,321.1v-4.4l4.2-0.3v4.5L-19509,321.1z"/>
		<path class="st13" d="M-19501.1,340.3v-22.1l4.2-0.5v22.3L-19501.1,340.3z"/>
		<path class="st13" d="M-19486,323.6l4.2-0.4v2.2c0.9-0.8,1.7-1.3,2.5-1.8c0.8-0.4,1.6-0.6,2.3-0.6c1.1,0,1.9,0.4,2.6,1.2
			c0.7,0.8,1,1.8,1,3.1v12.7l-4.2,0.4v-11.4c0-1.5-0.5-2.2-1.5-2.2c-0.3,0-0.7,0.1-1.1,0.3c-0.4,0.2-0.9,0.5-1.6,0.9v12.2l-4.2,0.4
			V323.6z"/>
		<path class="st13" d="M-19469,338.1c-1.1-1.6-1.6-3.7-1.6-6.4c0-2.6,0.5-4.7,1.6-6.3c1.1-1.6,2.6-2.4,4.7-2.4c2,0,3.6,0.8,4.7,2.4
			c1.1,1.6,1.7,3.7,1.7,6.3c0,2.6-0.6,4.8-1.7,6.4c-1.1,1.6-2.7,2.4-4.7,2.4S-19467.9,339.7-19469,338.1z M-19462.6,335.7
			c0.3-1.1,0.4-2.5,0.4-4c0-1.6-0.1-3-0.4-4.1c-0.3-1.1-0.8-1.6-1.7-1.6s-1.5,0.5-1.7,1.6c-0.2,1-0.4,2.3-0.4,3.8
			c0,1.8,0.1,3.3,0.4,4.4c0.2,1.1,0.8,1.6,1.7,1.6S-19462.8,336.8-19462.6,335.7z"/>
		<path class="st13" d="M-19454.6,344.4c-1.2-0.6-1.9-1.5-1.9-2.6c0-0.8,0.3-1.4,0.8-1.9c0.6-0.5,1.3-1,2.1-1.3
			c-0.8-0.2-1.3-0.5-1.7-0.8c-0.4-0.3-0.6-0.8-0.6-1.5c0-0.8,0.3-1.5,0.8-2.1c0.5-0.6,1.2-1.2,2.1-1.6c-1.8-1-2.7-2.5-2.7-4.3
			c0-1.1,0.3-2.1,0.9-2.9c0.6-0.8,1.4-1.4,2.4-1.8c1-0.4,2-0.6,3-0.6c1.6,0,3,0.4,4.2,1.3c0.6-0.5,1.2-1,1.8-1.4
			c0.6-0.4,1.4-0.5,2.3-0.5v2.8c-1.2,0-2.1,0.1-2.7,0.4c0.2,0.6,0.4,1.1,0.5,1.5c0.1,0.4,0.1,0.8,0.1,1.2c0,1.4-0.5,2.5-1.4,3.6
			c-0.9,1-2.4,1.5-4.5,1.5l-1.1,0c-0.2,0-0.4,0-0.7,0c-0.3,0.1-0.5,0.3-0.8,0.5c-0.2,0.3-0.4,0.6-0.4,0.9c0,0.3,0.1,0.5,0.3,0.7
			c0.2,0.2,0.4,0.3,0.8,0.4l4.8,0.5c2.8,0.3,4.2,1.7,4.2,4c0,1.9-0.7,3.2-2.1,3.9c-1.4,0.8-3.3,1.1-5.6,1.1
			C-19451.6,345.4-19453.3,345.1-19454.6,344.4z M-19445.8,340.5c0-0.3-0.1-0.6-0.3-0.8s-0.5-0.3-0.9-0.3c-0.4-0.1-1-0.1-1.9-0.2
			l-2.5-0.2c-0.4,0.1-0.7,0.3-0.9,0.6c-0.3,0.3-0.4,0.7-0.4,1c0,0.5,0.3,1,0.9,1.2s1.4,0.4,2.6,0.4
			C-19446.9,342.3-19445.8,341.7-19445.8,340.5z M-19447.8,330.2c0.3-0.5,0.5-1.1,0.5-2c0-0.9-0.2-1.5-0.5-2
			c-0.4-0.4-0.8-0.7-1.4-0.7c-0.6,0-1.1,0.2-1.5,0.8c-0.4,0.5-0.5,1.1-0.5,1.9c0,0.7,0.2,1.3,0.4,1.9c0.3,0.6,0.8,0.9,1.5,0.9
			C-19448.6,330.9-19448.1,330.7-19447.8,330.2z"/>
		<path class="st13" d="M-19431,338.1c-1.1-1.6-1.6-3.7-1.6-6.3c0-2.7,0.5-4.8,1.6-6.4c1.1-1.6,2.6-2.4,4.7-2.4c2,0,3.5,0.8,4.5,2.4
			c1,1.6,1.6,3.7,1.6,6.4c0,0.2,0,0.3-0.1,0.3c-0.1,0.1-0.1,0.1-0.1,0.1h-8c0,1.3,0.2,2.5,0.5,3.6c0.3,1.1,0.9,1.6,1.6,1.6
			c0.8,0,1.4-0.5,1.7-1.3c0.4-0.9,0.6-1.4,0.6-1.4l3.2,1.2c-0.4,1.4-1.1,2.6-2,3.4c-0.9,0.8-2.1,1.2-3.6,1.2
			C-19428.4,340.5-19430,339.7-19431,338.1z M-19424.4,329.8c0-1.2-0.2-2.1-0.5-2.8s-0.8-1.1-1.5-1.1c-0.3,0-0.7,0.2-1,0.5
			c-0.3,0.3-0.6,0.8-0.8,1.4c-0.2,0.6-0.3,1.3-0.3,2H-19424.4z"/>
		<path class="st13" d="M-19416.9,338.1c-1.1-1.6-1.6-3.7-1.6-6.3c0-2.7,0.5-4.8,1.6-6.4c1.1-1.6,2.6-2.4,4.7-2.4
			c2,0,3.5,0.8,4.5,2.4c1,1.6,1.6,3.7,1.6,6.4c0,0.2,0,0.3-0.1,0.3c-0.1,0.1-0.1,0.1-0.1,0.1h-8c0,1.3,0.2,2.5,0.5,3.6
			s0.9,1.6,1.6,1.6c0.8,0,1.4-0.5,1.7-1.3c0.4-0.9,0.6-1.4,0.6-1.4l3.2,1.2c-0.4,1.4-1.1,2.6-2,3.4c-0.9,0.8-2.1,1.2-3.6,1.2
			C-19414.3,340.5-19415.8,339.7-19416.9,338.1z M-19410.2,329.8c0-1.2-0.2-2.1-0.5-2.8s-0.8-1.1-1.5-1.1c-0.3,0-0.7,0.2-1,0.5
			c-0.3,0.3-0.6,0.8-0.8,1.4c-0.2,0.6-0.3,1.3-0.3,2H-19410.2z"/>
		<path class="st13" d="M-19403.5,323.6l4.2-0.4v2.2c0.9-0.8,1.7-1.3,2.5-1.8c0.8-0.4,1.6-0.6,2.3-0.6c1.1,0,1.9,0.4,2.6,1.2
			c0.7,0.8,1,1.8,1,3.1v12.7l-4.2,0.4v-11.4c0-1.5-0.5-2.2-1.5-2.2c-0.3,0-0.7,0.1-1.1,0.3c-0.4,0.2-0.9,0.5-1.6,0.9v12.2l-4.2,0.4
			V323.6z"/>
		<path class="st13" d="M-19379,339.4c-1-0.8-1.7-1.8-2-3.1l3.3-1.1c0.1,0.4,0.2,0.7,0.4,1c0.5,0.7,1.1,1,2,1c0.5,0,1-0.1,1.4-0.3
			c0.5-0.2,0.7-0.6,0.7-1c0-0.6-0.4-1.1-1.3-1.4l-3.5-1.4c-0.9-0.4-1.7-1-2.2-1.8s-0.8-1.8-0.8-2.9c0-1.1,0.3-2,0.8-2.8
			s1.2-1.4,2.1-1.8c0.9-0.4,1.8-0.6,2.8-0.6c1.3,0,2.4,0.4,3.5,1.1c1.1,0.7,1.8,1.7,2.1,3l-3.5,1.1c-0.1-0.3-0.2-0.7-0.4-1
			c-0.4-0.7-1-1-1.7-1c-0.5,0-0.9,0.1-1.3,0.3c-0.4,0.2-0.5,0.6-0.5,1c0,0.5,0.5,1,1.5,1.4l3,1.2c1.1,0.5,1.9,1.1,2.5,1.9
			c0.6,0.8,0.9,1.8,0.9,3.1c0,1.2-0.3,2.1-0.8,3c-0.6,0.8-1.3,1.4-2.2,1.8c-0.9,0.4-1.9,0.6-2.9,0.6
			C-19376.7,340.5-19378,340.1-19379,339.4z"/>
		<path class="st13" d="M-19364.6,339.3c-0.9-0.8-1.6-1.9-2.1-3.2c-0.5-1.3-0.7-2.7-0.7-4.3c0-1.5,0.2-2.9,0.7-4.3
			c0.4-1.3,1.1-2.4,2.1-3.3s2.1-1.3,3.4-1.3c1,0,1.9,0.3,2.7,0.8c0.8,0.5,1.4,1.2,1.9,2.1c0.5,0.9,0.7,2,0.8,3.2l-4,0.2
			c0-0.1,0-0.4-0.1-1c-0.1-0.6-0.2-1-0.4-1.4c-0.2-0.4-0.5-0.5-0.9-0.5c-0.8,0-1.3,0.5-1.5,1.6c-0.2,1.1-0.3,2.3-0.3,3.7
			c0,1.3,0.1,2.6,0.3,3.6c0.2,1.1,0.8,1.6,1.6,1.6c1.1,0,1.6-1.1,1.7-3.2l3.5,0.4c-0.3,2.1-0.8,3.7-1.6,4.7
			c-0.8,1.1-2.1,1.6-3.8,1.6C-19362.6,340.5-19363.7,340.1-19364.6,339.3z"/>
		<path class="st13" d="M-19353.2,318.2l4.2-0.5v7.8c1.7-1.6,3.3-2.4,4.8-2.4c1.1,0,1.9,0.4,2.6,1.2c0.7,0.8,1,1.8,1,3.1v12.7
			l-4.2,0.4v-11.5c0-0.7-0.1-1.3-0.4-1.7s-0.6-0.5-1.1-0.5c-0.4,0-0.7,0.1-1.1,0.3c-0.4,0.2-0.9,0.5-1.6,0.9v12.2l-4.2,0.4V318.2z"
			/>
		<path class="st13" d="M-19336.2,339.8c-0.6-0.5-1-1.1-1.3-1.8c-0.3-0.8-0.5-1.6-0.5-2.6c0-2.2,0.7-3.7,2.2-4.6
			c1.5-0.9,3.2-1.4,5.2-1.5c0-1.1-0.1-1.9-0.2-2.4c-0.1-0.5-0.5-0.8-1-0.8c-0.5,0-0.8,0.2-1,0.5c-0.2,0.4-0.4,0.8-0.5,1.4l-4.1-0.7
			c0.2-1.5,0.8-2.6,1.9-3.3c1.1-0.7,2.3-1,3.7-1c1.8,0,3.2,0.5,4.1,1.4s1.4,2.2,1.4,3.8v8.7c0,0.9,0.2,1.9,0.4,3l-4.1,0.4l-0.5-2.1
			c-0.4,0.6-0.9,1.2-1.6,1.6c-0.7,0.4-1.4,0.7-2.2,0.7C-19335,340.5-19335.6,340.3-19336.2,339.8z M-19331.4,337.3
			c0.2-0.2,0.5-0.4,0.9-0.8v-4.7c-1,0-1.8,0.3-2.4,0.8c-0.6,0.5-0.9,1.4-0.9,2.5c0,0.8,0.1,1.3,0.4,1.8s0.7,0.6,1.2,0.6
			C-19332,337.5-19331.7,337.4-19331.4,337.3z"/>
		<path class="st13" d="M-19320.6,339.4c-0.9-0.7-1.4-1.9-1.4-3.7v-9.3h-2.3l0.2-3.2h2.3l0.4-3.7l3.7-0.5v4.2h3.5l-0.2,3.2h-3.3v9.3
			c0,0.6,0.2,1,0.4,1.3c0.3,0.3,0.7,0.4,1.3,0.4c0.3,0,0.9-0.1,1.6-0.2v2.9c-0.1,0-0.4,0.1-0.9,0.2c-0.6,0.1-1.2,0.2-1.8,0.2
			C-19318.5,340.5-19319.6,340.1-19320.6,339.4z"/>
		<path class="st13" d="M-19305.3,340.1v-2.6l5.7-11h-5.4l0.4-3.3h9.8v2.5l-5.6,11h6l-0.4,3.3H-19305.3z"/>
		<path class="st13" d="M-19291.2,338.1c-1.1-1.6-1.6-3.7-1.6-6.4c0-2.6,0.5-4.7,1.6-6.3c1.1-1.6,2.6-2.4,4.7-2.4
			c2,0,3.6,0.8,4.7,2.4c1.1,1.6,1.7,3.7,1.7,6.3c0,2.6-0.6,4.8-1.7,6.4c-1.1,1.6-2.7,2.4-4.7,2.4
			C-19288.5,340.5-19290.1,339.7-19291.2,338.1z M-19284.8,335.7c0.3-1.1,0.4-2.5,0.4-4c0-1.6-0.1-3-0.4-4.1
			c-0.3-1.1-0.8-1.6-1.7-1.6s-1.5,0.5-1.7,1.6c-0.2,1-0.4,2.3-0.4,3.8c0,1.8,0.1,3.3,0.4,4.4c0.2,1.1,0.8,1.6,1.7,1.6
			S-19285,336.8-19284.8,335.7z"/>
		<path class="st13" d="M-19276.5,338.1c-1.1-1.6-1.6-3.7-1.6-6.3c0-2.7,0.5-4.8,1.6-6.4c1.1-1.6,2.6-2.4,4.7-2.4
			c2,0,3.5,0.8,4.5,2.4c1,1.6,1.6,3.7,1.6,6.4c0,0.2,0,0.3-0.1,0.3c-0.1,0.1-0.1,0.1-0.1,0.1h-8c0,1.3,0.2,2.5,0.5,3.6
			c0.3,1.1,0.9,1.6,1.6,1.6c0.8,0,1.4-0.5,1.7-1.3c0.4-0.9,0.6-1.4,0.6-1.4l3.2,1.2c-0.4,1.4-1.1,2.6-2,3.4
			c-0.9,0.8-2.1,1.2-3.6,1.2C-19273.9,340.5-19275.5,339.7-19276.5,338.1z M-19269.9,329.8c0-1.2-0.2-2.1-0.5-2.8s-0.8-1.1-1.5-1.1
			c-0.3,0-0.7,0.2-1,0.5c-0.3,0.3-0.6,0.8-0.8,1.4c-0.2,0.6-0.3,1.3-0.3,2H-19269.9z"/>
		<path class="st13" d="M-19254.2,340.5l-3.4-8.4l-1.4,1.8v6.2h-4.2v-22l4.2-0.5v11.2l4.3-5.5h4.6l-4.7,6.1l4.4,9.9L-19254.2,340.5z
			"/>
		<path class="st13" d="M-19247.4,338.1c-1.1-1.6-1.6-3.7-1.6-6.3c0-2.7,0.5-4.8,1.6-6.4c1.1-1.6,2.6-2.4,4.7-2.4
			c2,0,3.5,0.8,4.5,2.4c1,1.6,1.6,3.7,1.6,6.4c0,0.2,0,0.3-0.1,0.3c-0.1,0.1-0.1,0.1-0.1,0.1h-8c0,1.3,0.2,2.5,0.5,3.6
			s0.9,1.6,1.6,1.6c0.8,0,1.4-0.5,1.7-1.3c0.4-0.9,0.6-1.4,0.6-1.4l3.2,1.2c-0.4,1.4-1.1,2.6-2,3.4c-0.9,0.8-2.1,1.2-3.6,1.2
			C-19244.8,340.5-19246.3,339.7-19247.4,338.1z M-19240.7,329.8c0-1.2-0.2-2.1-0.5-2.8s-0.8-1.1-1.5-1.1c-0.3,0-0.7,0.2-1,0.5
			s-0.6,0.8-0.8,1.4c-0.2,0.6-0.3,1.3-0.3,2H-19240.7z"/>
		<path class="st13" d="M-19234.1,323.6l4.2-0.4v2.2c0.9-0.8,1.7-1.3,2.5-1.8c0.8-0.4,1.6-0.6,2.3-0.6c1.1,0,1.9,0.4,2.6,1.2
			c0.7,0.8,1,1.8,1,3.1v12.7l-4.2,0.4v-11.4c0-1.5-0.5-2.2-1.5-2.2c-0.3,0-0.7,0.1-1.1,0.3c-0.4,0.2-0.9,0.5-1.6,0.9v12.2l-4.2,0.4
			V323.6z"/>
	</g>
	<g class="st12">
		<path class="st11" d="M-19411.6,205.7c0-6.6,0.8-11.9,2.4-16c1.6-4.1,3.6-7.2,5.8-9.3c2.3-2.1,5.3-4.3,9-6.6
			c3.2-2,5.8-3.8,7.6-5.4c1.8-1.6,3.3-3.7,4.6-6.6c1.3-2.8,1.9-6.4,1.9-10.9c0-12.5-3.4-18.7-10.3-18.7c-3.4,0-5.6,1.6-6.8,4.8
			c-1.1,3.2-2,7.4-2.6,12.7l-24.1-1.1c0.2-7.1,1.8-13.4,4.8-18.9c2.9-5.5,7-9.8,12.1-12.9c5.1-3.1,10.9-4.6,17.4-4.6
			c7.7,0,14.2,1.9,19.4,5.7c5.3,3.8,9.2,8.7,11.7,14.8c2.5,6.1,3.8,12.5,3.8,19.2c0,7-0.9,12.7-2.6,17.1c-1.7,4.4-3.9,7.9-6.4,10.3
			c-2.5,2.4-5.9,5-10.1,7.7c-3.7,2.4-6.6,4.5-8.7,6.4c-2.1,1.9-3.9,4.4-5.3,7.6s-2.2,7.4-2.2,12.4v0.9h-21.1
			C-19411.5,212.3-19411.6,209.4-19411.6,205.7z M-19413.4,249.3v-26.5h25.4v25.4L-19413.4,249.3z"/>
	</g>
</g>
</svg>
