<?xml version="1.0" encoding="utf-8"?>
<!-- Generator: Adobe Illustrator 21.0.0, SVG Export Plug-In . SVG Version: 6.00 Build 0)  -->
<svg version="1.1" id="Layer_1" xmlns="http://www.w3.org/2000/svg" xmlns:xlink="http://www.w3.org/1999/xlink" x="0px" y="0px"
	 viewBox="0 0 512 512" style="enable-background:new 0 0 512 512;" xml:space="preserve">
<style type="text/css">
	.st0{fill:#DBDBDB;}
	.st1{opacity:0.22;enable-background:new    ;}
	.st2{opacity:0.53;enable-background:new    ;}
	.st3{fill:#F9C3C2;}
	.st4{opacity:0.37;fill:#DD8E92;enable-background:new    ;}
	.st5{fill:#DD8E92;}
	.st6{fill:#5D5D5D;}
	.st7{fill:#FFFFFF;}
</style>
<path class="st0" d="M283.4,378.9h33.4c50.4,0,91.3,54.5,91.3,104.9V512H91.8v-41.8c0-50.4,40.9-91.3,91.3-91.3h38.5L283.4,378.9
	L283.4,378.9z"/>
<path class="st1" d="M315.7,378.9h-33.4h-24.1c50.4,0,91.3,54.5,91.3,104.9V512h57.5v-28.2C407.1,433.4,366.2,378.9,315.7,378.9z"/>
<rect x="227.5" y="378.9" class="st2" width="47" height="133.1"/>
<path class="st2" d="M321.4,512h47V399.3c-13.5-11.5-29.6-19.1-47-20.2V512L321.4,512z"/>
<path class="st2" d="M134.2,511.9h47V378.9c-17.3,0.5-33.4,5.8-47,14.6V511.9z"/>
<path class="st3" d="M283.4,347.9v47.4c0,17-13.8,30.9-30.9,30.9l0,0c-17,0-30.9-13.8-30.9-30.9v-47.4L283.4,347.9L283.4,347.9z"/>
<g>
	<rect x="221.6" y="350.2" class="st4" width="61.6" height="21.8"/>
	<path class="st5" d="M380.9,264c19.5,0,35.3-15.8,35.3-35.3s-15.8-35.3-35.3-35.3H123.6c-19.5,0-35.3,15.8-35.3,35.3
		s15.8,35.3,35.3,35.3H380.9z"/>
</g>
<path class="st3" d="M209.7,44.6c12.8-5.2,27-6.9,41.4-6.9l0,0c70.9,0,128.9,58,128.9,128.9v66.2c0,70.9-58,128.9-128.9,128.9l0,0
	c-70.9,0-128.9-58-126-125.1v-66.2c-1.2-30.6,7.9-58.4,23.8-80.6C148.9,89.8,170.7,60.3,209.7,44.6z"/>
<path class="st4" d="M328.1,63.2c16,21.5,25.5,48,25.5,76.7v66.2c0,70.9-58,128.9-128.9,128.9l0,0c-28.7,0-55.2-9.5-76.5-25.2
	c22.9,31.1,60.7,51.9,103.2,51.9l0,0c70.9,0,128.9-58,128.9-128.9v-66.2C380.3,124.3,359.7,86.7,328.1,63.2z"/>
<path class="st6" d="M380.1,174.3h-30.9c-6.9,0-13.6-3.1-17.8-8.6c-8.5-10.9-21.8-18-36.7-18c-13.5,0-25.7,5.8-34.1,15
	c-4.3,4.6-11.5,4.6-15.7,0c-8.5-9.2-20.6-15-34.1-15c-14.9,0-28.2,7.1-36.7,18c-4.2,5.5-10.9,8.6-17.8,8.6H126v38.4h29.3
	c7.1,0,13.9,3.3,18.1,9c8.4,11.4,22,18.8,37.3,18.8c13.5,0,25.6-5.8,34.1-15c4.3-4.6,11.5-4.6,15.8,0c8.5,9.2,20.6,15,34.1,15
	c15.3,0,28.8-7.4,37.3-18.8c4.2-5.7,11-9,18.1-9h30L380.1,174.3L380.1,174.3z"/>
<circle class="st2" cx="210.1" cy="195" r="20.6"/>
<circle class="st2" cx="293.9" cy="195" r="20.6"/>
<path class="st7" d="M251.3,279.2c-16.1,0-30.3-8-39-20.3c-2.7-3.9-8.9-2-8.9,2.7c0,0.1,0,0.1,0,0.2c0,26.7,21.4,48.3,47.9,48.3
	s47.9-21.6,47.9-48.3c0-0.1,0-0.1,0-0.2c0-4.7-6.1-6.6-8.9-2.7C281.6,271.2,267.4,279.2,251.3,279.2z"/>
<g>
	<path class="st5" d="M265.3,145.7c-2.9,0-5.7-1.6-7-4.4c-1.9-3.9-0.3-8.6,3.6-10.5l44.9-21.9c3.9-1.9,8.6-0.3,10.5,3.6
		c1.9,3.9,0.3,8.6-3.6,10.5l-44.9,21.9C267.6,145.4,266.4,145.7,265.3,145.7z"/>
	<path class="st5" d="M240.5,145.7c-1.2,0-2.3-0.3-3.4-0.8l-44.9-22c-3.9-1.9-5.5-6.6-3.6-10.5c1.9-3.9,6.6-5.5,10.5-3.6l44.9,22
		c3.9,1.9,5.5,6.6,3.6,10.5C246.2,144.1,243.4,145.7,240.5,145.7z"/>
</g>
<path class="st6" d="M297.4,47.9l40.1-40.5c10-10,26.2-10,36.2,0l42.4,42.4c10,10,10,26.2,0,36.2l-43.2,43.1L297.4,47.9z"/>
<rect x="346.2" y="4.4" transform="matrix(0.7071 -0.7071 0.7071 0.7071 64.0074 274.7934)" class="st0" width="35" height="111.5"/>
</svg>
