<?xml version="1.0" encoding="utf-8"?>
<!-- Generator: Adobe Illustrator 21.0.0, SVG Export Plug-In . SVG Version: 6.00 Build 0)  -->
<svg version="1.1" id="Laag_1" xmlns="http://www.w3.org/2000/svg" xmlns:xlink="http://www.w3.org/1999/xlink" x="0px" y="0px"
	 viewBox="0 0 841.9 331.1" style="enable-background:new 0 0 841.9 331.1;" xml:space="preserve">
<style type="text/css">
	.st0{fill:#CC880C;}
	.st1{fill:#585858;}
	.st2{fill:#8F8F8F;}
	.st3{fill:#F7A817;}
	.st4{fill:#FFFFFF;stroke:#020203;stroke-miterlimit:10;}
</style>
<g>
	<path class="st0" d="M222.2,183.8H113.9c-40.8,0-73.9,33.1-73.9,73.9s33.1,73.9,73.9,73.9h108.4c40.8,0,73.9-33.1,73.9-73.9
		S263.1,183.8,222.2,183.8z M210.3,307h-84.5c-31.8,0-57.6-25.8-57.6-57.6s25.8-57.6,57.6-57.6h84.5c31.8,0,57.6,25.8,57.6,57.6
		S242.1,307,210.3,307z"/>
	<path class="st1" d="M232.5,265.1H729c62.3,0,112.9-50.5,112.9-112.9v-41.9c0-53.5-37.2-98.1-87.1-109.8
		c7.3,14.2,11.5,30.2,11.5,47.3v66c0,57.3-46.5,65.8-103.8,65.8H205.8L232.5,265.1z"/>
	<path class="st2" d="M797.7,20.8c10.5,17.1,16.7,37.3,16.7,58.9v41.9c0,62.3-50.5,112.9-112.9,112.9H222.9l9.6,30.6H729
		c62.3,0,112.9-50.5,112.9-112.9v-41.9C841.9,73.8,824.5,41.4,797.7,20.8z"/>
	<polygon class="st0" points="345.6,179.6 205.8,179.6 232.5,265.1 345.6,265.1 	"/>
	<path class="st3" d="M283.9,221.6c0,27.2,14.9,49.3-12.3,49.3H49.3C22.1,270.8,0,248.8,0,221.6l0,0c0-27.2,22.1-49.3,49.3-49.3
		h222.4C298.8,172.3,283.9,194.4,283.9,221.6L283.9,221.6z"/>
	<g>
		<path class="st0" d="M271.6,228.9H49.3c-19.7,0-36.6-11.6-44.5-28.3c-3,6.4-4.7,13.5-4.7,21c0,27.2,22.1,49.3,49.3,49.3h222.4
			c25.8,0,13.7-19.8,12.4-45.1C281.5,227.8,277.7,228.9,271.6,228.9z"/>
		<path class="st4" d="M284,175.4c-0.1,1.4-0.1,2.8-0.1,4.2c0,7.5,1.1,14.6,2.2,21C288.1,189,289.7,179.9,284,175.4z"/>
	</g>
	<path class="st3" d="M296.2,300c0,6.8-5.5,12.3-12.3,12.3l0,0c-6.8,0-12.3-5.5-12.3-12.3V143.2c0-6.8,5.5-12.3,12.3-12.3l0,0
		c6.8,0,12.3,5.5,12.3,12.3V300z"/>
</g>
</svg>
