<?xml version="1.0" encoding="utf-8"?>
<!-- Generator: Adobe Illustrator 21.0.0, SVG Export Plug-In . SVG Version: 6.00 Build 0)  -->
<svg version="1.1" id="Laag_1" xmlns="http://www.w3.org/2000/svg" xmlns:xlink="http://www.w3.org/1999/xlink" x="0px" y="0px"
	 viewBox="0 0 451.4 595.3" style="enable-background:new 0 0 451.4 595.3;" xml:space="preserve">
<style type="text/css">
	.st0{fill:none;stroke:#5E5E5E;stroke-width:10;stroke-miterlimit:10;}
	.st1{fill:#5E5E5E;}
	.st2{opacity:0.2;fill:#020203;enable-background:new    ;}
	.st3{fill:#7E7D7F;}
	.st4{fill:#F6EA78;}
	.st5{fill:#F18616;}
</style>
<g>
	<path class="st0" d="M218.4,121c0,0-14.3-111.8,105.3-88.8"/>
	<g>
		<rect x="176.1" y="116.2" class="st1" width="100.1" height="63.1"/>
		<rect x="174.7" y="116.2" class="st2" width="100.1" height="63.1"/>
	</g>
	<g>
		<circle class="st1" cx="225.6" cy="369.6" r="225.7"/>
		<path class="st2" d="M386.8,211.7c5.9,20.2,9.1,41.5,9.1,63.5c0,124.7-101,225.7-225.7,225.7c-63.2,0-120.2-26-161.2-67.8
			c27.4,93.7,114,162.2,216.6,162.2c124.7,0,225.7-101,225.7-225.7C451.3,308.1,426.7,252.4,386.8,211.7z"/>
		<path class="st3" d="M29.1,258.6c-12.1,29.1-11.3,57.1,5,73.4c26.1,26.1,82,12.5,124.9-30.4s56.5-98.8,30.4-124.9
			c-15.7-15.7-42.1-16.9-69.9-6.3C81.6,190.6,50.2,221.3,29.1,258.6z"/>
	</g>
	<polygon class="st4" points="291.6,0 323.7,9.4 355.9,0 346.5,32.2 355.9,64.3 323.7,54.9 291.6,64.3 301,32.2 	"/>
	<polygon class="st5" points="306.9,15.3 323.7,20.2 340.6,15.3 335.7,32.2 340.6,49 323.7,44.1 306.9,49 311.8,32.2 	"/>
</g>
</svg>
