<?xml version="1.0" encoding="utf-8"?>
<!-- Generator: Adobe Illustrator 21.0.0, SVG Export Plug-In . SVG Version: 6.00 Build 0)  -->
<svg version="1.1" id="Laag_1" xmlns="http://www.w3.org/2000/svg" xmlns:xlink="http://www.w3.org/1999/xlink" x="0px" y="0px"
	 viewBox="0 0 841.9 595.3" style="enable-background:new 0 0 841.9 595.3;" xml:space="preserve">
<style type="text/css">
	.st0{fill:#3C3C3B;}
</style>
<path class="st0" d="M572.6,404.4c-20.7,0-40.8-7.9-56-22H497c-9.6,0-16.2-7.2-19.6-21.5c-0.9-3.6-1.6-7.8-2.2-12.3c0,0-0.1,0-0.1,0
	c-6.2,0-12.3-2.2-17.1-6.1l-0.5-0.1c-2.6,0.8-5.2,1.2-7.9,1.2c-12,0-22.2-7.8-25.7-18.8c-8-2.4-14.5-8.5-17.5-16.3
	c-4.9-1.4-9.4-4.3-12.8-8.2l-0.1,0c-1.1,0.1-2.1,0.2-3.2,0.2c-4.1,0-8.1-0.9-11.8-2.7l-2.2,0.1c-3.1,1.5-6.4,2.3-9.8,2.6
	c-0.6,4.8-1.4,9.2-2.3,13c-3.4,13.8-10,20.8-19.5,20.8h-19.5c-15.2,14-35.3,22-56,22c-45.6,0-82.6-37.1-82.6-82.6
	s37.1-82.6,82.6-82.6c20.7,0,40.8,7.9,56,22h19.5c14.7,0,18.5,16.6,19.8,22.1c0.8,3.5,1.5,7.4,2,11.7c3.9,0.3,7.6,1.3,11,3.2
	c3.9-2.1,8.2-3.2,12.8-3.2c7.9,0,15.3,3.5,20.4,9.3c1.1-0.1,2.1-0.2,3.2-0.2c11.5,0,21.4,7.2,25.2,17.5c8.5,2.5,15.3,9.2,18,17.6
	c3.5,1,6.8,2.8,9.6,5.2c2.6-0.8,5.4-1.3,8.2-1.3c0,0,0.1,0,0.1,0c0.6-4.5,1.3-8.7,2.2-12.3c3.4-14.2,10-21.5,19.6-21.5h19.5
	c15.2-14,35.3-22,56-22c45.6,0,82.6,37.1,82.6,82.6S618.2,404.4,572.6,404.4z M550.4,349.3c6.3,5.1,14,7.8,22.2,7.8
	c19.5,0,35.4-15.9,35.4-35.4c0-19.5-15.9-35.4-35.4-35.4c-8.2,0-15.9,2.7-22.2,7.8V349.3z M269.3,238.2c-19.5,0-35.4,15.9-35.4,35.4
	s15.9,35.4,35.4,35.4c8.2,0,15.9-2.7,22.2-7.8V246C285.2,240.9,277.5,238.2,269.3,238.2z"/>
<path class="st0" d="M572.6,253.3c-19.8,0-37.7,8.5-50.2,22H497c-4.4,0-8.2,15.9-9,37.1h-4.4c-2.3-2-5.3-3.3-8.5-3.3
	c-2.4,0-4.7,0.7-6.6,1.9l-8.6-1.6c-2.2-3-5.6-5-9.6-5.2l-6-5.6c-0.4-6.6-5.8-11.9-12.5-12l-5.2-5c-0.7-6.4-6.1-11.3-12.7-11.3
	c-1.8,0-3.5,0.4-5,1l-7.3-3.3c-2.1-4.1-6.4-6.9-11.3-6.9c-3.5,0-6.7,1.4-9,3.8l-7.1,0.3c-2.3-2.5-5.6-4.1-9.3-4.1
	c-4.1,0-7.7,1.9-10,4.9l-1,0c-0.7-22-4.5-38.7-9.1-38.7h-25.4c-12.5-13.5-30.4-22-50.2-22c-37.8,0-68.5,30.7-68.5,68.5
	s30.7,68.5,68.5,68.5c19.8,0,37.7-8.5,50.2-22h25.4c4.3,0,7.9-15.1,8.9-35.4l4.6-0.2c1.9,1.2,4.1,1.8,6.5,1.8c2.8,0,5.4-0.9,7.5-2.4
	l9.9-0.4c2.2,1.8,5,2.9,8.1,2.9c1.7,0,3.2-0.3,4.7-0.9l7.8,3.6c2.2,3.9,6.3,6.5,11.1,6.5c0,0,0.1,0,0.1,0l4.8,4.7
	c0.5,6.4,5.7,11.4,12.1,11.7l5.8,5.5c0.3,6.8,5.9,12.2,12.7,12.2c2.3,0,4.5-0.6,6.4-1.7l8.9,1.7c2.3,3.1,6,5.1,10.2,5.1
	c3.3,0,6.3-1.3,8.5-3.3h4.4c0.9,21.2,4.6,37.1,9,37.1h25.4c12.5,13.5,30.4,22,50.2,22c37.8,0,68.5-30.7,68.5-68.5
	S610.3,253.3,572.6,253.3z M305.6,307.2c-9.1,9.8-22,15.9-36.3,15.9c-27.3,0-49.6-22.2-49.6-49.6S242,224,269.3,224
	c14.3,0,27.3,6.1,36.3,15.9V307.2z M572.6,371.3c-14.3,0-27.3-6.1-36.3-15.9V288c9.1-9.8,22-15.9,36.3-15.9
	c27.3,0,49.6,22.2,49.6,49.6S599.9,371.3,572.6,371.3z"/>
</svg>
