<?xml version="1.0" encoding="utf-8"?>
<!-- Generator: Adobe Illustrator 21.0.0, SVG Export Plug-In . SVG Version: 6.00 Build 0)  -->
<svg version="1.1" id="Layer_1" xmlns="http://www.w3.org/2000/svg" xmlns:xlink="http://www.w3.org/1999/xlink" x="0px" y="0px"
	 viewBox="0 0 512 512" style="enable-background:new 0 0 512 512;" xml:space="preserve">
<style type="text/css">
	.st0{fill:#EA7177;}
	.st1{opacity:0.56;fill:#C94F5B;enable-background:new    ;}
	.st2{fill:#C94F5B;}
	.st3{fill:#F9C3C2;}
	.st4{opacity:0.44;fill:#DD8E92;enable-background:new    ;}
	.st5{fill:#775F45;}
	.st6{fill:#DD8E92;}
	.st7{opacity:0.62;fill:#DD8E92;enable-background:new    ;}
	.st8{fill:#F4A2A3;}
	.st9{fill:#FFFFFF;}
	.st10{fill:#9DBF8C;}
	.st11{fill:#AAE090;}
</style>
<path class="st0" d="M371.9,407.3c26.2,0,47.4,21.2,47.4,47.4V512H96.5v-57.4c0-26.2,21.2-47.4,47.4-47.4H371.9z"/>
<path class="st1" d="M374,407.3h-50.6c26.2,0,47.4,21.2,47.4,47.4V512h50.6v-57.4C421.4,428.5,400.2,407.3,374,407.3z"/>
<path class="st0" d="M320,358.8c30,11,49.8,29.7,49.8,50.9c0,33.8-111.9,61.2-111.9,61.2S146,443.5,146,409.7c0-21.3,19.9-40,50-51
	L320,358.8z"/>
<g>
	<path class="st2" d="M283.6,373.2c23.7,5.5,40.3,18.3,40.3,33.2c0,19.9-66,36.1-66,36.1s-66-16.1-66-36.1
		c0-14.9,16.4-27.6,39.9-33.1L283.6,373.2z"/>
	<path class="st2" d="M298.9,487.8c-4.4,0-7.9-3.5-7.9-7.9v-20.8c0-4.4,3.5-7.9,7.9-7.9s7.9,3.5,7.9,7.9v20.8
		C306.8,484.3,303.3,487.8,298.9,487.8z"/>
	<path class="st2" d="M215,487.8c-4.4,0-7.9-3.5-7.9-7.9v-20.8c0-4.4,3.5-7.9,7.9-7.9s7.9,3.5,7.9,7.9v20.8
		C222.9,484.3,219.4,487.8,215,487.8z"/>
</g>
<path class="st3" d="M230.8,356.8v77.9c14.5,5.3,27.5,8.5,27.5,8.5s13.2-3.2,27.8-8.6v-77.8L230.8,356.8L230.8,356.8z"/>
<rect x="230.5" y="346.9" class="st4" width="55.6" height="49.2"/>
<polygon class="st5" points="404.2,171.4 441.6,251.4 415.5,276 420.3,324.4 365.3,314.4 146.7,314.4 91.7,324.4 96.5,276 
	70.4,251.4 107.8,171.4 256.3,13.2 "/>
<path class="st6" d="M128.1,273.7c-19.8,0-35.9-16.1-35.9-35.9s16.1-35.9,35.9-35.9h258c19.8,0,35.9,16.1,35.9,35.9
	s-16.1,35.9-35.9,35.9H128.1z"/>
<path class="st3" d="M382.9,120.8v127.8c0,68.5-56,124.5-124.5,124.5h-5.3c-68.5,0-124.5-56-124.5-124.5V124L382.9,120.8z"/>
<path class="st7" d="M351.3,121.4v104.2c0,68.5-56,124.5-124.5,124.5h-5.3c-20.3,0-39.6-4.9-56.6-13.7
	c22.6,22.8,53.8,36.9,88.3,36.9h5.3c68.5,0,124.5-56,124.5-124.5V121L351.3,121.4z"/>
<path class="st8" d="M267.6,233.6v12.3c0,6.4-5.2,11.6-11.6,11.6l0,0c-6.4,0-11.6-5.2-11.6-11.6v-12.3H267.6z"/>
<polygon class="st5" points="206.9,139 260,181.7 276.6,158.9 330.7,185 286.4,44.9 "/>
<path class="st9" d="M291.9,279.3c1,0,1.8,0.8,1.7,1.9c-1,20-17.4,35.8-37.6,35.8s-36.7-15.9-37.6-35.8c0-1,0.7-1.9,1.7-1.9H291.9z"
	/>
<path class="st10" d="M302.8,137.5c33.3,1.1,83.4,11.8,101.6,33.9V87c0-17.6-8.1-34.3-22.1-44.8C329.5,2.3,262.3-9.3,201.1,7.3
	c0,0-47.4,11.2-67,35.1S302.8,137.5,302.8,137.5"/>
<path class="st11" d="M204.8,102.7l3.2-7.7c19.1-46.8-38.1-88.1-76-54.6c-0.7,0.6-1.4,1.2-2,1.8c-14,10.6-22.1,27.3-22.1,44.8v84.4
	c21.8-21.8,47.3-29.6,74.4-32.4l22.2-0.8h93c9.9,0,18.3-8.1,18.2-17.9c-0.1-9.6-8-17.5-17.7-17.5h-93.5"/>
<path class="st5" d="M204.8,102.7c0-24.2,19.6-43.8,43.8-43.8s43.8,19.6,43.8,43.8H204.8z"/>
<g>
	<path class="st6" d="M258.1,265.4c-10.8,0-19.5-8.8-19.5-19.5v-12.3c0-4.4,3.5-7.9,7.9-7.9s7.9,3.5,7.9,7.9v12.3
		c0,2,1.7,3.7,3.7,3.7c2,0,3.7-1.7,3.7-3.7v-12.3c0-4.4,3.5-7.9,7.9-7.9s7.9,3.5,7.9,7.9v12.3C277.7,256.7,268.9,265.4,258.1,265.4z
		"/>
	<path class="st6" d="M218.5,228.2c-4.4,0-7.9-3.5-7.9-7.9c0-6.6-5.4-12-12-12c-6.6,0-12,5.4-12,12c0,4.4-3.5,7.9-7.9,7.9
		s-7.9-3.5-7.9-7.9c0-15.3,12.5-27.8,27.8-27.8s27.8,12.5,27.8,27.8C226.5,224.7,222.9,228.2,218.5,228.2z"/>
	<path class="st6" d="M333.3,228.2c-4.4,0-7.9-3.5-7.9-7.9c0-6.6-5.4-12-12-12s-12,5.4-12,12c0,4.4-3.5,7.9-7.9,7.9
		s-7.9-3.5-7.9-7.9c0-15.3,12.5-27.8,27.8-27.8s27.8,12.5,27.8,27.8C341.2,224.7,337.6,228.2,333.3,228.2z"/>
</g>
</svg>
