<?xml version="1.0" encoding="utf-8"?>
<!-- Generator: Adobe Illustrator 21.0.0, SVG Export Plug-In . SVG Version: 6.00 Build 0)  -->
<svg version="1.1" id="Layer_1" xmlns="http://www.w3.org/2000/svg" xmlns:xlink="http://www.w3.org/1999/xlink" x="0px" y="0px"
	 viewBox="0 0 512 512" style="enable-background:new 0 0 512 512;" xml:space="preserve">
<style type="text/css">
	.st0{fill:#F5EA78;}
	.st1{opacity:0.34;fill:#DD8E92;enable-background:new    ;}
	.st2{fill:#DE8A65;}
	.st3{fill:#5D5D5D;}
	.st4{opacity:0.2;}
	.st5{opacity:0.32;fill:#E5AF6E;enable-background:new    ;}
	.st6{fill:#E5AF6E;}
</style>
<rect x="225.9" y="340.7" class="st0" width="54.1" height="46"/>
<rect x="225.8" y="328.9" class="st1" width="54.2" height="26.3"/>
<path class="st0" d="M168.2,374.7c14.9-12,30.8-9.8,49.1-9.8l70.9,0.5c67.6,0,122.5,54.8,122.5,122.5v0.2V512L94.9,511L168.2,374.7z
	"/>
<path class="st1" d="M288.9,365.4l-70.9-0.5c-7.9,0-15.3-0.4-22.3,0.1l59.1,0.4c67.6,0,122.5,54.8,122.5,122.5v0.2v23.8l34.2,0.1
	v-23.9v-0.2C411.4,420.2,356.5,365.4,288.9,365.4z"/>
<path class="st2" d="M365.2,511.6l-22.2-35l7.9-94.4c-20.1-13.6-34.3-12.7-34.3-12.7l-13.7,89.7H200.1l-14.3-91.2
	c1.1-4.5-38.6,3.9-52.8,34.2l5.6,109.3h53.7v0.4h115.9v-0.4H365.2z"/>
<path class="st3" d="M165.3,307.7v204.2H92.6V193.1V111c0-61.3,49.7-111,111-111h140.6c33.8,0,61.2,27.4,61.2,61.2v124.6
	L165.3,307.7z"/>
<g class="st4">
	<path d="M138.9,128.3c-3.7,0-7-2.6-7.7-6.4c-0.8-4.2,2-8.4,6.2-9.2l0,0c0.7-0.1,73.1-14.8,98.4-63.8c2-3.9,6.7-5.4,10.6-3.4
		c3.9,2,5.4,6.7,3.4,10.6c-28.7,55.8-106.1,71.4-109.3,72C139.9,128.2,139.4,128.3,138.9,128.3z"/>
</g>
<g class="st4">
	<path d="M138.9,365.6c-4.3,0-7.8-3.5-7.8-7.8v-78.9c0-4.3,3.5-7.8,7.8-7.8c4.3,0,7.8,3.5,7.8,7.8v78.9
		C146.7,362.1,143.2,365.6,138.9,365.6z"/>
</g>
<path class="st0" d="M383.9,238.2c19.6,0,35.6-15.9,35.6-35.6s-15.9-35.6-35.6-35.6h-37.4v72.3L383.9,238.2z"/>
<path class="st0" d="M126.7,147c0,0,103.6-0.8,157.9-67.1c7-8.6,16.8-14.7,27.7-16.6c9.7-1.7,22.3-1.7,36.6,3.5
	c26.8,9.7,29.8,51.3,29.8,80.2v74.6c0,67.9-55.5,123.4-123.4,123.4h-5.2c-67.9,0-123.4-55.5-123.4-123.4L126.7,147"/>
<g>
	<path class="st5" d="M349.1,66.8c-2.4-0.9-4.7-1.6-7-2.2c5.3,16.2,6.2,35.9,6.2,51.8V191c0,67.9-55.5,123.4-123.4,123.4h-5.2
		c-26.2,0-50.5-8.3-70.5-22.3c22.4,31.9,59.4,52.9,101.1,52.9h5.2c67.9,0,123.4-55.5,123.4-123.4V147
		C378.9,118.1,375.9,76.5,349.1,66.8z"/>
	<path class="st6" d="M204.5,204.2c-4.3,0-7.8-3.5-7.8-7.8v-14.9c0-4.3,3.5-7.8,7.8-7.8c4.3,0,7.8,3.5,7.8,7.8v14.9
		C212.3,200.7,208.8,204.2,204.5,204.2z"/>
	<path class="st6" d="M320.4,195.6H301c-4.3,0-7.8-3.5-7.8-7.8s3.5-7.8,7.8-7.8h19.3c4.3,0,7.8,3.5,7.8,7.8S324.7,195.6,320.4,195.6
		z"/>
	<path class="st6" d="M250.8,292.2c-20,0-39.9-7.6-55.1-22.8c-3.1-3.1-3.1-8,0-11.1c3.1-3.1,8-3.1,11.1,0
		c24.3,24.3,63.8,24.3,88.1,0c3.1-3.1,8-3.1,11.1,0c3.1,3.1,3.1,8,0,11.1C290.8,284.6,270.8,292.2,250.8,292.2z"/>
	<path class="st6" d="M250.8,321.9c-8.6,0-17.3-3.3-23.9-9.9c-3.1-3.1-3.1-8,0-11.1c3.1-3.1,8-3.1,11.1,0c7,7,18.5,7,25.5,0
		c3.1-3.1,8-3.1,11.1,0c3.1,3.1,3.1,8,0,11.1C268.1,318.6,259.5,321.9,250.8,321.9z"/>
	<path class="st6" d="M260,237.6h-18.8c-2.3,0-4.6-1-6-2.8s-2.1-4.2-1.7-6.5l7.8-40.8c0.8-4.3,4.9-7,9.2-6.2c4.3,0.8,7,4.9,6.2,9.2
		l-6.1,31.5h9.3c4.3,0,7.8,3.5,7.8,7.8S264.3,237.6,260,237.6z"/>
</g>
</svg>
