<?xml version="1.0" encoding="utf-8"?>
<!-- Generator: Adobe Illustrator 21.0.0, SVG Export Plug-In . SVG Version: 6.00 Build 0)  -->
<svg version="1.1" id="Layer_1" xmlns="http://www.w3.org/2000/svg" xmlns:xlink="http://www.w3.org/1999/xlink" x="0px" y="0px"
	 viewBox="0 0 512 512" style="enable-background:new 0 0 512 512;" xml:space="preserve">
<style type="text/css">
	.st0{fill:#F9C3C2;}
	.st1{opacity:0.29;fill:#DD8E92;enable-background:new    ;}
	.st2{fill:#DD8E92;}
	.st3{fill:#F5EA78;}
</style>
<g>
	<rect x="229.1" y="381" class="st0" width="53.9" height="72.7"/>
	<path class="st0" d="M284.4,416.3H367c25.5,0,46.2,19.2,46.2,42.9V512H98.6v-52.9c0-23.7,20.7-42.9,46.2-42.9h81.8L284.4,416.3
		L284.4,416.3z"/>
</g>
<g>
	<path class="st1" d="M367,416.3h-45.2c25.5,0,46.2,19.2,46.2,42.9V512h45.2v-52.9C413.2,435.5,392.5,416.3,367,416.3z"/>
	<path class="st2" d="M180.5,495.5c-4.3,0-7.7-3.5-7.7-7.7V473c0-4.3,3.5-7.7,7.7-7.7c4.3,0,7.7,3.5,7.7,7.7v14.8
		C188.2,492.1,184.8,495.5,180.5,495.5z"/>
	<path class="st2" d="M331.2,495.5c-4.3,0-7.7-3.5-7.7-7.7V473c0-4.3,3.5-7.7,7.7-7.7s7.7,3.5,7.7,7.7v14.8
		C338.9,492.1,335.4,495.5,331.2,495.5z"/>
</g>
<path class="st3" d="M109.3,203.9v-15.6c0-21.5,5.3-41.8,14.5-59.7c0,0,20.3-31.2,45.4-50c19.5-14.6,44.7-20.9,70.7-20.9H274
	c71.8,0,130.6,58.8,130.6,130.6v15.6H109.3L109.3,203.9z"/>
<path class="st2" d="M383,277.7c21.6,0,39.2-17.5,39.2-39.2s-17.5-39.2-39.2-39.2H129c-21.6,0-39.2,17.5-39.2,39.2
	s17.5,39.2,39.2,39.2H383z"/>
<path class="st0" d="M158,124.8c-16.4,20.7-26.2,46.8-26.2,75.1v22.5v52.8c0,16.4,3.3,32.1,9.3,46.5c0,0,10.7,24.6,27,39.9
	c22.5,21.1,52,35,85,35h5.1c66.7,0,121.3-54.6,121.3-121.3v-52.8V200c0-27.3-8.8-52.6-23.8-72.9L158,124.8z"/>
<path class="st1" d="M356.8,127l-12.5-0.1c5.5,14,8.5,29.3,8.5,45.3v22.5v52.8c0,66.7-54.6,121.3-121.3,121.3h-5.1
	c-26.5,0-50.7-8.9-70.8-23.3c3.9,5.6,8.4,11.3,13.6,16.1c22.5,21.1,52,35,85,35h5.1c66.7,0,121.3-54.6,121.3-121.3v-52.8V200
	C380.6,172.5,371.8,147.3,356.8,127z"/>
<path class="st3" d="M153.1,112.6c0,0,80.9,80.9,179.6,83.1l-8.9-36.4l31.2,1.5l-1.2-39.3L153.1,112.6z"/>
<g>
	<path class="st2" d="M254.7,334.1c-20.7,0-40.2-8.1-54.9-22.7c-3-3-3-7.9,0-10.9s7.9-3,10.9,0c11.7,11.7,27.3,18.2,43.9,18.2
		s32.2-6.5,43.9-18.2c3-3,7.9-3,10.9,0s3,7.9,0,10.9C294.9,326,275.4,334.1,254.7,334.1z"/>
	<path class="st2" d="M255.6,295.3c-13.2,0-23.9-10.7-23.9-23.9c0-4.3,3.5-7.7,7.7-7.7c4.3,0,7.7,3.5,7.7,7.7c0,4.7,3.8,8.5,8.5,8.5
		c4.7,0,8.5-3.8,8.5-8.5c0-4.3,3.5-7.7,7.7-7.7s7.7,3.5,7.7,7.7C279.5,284.6,268.8,295.3,255.6,295.3z"/>
	<path class="st2" d="M234.6,248.9c-4.3,0-7.7-3.5-7.7-7.7c0-4.7-3.8-8.5-8.5-8.5s-8.5,3.8-8.5,8.5c0,4.3-3.5,7.7-7.7,7.7
		c-4.3,0-7.7-3.5-7.7-7.7c0-13.2,10.7-23.9,23.9-23.9s23.9,10.7,23.9,23.9C242.3,245.4,238.8,248.9,234.6,248.9z"/>
	<path class="st2" d="M316.9,248.9c-4.3,0-7.7-3.5-7.7-7.7c0-4.7-3.8-8.5-8.5-8.5s-8.5,3.8-8.5,8.5c0,4.3-3.5,7.7-7.7,7.7
		s-7.7-3.5-7.7-7.7c0-13.2,10.7-23.9,23.9-23.9s23.9,10.7,23.9,23.9C324.6,245.4,321.1,248.9,316.9,248.9z"/>
</g>
<path class="st3" d="M252.1,39.9c-30.3,0-58.8-1.3-80.3-3.6c-10.7-1.2-19.2-2.5-25.2-4.1C142.3,31.1,132,28.4,132,20
	s10.2-11.1,14.6-12.2c6-1.6,14.5-2.9,25.2-4.1c21.5-2.3,50-3.6,80.3-3.6s58.8,1.3,80.3,3.6c10.7,1.2,19.2,2.5,25.2,4.1
	c4.4,1.1,14.6,3.8,14.6,12.2S362,31.1,357.7,32.2c-6,1.5-14.5,2.9-25.2,4.1C311,38.6,282.4,39.9,252.1,39.9z M165.3,20
	c18.5,2.5,48.6,4.5,86.8,4.5s68.4-2.1,86.8-4.5c-18.5-2.5-48.6-4.5-86.8-4.5S183.8,17.5,165.3,20z M358.8,24.4L358.8,24.4
	L358.8,24.4z"/>
</svg>
