<?xml version="1.0" encoding="utf-8"?>
<!-- Generator: Adobe Illustrator 21.0.0, SVG Export Plug-In . SVG Version: 6.00 Build 0)  -->
<svg version="1.1" id="Layer_1" xmlns="http://www.w3.org/2000/svg" xmlns:xlink="http://www.w3.org/1999/xlink" x="0px" y="0px"
	 viewBox="0 0 512 542" style="enable-background:new 0 0 512 542;" xml:space="preserve">
<style type="text/css">
	.st0{fill:#F5EA78;}
	.st1{opacity:0.12;fill:#DD8E92;enable-background:new    ;}
	.st2{fill:#F9C3C2;}
	.st3{fill:#B1DEE0;}
	.st4{fill:#92CCCC;}
	.st5{opacity:0.34;fill:#DD8E92;enable-background:new    ;}
	.st6{fill:#DD8E92;}
	.st7{fill:#F4A2A3;}
	.st8{fill:#1D1D1B;}
	.st9{fill:#FFFFFF;}
</style>
<g>
	<path class="st0" d="M167.1,456.9c0,0-124.7-27.3-77.1-236.2c6.4-28.2,15.2-51.1,25.6-69.6c0,0,19-36.6,49.8-53.5
		c69.1-38,149.2-2.6,149.2-2.6s71.3-26.1,106.9,125.7c48.9,208.6-77.1,236.2-77.1,236.2H167.1L167.1,456.9z"/>
	<rect x="227.1" y="424.2" class="st1" width="54.1" height="26.9"/>
	<path class="st2" d="M128.2,232.8c0,0,106.1,0.4,164.7-107.3c0,0,24.1,15,57.5,27.1c26.8,9.7,29.8,51.3,29.8,80.2v74.6
		c0,67.9-55.5,123.4-123.4,123.4h-5.2c-67.8,0-123.4-55.5-123.4-123.4L128.2,232.8L128.2,232.8z"/>
	<g>
		<path class="st3" d="M249.3,445.5h-30.5v-0.1c-109,0-109,96.6-109,96.6h243.7C353.5,542,353.5,445.5,249.3,445.5z"/>
		<path class="st4" d="M353.6,542h45c0,0,0.8-37.5-22.4-60.7c-22.1-22.1-52.7-35.8-86.5-35.8h-40.4C294.8,447.2,334,503.8,353.6,542
			z"/>
	</g>
	<path class="st2" d="M281.4,418.5v53.9c0,14.9-12.1,27-27,27l0,0c-14.9,0-27-12.1-27-27v-53.9H281.4z"/>
	<g>
		<path class="st5" d="M350.4,152.7c-1.7-0.6-3.4-1.3-5.1-1.9c6,16.6,7,37.5,7,54.2v74.6c0,67.8-55.5,123.4-123.4,123.4h-5.2
			c-26.9,0-51.8-8.7-72.1-23.4c22.5,31,58.9,51.3,99.9,51.3h5.2c67.9,0,123.4-55.5,123.4-123.4v-74.6
			C380.2,204,377.1,162.4,350.4,152.7z"/>
		<path class="st6" d="M209,291.1c-4.3,0-7.8-3.5-7.8-7.8V264c0-4.3,3.5-7.8,7.8-7.8s7.8,3.5,7.8,7.8v19.3
			C216.8,287.5,213.3,291.1,209,291.1z"/>
		<path class="st6" d="M299.4,291.1c-4.3,0-7.8-3.5-7.8-7.8V264c0-4.3,3.5-7.8,7.8-7.8s7.8,3.5,7.8,7.8v19.3
			C307.2,287.5,303.7,291.1,299.4,291.1z"/>
		<path class="st6" d="M253,370c-20,0-39.9-7.6-55.1-22.8c-3.1-3.1-3.1-8,0-11.1s8-3.1,11.1,0c24.3,24.3,63.8,24.3,88.1,0
			c3.1-3.1,8-3.1,11.1,0s3.1,8,0,11.1C292.9,362.4,272.9,370,253,370z"/>
		<path class="st6" d="M261.4,323.5h-18.8c-2.3,0-4.6-1-6-2.8c-1.5-1.8-2.1-4.2-1.7-6.5l7.8-40.8c0.8-4.3,4.9-7,9.2-6.2
			s7,4.9,6.2,9.2l-6,31.4h9.3c4.3,0,7.8,3.5,7.8,7.8S265.7,323.5,261.4,323.5z"/>
	</g>
	<g>
		<circle class="st7" cx="162.5" cy="296.3" r="19.6"/>
		<circle class="st7" cx="342.9" cy="296.3" r="19.6"/>
	</g>
	<g>
		<path class="st3" d="M338.9,0l-48.7,50c14.5,8.3,35.1,16.6,61,18.2L338.9,0z"/>
		<path class="st3" d="M274.2,66.5L249.4,92c0,0,41.6,43.9,112.6,35.5l-6.7-36.9C317.9,91,290.1,77.3,274.2,66.5z"/>
		<path class="st4" d="M355.3,90.5l-4-22.3c-25.9-1.6-46.5-9.9-61-18.2l-16,16.5C290.1,77.3,317.9,91,355.3,90.5z"/>
	</g>
	<g>
		<polygon class="st8" points="379.7,401.1 374,417.1 360.8,412.5 314.9,542 329.7,542 		"/>
		<polygon class="st9" points="360.8,412.5 360.8,412.5 366.5,396.4 		"/>
		
			<rect x="361.7" y="399.8" transform="matrix(0.3342 -0.9425 0.9425 0.3342 -136.8678 619.7599)" class="st9" width="17.1" height="14"/>
	</g>
</g>
</svg>
