<?xml version="1.0" encoding="utf-8"?>
<!-- Generator: Adobe Illustrator 21.0.0, SVG Export Plug-In . SVG Version: 6.00 Build 0)  -->
<svg version="1.1" id="Layer_1" xmlns="http://www.w3.org/2000/svg" xmlns:xlink="http://www.w3.org/1999/xlink" x="0px" y="0px"
	 viewBox="0 0 512 512" style="enable-background:new 0 0 512 512;" xml:space="preserve">
<style type="text/css">
	.st0{fill:#9DBF8C;}
	.st1{opacity:0.33;}
	.st2{fill:#FFFFFF;}
	.st3{fill:#F4A2A3;}
	.st4{fill:#E0656B;}
	.st5{opacity:0.26;fill:#BA6A73;enable-background:new    ;}
	.st6{fill:#BA6A73;}
</style>
<path class="st0" d="M290.3,373.3h33.2c50.1,0,90.8,54.1,90.8,104.3V512H99.9v-47.9c0-50.1,40.6-90.8,90.8-90.8h38.3L290.3,373.3
	L290.3,373.3z"/>
<g class="st1">
	<path class="st2" d="M323.5,373.3h-33.2h-61.4h-38.3c-0.1,0-0.3,0-0.4,0V512H329V373.5C327.2,373.4,325.3,373.3,323.5,373.3z"/>
</g>
<path class="st3" d="M290.3,333.8v69.3c0,16.9-13.7,30.7-30.7,30.7l0,0c-16.9,0-30.7-13.7-30.7-30.7v-69.3H290.3z"/>
<path class="st4" d="M89.9,197.5v-63.9V76.9L73.9,19.4l31.9-2.1l9-17.3h226.8c48,0,86.9,38.9,86.9,86.9v107L89.9,197.5z"/>
<g>
	<path class="st3" d="M399.6,249.7c21.2,0,38.4-17.2,38.4-38.4s-17.2-38.4-38.4-38.4H121.2c-21.2,0-38.4,17.2-38.4,38.4
		s17.2,38.4,38.4,38.4H399.6z"/>
	<path class="st3" d="M390.6,94.1c5.8,15.4,9,32,9,49.3v72.2c0,77.3-63.2,140.5-140.5,140.5l0,0c-77.3,0-140.5-63.2-137.4-136.4
		v-72.2V42.5h260.6L390.6,94.1"/>
</g>
<g>
	<path class="st5" d="M391.6,94.1l-8.3-51.6h-25.7l3.4,21c5.8,15.4,9,32,9,49.3V185c0,77.3-63.2,140.5-140.5,140.5l0,0
		c-30.8,0-59.4-10.1-82.5-26.8c24.9,34.4,66.5,57.5,113.2,57.5l0,0c77.3,0,140.5-63.2,140.5-140.5v-72.2
		C400.6,126.1,397.4,109.5,391.6,94.1z"/>
	<path class="st6" d="M259.9,257.1c-8.1,0-16.1-3.1-22.3-9.2c-3-3-3-8,0-11c3-3,8-3,11,0c6.2,6.2,16.3,6.2,22.5,0c3-3,8-3,11,0
		s3,8,0,11C276,254,268,257.1,259.9,257.1z"/>
</g>
<path class="st2" d="M306.4,277.2c0.9,0,1.3,1.1,0.7,1.7c-13.5,13.4-30.7,29.1-47.9,28.9c-16.7-0.2-33.4-15.9-46.4-28.9
	c-0.6-0.6-0.2-1.7,0.7-1.7H306.4z"/>
<g>
	<path class="st6" d="M229,131.6c-2,0-4-0.8-5.5-2.3c-6.2-6.2-14.3-9.6-23.1-9.6s-16.9,3.4-23.1,9.6c-3,3-8,3-11,0c-3-3-3-8,0-11
		c9.1-9.1,21.2-14.1,34.1-14.1s25,5,34.1,14.1c3,3,3,8,0,11C233,130.8,231,131.6,229,131.6z"/>
	<path class="st6" d="M337.7,128.3c-2,0-4-0.8-5.5-2.3c-6.2-6.2-14.3-9.6-23.1-9.6s-16.9,3.4-23.1,9.6c-3,3-8,3-11,0c-3-3-3-8,0-11
		c9.1-9.1,21.2-14.1,34.1-14.1c12.9,0,25,5,34.1,14.1c3,3,3,8,0,11C341.7,127.5,339.7,128.3,337.7,128.3z"/>
</g>
<g>
	<circle class="st2" cx="202.2" cy="184.2" r="44"/>
	<circle class="st2" cx="318.6" cy="184.2" r="44"/>
</g>
<g>
	<path class="st6" d="M203.3,200.8c-4.3,0-7.8-3.5-7.8-7.8v-17.7c0-4.3,3.5-7.8,7.8-7.8c4.3,0,7.8,3.5,7.8,7.8v17.7
		C211.1,197.4,207.6,200.8,203.3,200.8z"/>
	<path class="st6" d="M317.6,200.8c-4.3,0-7.8-3.5-7.8-7.8v-17.7c0-4.3,3.5-7.8,7.8-7.8s7.8,3.5,7.8,7.8v17.7
		C325.3,197.4,321.9,200.8,317.6,200.8z"/>
</g>
<path class="st4" d="M405,91.4c-52,2.7-95.9-1.9-131.1-8.9l-60-16.6c-26.4-9.6-40.2-18.1-40.2-18.1s-5.5,67.2-66.5,106.7V34.1H399
	L405,91.4z"/>
<g>
	<path class="st6" d="M294.4,180.6h-68c-4.3,0-7.8-3.5-7.8-7.8s3.5-7.8,7.8-7.8h68c4.3,0,7.8,3.5,7.8,7.8S298.7,180.6,294.4,180.6z"
		/>
	<path class="st6" d="M162,170.2h-39.7c-4.3,0-7.8-3.5-7.8-7.8s3.5-7.8,7.8-7.8H162c4.3,0,7.8,3.5,7.8,7.8S166.3,170.2,162,170.2z"
		/>
	<path class="st6" d="M398.3,170.2h-39.7c-4.3,0-7.8-3.5-7.8-7.8s3.5-7.8,7.8-7.8h39.7c4.3,0,7.8,3.5,7.8,7.8
		S402.6,170.2,398.3,170.2z"/>
	<path class="st6" d="M202.2,236c-28.5,0-51.8-23.2-51.8-51.8s23.2-51.8,51.8-51.8c28.5,0,51.8,23.2,51.8,51.8S230.8,236,202.2,236z
		 M202.2,148c-20,0-36.2,16.2-36.2,36.2s16.2,36.2,36.2,36.2c20,0,36.2-16.2,36.2-36.2S222.2,148,202.2,148z"/>
	<path class="st6" d="M318.6,236c-28.5,0-51.8-23.2-51.8-51.8s23.2-51.8,51.8-51.8c28.5,0,51.8,23.2,51.8,51.8S347.1,236,318.6,236z
		 M318.6,148c-20,0-36.2,16.2-36.2,36.2s16.2,36.2,36.2,36.2c20,0,36.2-16.2,36.2-36.2S338.5,148,318.6,148z"/>
</g>
</svg>
