<?xml version="1.0" encoding="utf-8"?>
<!-- Generator: Adobe Illustrator 21.0.0, SVG Export Plug-In . SVG Version: 6.00 Build 0)  -->
<svg version="1.1" id="Layer_1" xmlns="http://www.w3.org/2000/svg" xmlns:xlink="http://www.w3.org/1999/xlink" x="0px" y="0px"
	 viewBox="0 0 512 512" style="enable-background:new 0 0 512 512;" xml:space="preserve">
<style type="text/css">
	.st0{fill:#F4A2A3;}
	.st1{fill:#9DBF8C;}
	.st2{opacity:0.29;fill:#775F45;enable-background:new    ;}
	.st3{fill:#F7D2BA;}
	.st4{fill:#775F45;}
	.st5{opacity:0.11;fill:#775F45;enable-background:new    ;}
	.st6{fill:#FFFFFF;}
	.st7{fill:#DD8E92;}
	.st8{fill:#EA7177;}
	.st9{fill:#AAE090;}
</style>
<path class="st0" d="M398.3,253.1c22.7,0,41.2-18.8,41.2-42.1S421,169,398.3,169H138.1c-22.7,0-41.2,18.8-41.2,42.1
	s18.4,42.1,41.2,42.1H398.3z"/>
<path class="st1" d="M236,365.5c-23.6,0-43.1,5-61.8,16.6l-42.4,41.6c-11.5,18.7-18.2,40.7-18.2,64.2v0.2V512h315.6v-23.9v-0.2
	c0-67.6-54.8-122.4-122.4-122.4L236,365.5L236,365.5z"/>
<path class="st2" d="M306.1,365.5h-31.4c67.6,0,122.4,54.8,122.4,122.4v0.2V512h31.4v-23.9v-0.2
	C428.5,420.3,373.7,365.5,306.1,365.5z"/>
<g>
	<path class="st3" d="M298.6,333.6v40.3c0,10.2-8.3,18.5-18.5,18.5h-17c-10.2,0-18.5-8.3-18.5-18.5v-40.3L298.6,333.6L298.6,333.6z"
		/>
</g>
<g>
	<rect x="244.4" y="344" class="st2" width="54.1" height="14.1"/>
	<path class="st4" d="M196.3,424.8l-20.7-8.3c0,0-6.2-29.6,1.4-49.6c7.6-20-17.9-35.9-33.1-31.7c0,0,29-15.2,20.7-40.7l217.6-46.2
		c-8.6-15.9-19.6-37.7-19.6-37.7l30.9-41.2l5.9,2.1l-1.1-0.6c0,0,51.9,14.5,35.5-52.3C404.5-0.5,331.7,15.2,331.7,15.2
		s-105.3-38-173.7,6.2c-39.5,25.5-44.9,52.7-44.9,52.7c-8,18.2-13.3,40.6-14.7,68.1c-1.5,28.9-1.8,52.8-1.2,72.7
		c0.5,14.8-4.5,29.4-14,40.8c-7,8.4-13,20.6-9.6,36.2c6.9,31.7,38.6,20,38.6,20s-31.7,29-16.5,57.2c15.2,28.3,43.4,6.9,43.4,6.9
		s-23.4,31,2.8,62l15.9,20.7l-2.1,29l24.8-20.7l30.3,4.8l-19.3-29.6L196.3,424.8z"/>
</g>
<path class="st3" d="M145.5,153c0,0,52.2-0.4,101.8-24.3c0,0,31.6-16.9,40.8-26.9c7.3-8,15.5-15.5,22-24.9c0,0,24.1-16.1,57.5-4
	c26.8,9.7,29.8,51.3,29.8,80.1v74.6c0,67.8-55.5,123.3-123.3,123.3h-5.2c-67.8,0-123.3-55.5-123.3-123.3L145.5,153"/>
<path class="st5" d="M367.6,72.8c-1.3-0.5-2.5-0.9-3.8-1.3c6.4,16.7,7.4,38.2,7.4,55.3v74.6c0,67.8-55.5,123.3-123.3,123.3h-5.2
	c-27.3,0-52.6-9-73.1-24.1c22.5,30.4,58.6,50.3,99.2,50.3h5.2c67.8,0,123.3-55.5,123.3-123.3V153C397.3,124.1,394.3,82.5,367.6,72.8
	z"/>
<g>
	<path class="st6" d="M239,224.6h-55.9c-7.8,0-14.1-6.3-14.1-14.1v-43.9h84.1v43.9C253.1,218.3,246.8,224.6,239,224.6z"/>
	<path class="st6" d="M357.9,224.6H302c-7.8,0-14.1-6.3-14.1-14.1v-43.9H372v43.9C372,218.3,365.7,224.6,357.9,224.6z"/>
</g>
<g>
	<path class="st0" d="M223.2,210.1c-4.3,0-7.8-3.5-7.8-7.8v-14.9c0-4.3,3.5-7.8,7.8-7.8s7.8,3.5,7.8,7.8v14.9
		C231,206.6,227.5,210.1,223.2,210.1z"/>
	<path class="st0" d="M339,201.5h-19.3c-4.3,0-7.8-3.5-7.8-7.8s3.5-7.8,7.8-7.8H339c4.3,0,7.8,3.5,7.8,7.8S343.3,201.5,339,201.5z"
		/>
</g>
<path class="st7" d="M278.6,243.6h-18.8c-2.3,0-4.6-1-6-2.8s-2.1-4.2-1.7-6.5l7.8-40.8c0.8-4.2,4.9-7,9.2-6.2c4.2,0.8,7,4.9,6.2,9.2
	l-6,31.4h9.3c4.3,0,7.8,3.5,7.8,7.8S282.9,243.6,278.6,243.6z"/>
<path class="st0" d="M287.7,280.7v25.9c0,9.2-7.5,16.7-16.7,16.7h-2.4c-9.2,0-16.7-7.5-16.7-16.7v-25.9H287.7z"/>
<g>
	<path class="st8" d="M239,232.4h-55.9c-12.1,0-21.9-9.8-21.9-21.9v-43.9c0-4.3,3.5-7.8,7.8-7.8h84.1c4.3,0,7.8,3.5,7.8,7.8v43.9
		C261,222.6,251.1,232.4,239,232.4z M176.8,174.4v36.1c0,3.5,2.8,6.3,6.3,6.3H239c3.5,0,6.3-2.8,6.3-6.3v-36.1H176.8z"/>
	<path class="st8" d="M357.9,232.4H302c-12.1,0-21.9-9.8-21.9-21.9v-43.9c0-4.3,3.5-7.8,7.8-7.8H372c4.3,0,7.8,3.5,7.8,7.8v43.9
		C379.8,222.6,370,232.4,357.9,232.4z M295.7,174.4v36.1c0,3.5,2.8,6.3,6.3,6.3h55.9c3.5,0,6.3-2.8,6.3-6.3v-36.1H295.7z"/>
</g>
<path class="st7" d="M270.2,290.1c-20,0-39.9-7.6-55.1-22.8c-3.1-3.1-3.1-8,0-11.1c3.1-3.1,8-3.1,11.1,0c24.3,24.3,63.8,24.3,88,0
	c3.1-3.1,8-3.1,11.1,0c3.1,3.1,3.1,8,0,11.1C310.1,282.5,290.2,290.1,270.2,290.1z"/>
<path class="st9" d="M140.8,437.2c0.1,0.1,9.1-23,34.4-22.6c0,0-2.9-17.2-1.9-24.9c0.2-1.3-43,24.8-43,24.8S132,428.3,140.8,437.2z"
	/>
<g>
	<path class="st1" d="M236,365.5C236,365.5,236,365.5,236,365.5l35.4,0L236,365.5z"/>
	<path class="st3" d="M271.6,408.3c39.2,0,71.7-15,78.7-34.9c-13.5-5.1-28.1-7.9-43.4-7.9l-35.4,0H236c-16,0-30,2.3-43.3,7.4
		C199.2,393,232,408.3,271.6,408.3z"/>
</g>
</svg>
