<?xml version="1.0" encoding="utf-8"?>
<!-- Generator: Adobe Illustrator 21.0.0, SVG Export Plug-In . SVG Version: 6.00 Build 0)  -->
<svg version="1.1" id="Laag_1" xmlns="http://www.w3.org/2000/svg" xmlns:xlink="http://www.w3.org/1999/xlink" x="0px" y="0px"
	 viewBox="0 0 350.7 595.3" style="enable-background:new 0 0 350.7 595.3;" xml:space="preserve">
<style type="text/css">
	.st0{fill:#D7B503;}
	.st1{fill:#C69908;}
</style>
<g>
	<path class="st0" d="M194.5,464.8c-10.8,15.4-6,34-9.8,50.9c-5.2,23.6-11.2,46.6-22.3,68.2c-3.9,7.5-9.1,15.7-18.2,8.8
		c-8-6.1,1.7-11.2,4.7-15.5c10.2-14.6,18.2-30.1,22.6-47.4c4.2-16.3,9.8-32.7,7.8-49.5c-2.5-21.7-25-18.3-38-26.8
		C46.2,391.1-7.2,305.2,0.8,189.6C7.4,94.3,85.9,26.5,167.3,0.7c4.5-1.4,9.6-0.8,13.4,3.2c3.7,45.5,2.7,91.2,4.7,136.8
		c2.5,59.2,7,118.3,7,177.7c0,39.9,5.5,79.9,4.3,120C196.4,447.3,196.8,456.2,194.5,464.8z"/>
	<path class="st1" d="M194.5,464.8c-5.4-3.7-5.9-9.3-5.5-15c3.5-54.5-4.3-108.6-5.3-162.9c-1.6-85.4-6.1-170.8-9.1-256.2
		c-0.3-9.1-3.6-19.6,6-26.7c131.9,27.4,201,153.5,156.5,288.4C312.3,367.9,263.2,424.8,194.5,464.8z"/>
</g>
</svg>
