<?xml version="1.0" encoding="utf-8"?>
<!-- Generator: Adobe Illustrator 21.0.0, SVG Export Plug-In . SVG Version: 6.00 Build 0)  -->
<svg version="1.0" id="Laag_1" xmlns="http://www.w3.org/2000/svg" xmlns:xlink="http://www.w3.org/1999/xlink" x="0px" y="0px"
	 viewBox="0 0 595.3 595.3" style="enable-background:new 0 0 595.3 595.3;" xml:space="preserve">
<style type="text/css">
	.st0{fill:#69ACDF;}
	.st1{fill:#B7DCF6;}
	.st2{fill:#418AA8;}
</style>
<g>
	<g>
		<path class="st0" d="M373.7,143.9c0,42.1-34.1,76-76,76s-76-34.1-76-76S255.8,0,297.7,0S373.7,101.8,373.7,143.9z"/>
		<path class="st1" d="M286.5,126.4c21,36.3,8.5,82.8-27.8,103.8s-82.8,8.5-103.8-27.8c-21-36.3-42.4-141.7-6.1-162.7
			C185.1,18.8,265.5,90.1,286.5,126.4z"/>
		<path class="st0" d="M202.4,154.9c36.3,21,48.9,67.5,27.8,103.8s-67.5,48.9-103.8,27.8c-36.3-21-107.6-101.5-86.5-137.8
			C60.7,112.5,166.1,133.9,202.4,154.9z"/>
		<path class="st1" d="M143.9,221.6c42.1,0,76,34.1,76,76c0,42.1-34.1,76-76,76c-42.1,0-143.9-34.1-143.9-76
			C-0.2,255.7,101.8,221.6,143.9,221.6z"/>
		<path class="st0" d="M126.4,308.8c36.3-21,82.8-8.5,103.8,27.8c21,36.3,8.5,82.8-27.8,103.8c-36.3,21-141.7,42.4-162.7,6.1
			C18.8,410.2,90.1,329.6,126.4,308.8z"/>
		<path class="st1" d="M154.9,392.9c21-36.3,67.5-48.9,103.8-27.8c36.3,21,48.9,67.5,27.8,103.8c-21,36.3-101.5,107.6-137.8,86.5
			C112.5,534.6,133.9,429.2,154.9,392.9z"/>
		<path class="st0" d="M221.6,451.4c0-42.1,34.1-76,76-76s76,34.1,76,76c0,42.1-34.1,143.9-76,143.9S221.6,493.5,221.6,451.4z"/>
		<path class="st1" d="M308.8,468.9c-21-36.3-8.5-82.8,27.8-103.8c36.3-21,82.8-8.5,103.8,27.8c21,36.3,42.4,141.7,6.1,162.7
			C410.2,576.5,329.6,505.2,308.8,468.9z"/>
		<path class="st0" d="M392.9,440.4c-36.3-21-48.9-67.5-27.8-103.8s67.5-48.9,103.8-27.8s107.6,101.5,86.5,137.8
			C534.6,482.8,429.2,461.4,392.9,440.4z"/>
		<path class="st1" d="M451.4,373.7c-42.1,0-76-34.1-76-76c0-42.1,34.1-76,76-76c42.1,0,143.9,34.1,143.9,76
			C595.3,339.6,493.5,373.7,451.4,373.7z"/>
		<path class="st0" d="M468.9,286.5c-36.3,21-82.8,8.5-103.8-27.8c-21-36.3-8.5-82.8,27.8-103.8s141.7-42.4,162.7-6.1
			S505.2,265.5,468.9,286.5z"/>
		<path class="st1" d="M440.4,202.4c-21,36.3-67.5,48.9-103.8,27.8c-36.3-21-48.9-67.5-27.8-103.8c21-36.3,101.5-107.6,137.8-86.5
			S461.4,166.1,440.4,202.4z"/>
	</g>
	<circle class="st2" cx="297.6" cy="297.6" r="105.7"/>
</g>
</svg>
