<?xml version="1.0" encoding="utf-8"?>
<!-- Generator: Adobe Illustrator 21.0.0, SVG Export Plug-In . SVG Version: 6.00 Build 0)  -->
<svg version="1.1" id="Laag_1" xmlns="http://www.w3.org/2000/svg" xmlns:xlink="http://www.w3.org/1999/xlink" x="0px" y="0px"
	 viewBox="0 0 595.3 595.3" style="enable-background:new 0 0 595.3 595.3;" xml:space="preserve">
<style type="text/css">
	.st0{fill:#FFFFFF;}
	.st1{fill:#5E5E5E;}
	.st2{fill:#231F20;}
</style>
<g>
	<path id="XMLID_168_" class="st0" d="M297.6,41.6c-141.2,0-256,114.9-256,256s114.9,256,256,256c141.2,0,256-114.9,256-256
		S438.8,41.6,297.6,41.6z"/>
	<g id="XMLID_42_">
		<path id="XMLID_151_" class="st1" d="M297.6,595.3C133.5,595.3,0,461.8,0,297.6S133.5,0,297.6,0s297.6,133.5,297.6,297.6
			S461.8,595.3,297.6,595.3z M297.6,41.6c-141.2,0-256,114.9-256,256s114.9,256,256,256c141.2,0,256-114.9,256-256
			S438.8,41.6,297.6,41.6z"/>
		<g id="XMLID_216_">
			<path id="XMLID_383_" class="st2" d="M294.5,418.5l-122.9-84.7l43.9-130.6h73h73l43.9,130.6L294.5,418.5z"/>
			<polygon id="XMLID_384_" class="st1" points="288.6,203.2 215.6,203.2 171.7,333.8 294.5,418.5 405.5,333.8 361.6,203.2 			"/>
			<path id="XMLID_385_" class="st1" d="M191.3,173.3l-0.6-101.6L155.6,60c-41.2,24.6-75.4,59.7-99,101.5l31.6,46.2L191.3,173.3z"/>
			<path id="XMLID_386_" class="st1" d="M389.5,181.4l99.7,11.3l22.5-48.2l6.6-14.1c-25.4-33.5-58.3-61-96.2-80.1l-54.3,31.9
				L389.5,181.4z"/>
			<path id="XMLID_387_" class="st1" d="M137.8,364.3l-91.2-44.7l-22.2,22.3c8.2,51,30.3,97.4,62.3,135l35.9-5L137.8,364.3z"/>
			<path id="XMLID_388_" class="st1" d="M452,344l32.8,96.2l50.2,0c23.8-39.5,38-85.4,39.4-134.6l-35.5-26.8L452,344z"/>
			<path id="XMLID_389_" class="st1" d="M291.3,469.5l-83.7,57.6l10,35.6c25.3,7.6,52.2,11.7,80,11.7c23.5,0,46.3-2.9,68.1-8.4
				l11.9-30.5L291.3,469.5z"/>
		</g>
	</g>
</g>
</svg>
