<?xml version="1.0" encoding="utf-8"?>
<!-- Generator: Adobe Illustrator 21.0.0, SVG Export Plug-In . SVG Version: 6.00 Build 0)  -->
<svg version="1.1" id="Layer_1" xmlns="http://www.w3.org/2000/svg" xmlns:xlink="http://www.w3.org/1999/xlink" x="0px" y="0px"
	 viewBox="0 0 512 512" style="enable-background:new 0 0 512 512;" xml:space="preserve">
<style type="text/css">
	.st0{fill:#DBDBDB;}
	.st1{opacity:0.25;enable-background:new    ;}
	.st2{opacity:0.53;enable-background:new    ;}
	.st3{fill:#F9C3C2;}
	.st4{fill:#DD8E92;}
	.st5{fill:#E0656B;}
	.st6{fill:#FFFFFF;}
	.st7{fill:#5D5D5D;}
	.st8{fill:#848484;}
	.st9{opacity:0.34;fill:#AD4D56;enable-background:new    ;}
</style>
<path class="st0" d="M286.7,392.3h32.7c49.4,0,89.4,40,89.4,89.4V512H99.2v-33.5c0-49.4,40-86.2,89.4-86.2h37.7H286.7z"/>
<path class="st1" d="M320.4,392.3h-32.7h-22c49.4,0,89.4,40,89.4,89.4V512h54.6v-30.3C409.8,432.3,369.8,392.3,320.4,392.3z"/>
<path class="st2" d="M313.9,391.5v20.3c0,31-25.1,56.1-56.1,56.1l0,0c-31,0-56.1-25.1-56.1-56.1v-20.3H313.9z"/>
<path class="st3" d="M289,363.8v47.7c0,17.1-13.9,31-31,31l0,0c-17.1,0-31-13.9-31-31v-47.7H289z"/>
<path class="st4" d="M387.7,275.2c19.9,0,36.1-16.2,36.1-36.1S407.7,203,387.7,203H124.3c-19.9,0-36.1,16.2-36.1,36.1
	s16.2,36.1,36.1,36.1H387.7z"/>
<path class="st3" d="M125.8,110.3v136.8v80.1c0,35.7,29,64.7,64.7,64.7h132c35.6,0,64.6-28.8,64.7-64.5c0.1-31.5,0.1-83.8-0.4-84.3
	V110.3H125.8z"/>
<path class="st5" d="M386.8,186.1h-26.6c-6.7,0-12.2,5.4-12.2,12.2v53.3h-72.5H237h-72.5v-53.3c0-6.7-5.4-12.2-12.2-12.2h-26.5v61
	v80.1c0,35.7,29,64.7,64.7,64.7h132c35.6,0,64.6-28.8,64.7-64.5c0.1-31.5,0.1-83.8-0.4-84.3L386.8,186.1L386.8,186.1z"/>
<path class="st3" d="M275.5,234.2v21.7c0,10.6-8.6,19.3-19.3,19.3l0,0c-10.6,0-19.3-8.6-19.3-19.3v-21.7H275.5L275.5,234.2z"/>
<g>
	<path class="st4" d="M208.2,223.8c-4.4,0-7.9-3.5-7.9-7.9v-18.3c0-4.4,3.5-7.9,7.9-7.9s7.9,3.5,7.9,7.9v18.3
		C216,220.3,212.5,223.8,208.2,223.8z"/>
	<path class="st4" d="M223.6,185.5c-2,0-4-0.8-5.6-2.3c-2.6-2.6-6.1-4.1-9.9-4.1s-7.2,1.5-9.9,4.1c-3.1,3.1-8.1,3.1-11.1,0
		c-3.1-3.1-3.1-8.1,0-11.1c11.6-11.6,30.5-11.6,42.1,0c3.1,3.1,3.1,8.1,0,11.1C227.7,184.7,225.6,185.5,223.6,185.5z"/>
</g>
<path class="st6" d="M307.8,286.9c0,28.5-23.1,51.6-51.6,51.6s-51.6-23.1-51.6-51.6H307.8z"/>
<g>
	<path class="st7" d="M161.4,288H127c-4.4,0-7.9-3.5-7.9-7.9c0-4.4,3.5-7.9,7.9-7.9h34.4c4.4,0,7.9,3.5,7.9,7.9S165.7,288,161.4,288
		z"/>
	<path class="st7" d="M161.4,312.2H127c-4.4,0-7.9-3.5-7.9-7.9c0-4.4,3.5-7.9,7.9-7.9h34.4c4.4,0,7.9,3.5,7.9,7.9
		C169.3,308.7,165.7,312.2,161.4,312.2z"/>
	<circle class="st7" cx="308.7" cy="196.7" r="32.1"/>
	<path class="st7" d="M280.3,185.7c-1.3,0-2.7-0.3-3.9-1c-39.9-22.8-44.2-62.2-44.4-63.9c-0.4-4.3,2.7-8.2,7.1-8.6
		c4.3-0.4,8.2,2.7,8.6,7c0.1,1.4,4,33.2,36.5,51.8c3.8,2.2,5.1,7,2.9,10.8C285.7,184.2,283,185.7,280.3,185.7z"/>
</g>
<path class="st8" d="M260.9,312.7c0-4.4-3.5-7.9-7.9-7.9h-41.6c-1.2,0-2.4,0.3-3.4,0.8c2.1,5.5,5.2,10.6,9,15h36
	C257.3,320.6,260.9,317,260.9,312.7z"/>
<path class="st9" d="M387.8,243.3V110.3h-42v90.9c0.5,0.5,0.5,52.8,0.4,84.3c-0.1,35.6-29,64.5-64.7,64.5h-132
	c-6.8,0-13.4-1.1-19.6-3c8.3,26.1,32.8,45.1,61.7,45.1h132c35.6,0,64.6-28.8,64.7-64.5C388.4,296,388.3,243.7,387.8,243.3z"/>
<path class="st7" d="M404.4,98.3h5.9c6.5,0,11.8,5.3,11.8,11.8v19.7H422V153c0,9.8-8,17.8-17.8,17.8h-23.9c-2.9,0-5.2-2.3-5.2-5.2
	v-32.5c0-7.6-6.2-13.8-13.8-13.8H157c-7.6,0-13.8,6.2-13.8,13.8v32.5c0,2.9-2.3,5.2-5.2,5.2h-23.9c-9.8,0-17.8-8-17.8-17.8v-23.2
	v-7.4v-12.4c0-6.5,5.3-11.8,11.8-11.8h5.9c4.6,0,8.5-3.2,9.4-7.7V79.7c0-44,35.7-79.7,79.7-79.7h112.2c44,0,79.6,35.6,79.7,79.6
	c0,6.8,0,11.1,0,11l0,0c0,4.1,3.3,7.4,7.3,7.5C403.6,98,404.4,98.1,404.4,98.3z"/>
<g>
	<path class="st0" d="M281.3,50.3c0-13.2-10.7-23.8-23.8-23.8c-13.2,0-23.8,10.7-23.8,23.8c0,8.2,4.2,15.5,10.5,19.8v18.1h26.6V70
		C277.2,65.7,281.3,58.5,281.3,50.3z"/>
	<path class="st0" d="M238.2,41.7c-1.7,0-3.4-0.5-4.8-1.6l-13.7-10.5c-3.4-2.7-4.1-7.6-1.4-11.1c2.7-3.4,7.6-4.1,11.1-1.4l13.7,10.5
		c3.4,2.7,4.1,7.6,1.4,11.1C242.9,40.6,240.6,41.7,238.2,41.7z"/>
	<path class="st0" d="M290.8,83.7c-1.7,0-3.4-0.5-4.8-1.6l-13.7-10.5c-3.5-2.7-4.1-7.6-1.4-11.1c2.7-3.4,7.6-4.1,11.1-1.4l13.7,10.5
		c3.5,2.7,4.1,7.6,1.4,11.1C295.5,82.6,293.2,83.7,290.8,83.7z"/>
	<path class="st0" d="M223.8,82.7c-2.4,0-4.7-1.1-6.3-3.1c-2.7-3.4-2-8.4,1.4-11.1L232.7,58c3.4-2.7,8.4-2,11.1,1.4
		c2.7,3.5,2,8.4-1.4,11.1L228.6,81C227.2,82.2,225.5,82.7,223.8,82.7z"/>
	<path class="st0" d="M277.9,42.7c-2.4,0-4.7-1.1-6.3-3.1c-2.7-3.5-2-8.4,1.4-11.1l13.7-10.5c3.5-2.7,8.4-2,11.1,1.4
		c2.7,3.5,2,8.4-1.4,11.1l-13.7,10.5C281.3,42.2,279.6,42.7,277.9,42.7z"/>
</g>
</svg>
