<?xml version="1.0" encoding="utf-8"?>
<!-- Generator: Adobe Illustrator 21.0.0, SVG Export Plug-In . SVG Version: 6.00 Build 0)  -->
<svg version="1.1" id="Laag_1" xmlns="http://www.w3.org/2000/svg" xmlns:xlink="http://www.w3.org/1999/xlink" x="0px" y="0px"
	 viewBox="0 0 841.9 483.3" style="enable-background:new 0 0 841.9 483.3;" xml:space="preserve">
<style type="text/css">
	.st0{fill:#FFFFFF;}
</style>
<g>
	<ellipse class="st0" cx="420.9" cy="241.7" rx="420.9" ry="241.7"/>
	<g>
		<path d="M138.7,330V156.1l34.4-2.8v71.1h32.7v-68.3l34.4-2.8v173.9l-34.4,2.8v-74.3h-32.7v71.5L138.7,330z"/>
		<path d="M259.3,328.6l36.9-173.2l48.8-2.1L383,327.2l-37.4,1.4l-6.3-37.6h-41.8l-7.5,37.6H259.3z M303.7,262.9h29.2L316.8,179
			L303.7,262.9z"/>
		<path d="M458.9,330V156.1l34.4-2.8v71.1H526v-68.3l34.4-2.8v173.9L526,330v-74.3h-32.7v71.5L458.9,330z"/>
		<path d="M579.5,328.6l36.9-173.2l48.8-2.1l37.9,173.9l-37.4,1.4l-6.3-37.6h-41.8l-7.5,37.6H579.5z M623.9,262.9h29.2L637,179
			L623.9,262.9z"/>
	</g>
</g>
</svg>
