<?xml version="1.0" encoding="utf-8"?>
<!-- Generator: Adobe Illustrator 21.0.0, SVG Export Plug-In . SVG Version: 6.00 Build 0)  -->
<svg version="1.1" id="Layer_1" xmlns="http://www.w3.org/2000/svg" xmlns:xlink="http://www.w3.org/1999/xlink" x="0px" y="0px"
	 viewBox="0 0 512 512" style="enable-background:new 0 0 512 512;" xml:space="preserve">
<style type="text/css">
	.st0{fill:#E7E000;}
	.st1{fill:#E4D114;}
	.st2{fill:#FDECE5;}
	.st3{fill:#E0656B;}
	.st4{opacity:0.34;fill:#302E2E;enable-background:new    ;}
	.st5{opacity:0.11;fill:#302E2E;enable-background:new    ;}
	.st6{fill:#FFFFFF;}
	.st7{opacity:0.34;}
	.st8{fill:#302E2E;}
	.st9{fill:#583189;}
</style>
<path class="st0" d="M284.9,414.8h83.8c25.9,0,46.9,19.5,46.9,43.5V512H96.3v-53.7c0-24,21-43.5,46.9-43.5h19.8H284.9z"/>
<path class="st1" d="M368.8,414.8h-40.1c25.9,0,46.9,19.5,46.9,43.5V512h40.1v-53.7C415.7,434.3,394.7,414.8,368.8,414.8z"/>
<path class="st2" d="M283.5,388.7v33.3c0,15.1-12.2,27.3-27.3,27.3l0,0c-15.1,0-27.3-12.2-27.3-27.3v-33.3H283.5z"/>
<path class="st3" d="M145.4,341.8C90.3,308.6,53.9,251.2,53.9,186c0-23.7,4.8-46.4,13.6-67.3c0,0,9-26.7,38.7-57.7
	C142.7,23.1,196.6,0,255.9,0c111.5,0,202,83.3,202,186c0,66.8-35.1,125.4-92.6,158.2L145.4,341.8z"/>
<path class="st4" d="M389.2,46.1c24.9,30.9,39.6,69.2,39.6,110.6c0,66.8-35.1,125.4-92.6,158.2l-219.9-2.5
	c-7.9-4.8-15.5-10.1-22.6-15.8c14.2,17.7,31.8,33,51.9,45.1l219.9,2.5c57.5-32.8,92.6-91.4,92.6-158.2
	C458.1,130.2,431.4,80.2,389.2,46.1z"/>
<g>
	<path class="st2" d="M385,284.6c22,0,39.8-17.8,39.8-39.8S407,205.1,385,205.1H127.2c-22,0-39.8,17.8-39.8,39.8
		s17.8,39.8,39.8,39.8H385z"/>
	<path class="st2" d="M175.6,123.1c-25.2,0-45.6,20.4-45.6,45.6v59.6V282c0,67.7,55.4,123.2,123.2,123.2h5.2
		c67.7,0,123.2-55.4,123.2-123.2v-53.6v-59.6c0-25.2-20.4-45.6-45.6-45.6L175.6,123.1L175.6,123.1z"/>
</g>
<g>
	<circle class="st3" cx="346.6" cy="292.1" r="12.8"/>
	<circle class="st3" cx="165.7" cy="292.1" r="12.8"/>
</g>
<path class="st5" d="M348.3,124.5c0.9,3.6,1.4,7.4,1.4,11.3v59.6v53.6c0,67.7-55.4,123.2-123.2,123.2h-5.2c-25.5,0-49.3-7.9-69-21.3
	c22.2,32.6,59.7,54.2,101.9,54.2h5.2c67.7,0,123.2-55.4,123.2-123.2v-53.6v-59.6C382.6,147.4,368,129.6,348.3,124.5z"/>
<g>
	<circle class="st6" cx="204" cy="232.5" r="30.8"/>
	<circle class="st6" cx="307.5" cy="232.5" r="30.8"/>
</g>
<g>
	<path class="st3" d="M254.8,341.8c-21,0-40.8-8.2-55.7-23.1c-3.1-3.1-3.1-8,0-11.1c3.1-3.1,8-3.1,11.1,0
		c11.9,11.9,27.8,18.5,44.6,18.5c16.9,0,32.7-6.6,44.6-18.5c3.1-3.1,8-3.1,11.1,0c3.1,3.1,3.1,8,0,11.1
		C295.6,333.6,275.8,341.8,254.8,341.8z"/>
	<path class="st3" d="M254.8,373.5c-12.2,0-24.4-4.6-33.7-13.9c-3.1-3.1-3.1-8,0-11.1c3.1-3.1,8-3.1,11.1,0
		c12.5,12.5,32.8,12.5,45.3,0c3.1-3.1,8-3.1,11.1,0c3.1,3.1,3.1,8,0,11.1C279.2,368.8,267,373.5,254.8,373.5z"/>
	<g>
		<path class="st3" d="M220.5,240.3c-4.3,0-7.8-3.5-7.8-7.8c0-4.8-3.9-8.6-8.6-8.6s-8.6,3.9-8.6,8.6c0,4.3-3.5,7.8-7.8,7.8
			s-7.8-3.5-7.8-7.8c0-13.4,10.9-24.3,24.3-24.3s24.3,10.9,24.3,24.3C228.3,236.8,224.8,240.3,220.5,240.3z"/>
	</g>
</g>
<path class="st3" d="M167.4,114.5c11,11,23.5,19.4,36.9,25.4c0,0,25.4,10.5,66.9,9.2c25.5-0.8,49.6-15.1,69.1-34.6
	C340.3,114.5,167.4,114.5,167.4,114.5z"/>
<g class="st7">
	<path class="st8" d="M155.7,67.2c-2.1,0-4.2-0.8-5.8-2.5c-2.9-3.2-2.7-8.1,0.4-11c1.3-1.2,32.4-29.4,85-30.9
		c4.3-0.1,7.9,3.3,8.1,7.6c0.1,4.3-3.3,7.9-7.6,8.1c-46.5,1.4-74.6,26.5-74.8,26.8C159.5,66.6,157.6,67.2,155.7,67.2z"/>
</g>
<circle class="st3" cx="255.7" cy="278.8" r="24.3"/>
<circle class="st3" cx="63.1" cy="183.9" r="24.3"/>
<circle class="st3" cx="370.9" cy="45" r="24.3"/>
<circle class="st3" cx="108.1" cy="99.9" r="39.8"/>
<path class="st3" d="M324,240.3c-4.3,0-7.8-3.5-7.8-7.8c0-4.8-3.9-8.6-8.6-8.6s-8.6,3.9-8.6,8.6c0,4.3-3.5,7.8-7.8,7.8
	c-4.3,0-7.8-3.5-7.8-7.8c0-13.4,10.9-24.3,24.3-24.3s24.3,10.9,24.3,24.3C331.8,236.8,328.3,240.3,324,240.3z"/>
<circle class="st9" cx="255.7" cy="449.2" r="24.3"/>
<path class="st9" d="M268.4,457.7l63.8,23.7c5.9,2.2,12.1-2.2,12.1-8.4v-23.7v-23.7c0-6.3-6.3-10.6-12.1-8.4l-63.8,23.7
	C260.6,443.7,260.6,454.8,268.4,457.7z"/>
<path class="st9" d="M242.9,457.7l-63.8,23.7c-5.9,2.2-12.1-2.2-12.1-8.4v-23.7v-23.7c0-6.3,6.3-10.6,12.1-8.4l63.8,23.7
	C250.8,443.7,250.8,454.8,242.9,457.7z"/>
</svg>
