<?xml version="1.0" encoding="utf-8"?>
<!-- Generator: Adobe Illustrator 21.0.0, SVG Export Plug-In . SVG Version: 6.00 Build 0)  -->
<svg version="1.1" id="Layer_1" xmlns="http://www.w3.org/2000/svg" xmlns:xlink="http://www.w3.org/1999/xlink" x="0px" y="0px"
	 viewBox="0 0 512 512" style="enable-background:new 0 0 512 512;" xml:space="preserve">
<style type="text/css">
	.st0{fill:#B1DEE0;}
	.st1{opacity:0.34;fill:#80A8A8;enable-background:new    ;}
	.st2{fill:#F9C3C2;}
	.st3{opacity:0.59;fill:#80A8A8;enable-background:new    ;}
	.st4{opacity:0.17;fill:#DD8E92;enable-background:new    ;}
	.st5{opacity:0.27;fill:#DD8E92;enable-background:new    ;}
	.st6{fill:#DD8E92;}
	.st7{fill:#C2B0E2;}
	.st8{fill:#BD9C71;}
	.st9{fill:#AF8FE5;}
	.st10{fill:#675979;}
</style>
<path class="st0" d="M283.3,408.3h85.4c25.9,0,46.9,21,46.9,46.9V512H95.9v-56.8c0-25.9,21-46.9,46.9-46.9h84H283.3z"/>
<path class="st1" d="M368.7,408.3h-53.3c25.9,0,46.9,21,46.9,46.9V512h53.3v-56.8C415.6,429.3,394.6,408.3,368.7,408.3z"/>
<path class="st2" d="M283.3,353.2v53.4c0,15.1-12.2,27.4-27.4,27.4l0,0c-15.1,0-27.4-12.2-27.4-27.4v-53.4H283.3z"/>
<g>
	<rect x="326.6" y="408.6" class="st3" width="33.4" height="103.4"/>
	<rect x="149" y="408.6" class="st3" width="33.9" height="103.3"/>
</g>
<rect x="228.7" y="367.4" class="st4" width="54.4" height="25.4"/>
<path class="st2" d="M367.9,91v75.2l15.4,83c0,68.7-56.2,124.9-124.9,124.9h-5.3c-68.7,0-123.8-56.2-123.8-124.9L137,93.1L367.9,91z
	"/>
<g>
	<path class="st5" d="M367.9,166.2V91l-30.4,0.3v44.6l15.4,83c0,68.7-56.2,124.9-124.9,124.9h-5.3c-26.3,0-50.7-8.3-70.7-22.3
		c22.4,31.8,59.2,52.7,101.1,52.7h5.3c68.7,0,124.9-56.2,124.9-124.9L367.9,166.2z"/>
	<path class="st6" d="M210,232.5c-4.3,0-7.8-3.5-7.8-7.8v-19.6c0-4.3,3.5-7.8,7.8-7.8s7.8,3.5,7.8,7.8v19.6
		C217.8,229,214.3,232.5,210,232.5z"/>
	<path class="st6" d="M301.5,232.5c-4.3,0-7.8-3.5-7.8-7.8v-19.6c0-4.3,3.5-7.8,7.8-7.8c4.3,0,7.8,3.5,7.8,7.8v19.6
		C309.4,229,305.9,232.5,301.5,232.5z"/>
	<path class="st6" d="M254.5,312.4c-21.1,0-40.8-8.2-55.7-23.1c-3.1-3.1-3.1-8,0-11.1c3.1-3.1,8-3.1,11.1,0
		c11.9,11.9,27.8,18.5,44.6,18.5c16.9,0,32.7-6.6,44.6-18.5c3.1-3.1,8-3.1,11.1,0c3.1,3.1,3.1,8,0,11.1
		C295.4,304.2,275.6,312.4,254.5,312.4z"/>
	<path class="st6" d="M252.4,275.7c-3.7,0-6.9-2.6-7.7-6.3c-0.8-4.2,1.9-8.4,6.1-9.2c10.5-2.1,17.6-12.1,16.2-22.7l-2-14.5
		c-0.6-4.3,2.4-8.2,6.7-8.8c4.3-0.6,8.2,2.4,8.8,6.7l2,14.5c2.6,18.8-10,36.5-28.6,40.2C253.4,275.7,252.9,275.7,252.4,275.7z"/>
</g>
<g>
	<circle class="st7" cx="112.3" cy="393.3" r="16.7"/>
	<circle class="st7" cx="400.6" cy="393.3" r="16.7"/>
</g>
<polygon class="st8" points="213.3,139.2 259.6,184.7 275.2,163.8 305.9,173.2 306.3,142.8 267,123.7 "/>
<path class="st7" d="M417.9,152.2v19.9c0.1,1.8,0.1,3.7,0.1,5.5v180.7c0,9.6-7.8,17.3-17.4,17.2l0,0c-9.5-0.1-17.1-7.8-17.1-17.2
	V258.2c0-68.7-56.2-124.9-124.9-124.9h-5.3c-68.7,0-124.9,56.2-124.9,124.9v100c0,9.6-7.8,17.3-17.3,17.2h0
	c-9.5-0.1-17.1-7.8-17.1-17.2l0-157.5l-0.1,0.1v-91.2V35.1V0l71,45.7C190.1,28.9,220.3,19,252.7,19h6.7c32.3,0,62.5,9.8,87.7,26.6
	L417.9,1v84.5C417.9,85.5,417,152.2,417.9,152.2z"/>
<g>
	<path class="st9" d="M417.9,172.2v-19.9c-0.9,0,0-66.7,0-66.7V1l-28.2,17.7v66.7c0,0-0.9,66.7,0,66.7v19.9c0.1,1.8,0.1,3.7,0.1,5.5
		v180.7c0,3.7-1.2,7.1-3.1,9.9c3.1,4.4,8.2,7.3,13.9,7.3l0,0c9.6,0.1,17.4-7.7,17.4-17.2V177.7C418.1,175.8,418,174,417.9,172.2z"/>
</g>
<g>
	<path class="st10" d="M203.2,72c-4.3,0-7.8-3.5-7.8-7.8v-7.8c0-4.3,3.5-7.8,7.8-7.8s7.8,3.5,7.8,7.8v7.8
		C211,68.5,207.5,72,203.2,72z"/>
	<path class="st10" d="M304,72c-4.3,0-7.8-3.5-7.8-7.8v-7.8c0-4.3,3.5-7.8,7.8-7.8c4.3,0,7.8,3.5,7.8,7.8v7.8
		C311.8,68.5,308.3,72,304,72z"/>
	<path class="st10" d="M234.5,113.8c-15.3,0-27.7-12.4-27.7-27.7c0-4.3,3.5-7.8,7.8-7.8s7.8,3.5,7.8,7.8c0,6.6,5.4,12,12,12
		s12-5.4,12-12c0-4.3,3.5-7.8,7.8-7.8s7.8,3.5,7.8,7.8C262.2,101.4,249.8,113.8,234.5,113.8z"/>
	<path class="st10" d="M274.2,113.8c-15.3,0-27.7-12.4-27.7-27.7c0-4.3,3.5-7.8,7.8-7.8s7.8,3.5,7.8,7.8c0,6.6,5.4,12,12,12
		s12-5.4,12-12c0-4.3,3.5-7.8,7.8-7.8c4.3,0,7.8,3.5,7.8,7.8C301.9,101.4,289.5,113.8,274.2,113.8z"/>
	<path class="st10" d="M272.9,61l-15.5,20.5c-1.5,2-4.6,2-6.1,0L235.8,61c-1.3-1.8-0.1-4.3,2.1-4.3h32.8
		C273,56.7,274.2,59.2,272.9,61z"/>
</g>
</svg>
